<?xml version="1.0" encoding="UTF-8" standalone="no"?>
<!-- Created with Inkscape (http://www.inkscape.org/) -->

<svg
   xmlns:dc="http://purl.org/dc/elements/1.1/"
   xmlns:cc="http://creativecommons.org/ns#"
   xmlns:rdf="http://www.w3.org/1999/02/22-rdf-syntax-ns#"
   xmlns:svg="http://www.w3.org/2000/svg"
   xmlns="http://www.w3.org/2000/svg"
   xmlns:sodipodi="http://sodipodi.sourceforge.net/DTD/sodipodi-0.dtd"
   xmlns:inkscape="http://www.inkscape.org/namespaces/inkscape"
   width="210mm"
   height="297mm"
   viewBox="0 0 210 297"
   version="1.1"
   id="svg8"
   sodipodi:docname="heart.svg"
   inkscape:version="0.92.4 (unknown)">
  <defs
     id="defs2" />
  <sodipodi:namedview
     id="base"
     pagecolor="#ffffff"
     bordercolor="#666666"
     borderopacity="1.0"
     inkscape:pageopacity="0.0"
     inkscape:pageshadow="2"
     inkscape:zoom="0.35"
     inkscape:cx="400"
     inkscape:cy="560"
     inkscape:document-units="mm"
     inkscape:current-layer="layer1"
     showgrid="false"
     inkscape:window-width="1301"
     inkscape:window-height="744"
     inkscape:window-x="65"
     inkscape:window-y="24"
     inkscape:window-maximized="1" />
  <metadata
     id="metadata5">
    <rdf:RDF>
      <cc:Work
         rdf:about="">
        <dc:format>image/svg+xml</dc:format>
        <dc:type
           rdf:resource="http://purl.org/dc/dcmitype/StillImage" />
      </cc:Work>
    </rdf:RDF>
  </metadata>
  <g
     inkscape:label="Layer 1"
     inkscape:groupmode="layer"
     id="layer1">
    <path
       style="fill:none;stroke:#000000;stroke-width:0.26458332px;stroke-linecap:butt;stroke-linejoin:miter;stroke-opacity:1"
       d="m 99.02976,70.214285 c -1.796796,-0.766889 -2.857037,-0.755951 -4.535713,-0.755951 -0.251984,0 -0.577773,-0.178181 -0.755954,0 -0.178178,0.178178 0.178181,0.57777 0,0.755951 -0.356359,0.35636 -1.155544,-0.356359 -1.511903,0 -0.178181,0.178179 0.178178,0.577774 0,0.755952 -0.178181,0.178181 -0.577774,-0.178178 -0.755952,0 -0.178181,0.178181 0.178178,0.577773 0,0.755952 -0.178181,0.178181 -0.530572,-0.112689 -0.755954,0 -0.318736,0.159369 -0.437214,0.596585 -0.755952,0.755954 -0.225382,0.112689 -0.530571,-0.112691 -0.755951,0 -0.318739,0.159369 -0.437216,0.596582 -0.755955,0.755951 -0.22538,0.112692 -0.57777,-0.178181 -0.755951,0 -0.178179,0.178179 0.112691,0.530572 0,0.755952 -0.201872,0.403744 -1.869874,1.869877 -2.267858,2.267858 -0.397981,0.397981 -1.864114,2.065985 -2.267857,2.267857 -0.22538,0.112691 -0.577771,-0.178181 -0.755952,0 -0.178178,0.178178 0.112691,0.530572 0,0.755952 -0.318738,0.637476 -1.193168,0.874429 -1.511903,1.511906 -0.112691,0.22538 0.112689,0.530571 0,0.755951 -0.318738,0.637477 -1.193168,0.87443 -1.511906,1.511906 -0.112691,0.22538 0.178181,0.577771 0,0.755952 -0.178181,0.178178 -0.577773,-0.178181 -0.755952,0 -0.178181,0.178178 0.178179,0.577773 0,0.755951 -0.178181,0.178181 -0.530571,-0.112691 -0.755954,0 -0.318735,0.159369 -0.437213,0.596585 -0.755951,0.755955 -0.225381,0.112688 -0.577774,-0.178181 -0.755952,0 -0.178181,0.178178 0.178178,0.57777 0,0.755951 -0.178181,0.178179 -0.530572,-0.112691 -0.755952,0 -0.637476,0.318738 -0.874432,1.193168 -1.511906,1.511903 -0.225382,0.112692 -0.577773,-0.178178 -0.755951,0 -0.178181,0.178181 0.178178,0.577774 0,0.755955 -0.178181,0.178178 -0.530572,-0.112692 -0.755954,0 -0.318736,0.159369 -0.503968,0.503967 -0.755952,0.755951 -0.251984,0.251984 -0.596583,0.437214 -0.755952,0.755952 -0.112691,0.225383 0.112692,0.530572 0,0.755954 -0.318738,0.637474 -1.193167,0.87443 -1.511906,1.511903 -0.112688,0.225383 0.112692,0.530572 0,0.755952 -1.729848,3.459697 0.313323,-3.207819 -1.511903,2.267858 -0.07968,0.239053 0.112689,0.530571 0,0.755954 -0.318738,0.637474 -1.193167,0.874429 -1.511906,1.511903 -0.112691,0.225383 0.112692,0.530572 0,0.755952 -0.45357,0.907145 -1.814285,1.360715 -2.267857,2.267858 -0.112689,0.22538 0.178181,0.57777 0,0.75595 -0.178179,0.17818 -0.530569,-0.11269 -0.755952,0 -0.318738,0.15937 -0.503968,0.50397 -0.755951,0.75595 -0.251984,0.25199 -0.596586,0.43722 -0.755955,0.75596 -0.22538,0.45076 0.225383,1.06114 0,1.5119 -0.159366,0.31874 -0.596582,0.43722 -0.755951,0.75595 -0.223012,0.44603 0.173323,1.74789 0,2.26786 -0.178179,0.53454 -0.577774,0.97737 -0.755952,1.5119 -0.173323,0.51997 0.223012,1.82184 0,2.26786 -0.159369,0.31874 -0.643263,0.41788 -0.755952,0.75596 -0.159369,0.4781 0,1.00793 0,1.5119 0,0.25198 0.112689,0.53057 0,0.75595 -0.159369,0.31874 -0.596585,0.43722 -0.755954,0.75596 -0.112688,0.22538 0.112692,0.53056 0,0.75595 -0.159369,0.31874 -0.596582,0.43721 -0.755951,0.75595 -0.112692,0.22538 0.112691,0.53057 0,0.75595 -0.15937,0.31874 -0.596583,0.43722 -0.755952,0.75595 -0.112691,0.22538 0.178178,0.57778 0,0.75596 -0.178181,0.17818 -0.577773,-0.17818 -0.755954,0 -0.03042,0.0304 0,2.74619 0,3.02381 0,3.44131 0.356359,0.0432 -0.755952,2.26785 -0.237567,0.47514 0.237567,2.54868 0,3.02381 -0.159369,0.31874 -0.596582,0.43722 -0.755952,0.75596 -0.225382,0.45076 0.35636,1.15554 0,1.5119 -0.178181,0.17818 -0.755951,0.25198 -0.755951,0 0,-0.25198 1.007935,0 0.755951,0 -0.503967,0 -1.007938,0 -1.511905,0 -0.251984,0 -0.577771,-0.17818 -0.755952,0 -0.398423,0.39842 -0.577773,0.97737 -0.755952,1.51191 -0.07968,0.23905 0.178179,0.57777 0,0.75595 -0.178181,0.17818 -0.577773,-0.17818 -0.755954,0 -0.356359,0.35636 0.225383,1.06114 0,1.5119 -0.159366,0.31874 -0.596582,0.43722 -0.755951,0.75595 -0.247505,0.49501 0.22362,3.10891 0,3.77977 -0.178179,0.53454 -0.577774,0.97736 -0.755952,1.5119 -0.239054,0.71716 0.183346,1.53448 0,2.26786 -0.136657,0.54663 -0.619294,0.96527 -0.755952,1.5119 -0.122232,0.48892 0,1.00794 0,1.51191 0,0.25198 0.112689,0.53057 0,0.75595 -0.159369,0.31874 -0.596585,0.43722 -0.755954,0.75595 -0.302379,0.60476 0.302382,1.6631 0,2.26786 -0.159369,0.31874 -0.596582,0.43721 -0.755952,0.75595 -0.09773,0.19545 0,3.99989 0,4.53572 0,0.25198 0.112692,0.53057 0,0.75595 -0.159369,0.31873 -0.596582,0.43721 -0.755951,0.75595 -0.100732,0.20146 0,4.19373 0,4.53572 0,0.25198 0.112688,0.53056 0,0.75595 -0.159369,0.31874 -0.596585,0.43721 -0.755954,0.75595 -0.22538,0.45076 0.225382,1.06114 0,1.51191 -0.159367,0.31873 -0.596583,0.43721 -0.755952,0.75595 -0.136689,0.27337 0,3.25396 0,3.77976 0,3.02381 0,6.04762 0,9.07143 0,1.25992 0,2.51984 0,3.77976 0,0.25198 -0.178178,0.57777 0,0.75595 0.178181,0.17818 0.530572,-0.11269 0.755952,0 0.200715,0.10036 2.167501,2.06714 2.267857,2.26786 0.112691,0.22538 -0.112689,0.53057 0,0.75595 0.318738,0.63748 1.286523,0.83576 1.511906,1.5119 0.159369,0.47811 -0.159369,1.0338 0,1.51191 0.112691,0.33807 0.503968,0.50397 0.755952,0.75595 0.251983,0.25199 0.503967,0.50397 0.755951,0.75595 0.503971,0.50397 1.007938,1.00794 1.511906,1.51191 0.251984,0.25198 0.459444,0.55828 0.755952,0.75595 0.937643,0.6251 2.086165,0.88681 3.023809,1.51191 0.593018,0.39534 0.874432,1.19316 1.511906,1.5119 0.450762,0.22538 1.06114,-0.22538 1.511905,0 0.318736,0.15937 0.437214,0.59659 0.755952,0.75595 0.22538,0.11269 0.530572,-0.11269 0.755952,0 0.318738,0.15937 0.437216,0.59659 0.755951,0.75596 0.450766,0.22538 1.061144,-0.22539 1.511906,0 3.459697,1.72984 -3.207821,-0.31333 2.267858,1.5119 0.426505,0.14217 1.771115,0 2.267857,0 2.015871,0 4.031745,0 6.047618,0 1.76389,0 3.527777,0 5.291667,0 0.34045,0 2.037794,0.11503 2.267857,0 0.691939,-0.34597 1.327756,-1.71541 1.511904,-2.26786 0.07968,-0.23905 -0.07968,-0.5169 0,-0.75595 0.178181,-0.53454 0.50397,-1.00794 0.755954,-1.5119 0.251984,-0.50397 0.443405,-1.04309 0.755952,-1.51191 0.197672,-0.29651 0.596582,-0.43721 0.755951,-0.75595 0.112692,-0.22538 -0.112688,-0.53057 0,-0.75595 0.453573,-0.90714 1.814288,-1.36072 2.267858,-2.26786 0.112691,-0.22538 -0.178179,-0.57777 0,-0.75595 0.178181,-0.17818 0.577773,0.17818 0.755951,0 0.178181,-0.17818 -0.112688,-0.53057 0,-0.75596 0.318739,-0.63747 1.11656,-0.91888 1.511906,-1.5119 0.312547,-0.46882 0.443405,-1.04308 0.755952,-1.5119 0.197673,-0.29651 0.558281,-0.45945 0.755954,-0.75596 0.312547,-0.46882 0.443405,-1.04308 0.755952,-1.5119 0.197673,-0.29651 0.64326,-0.41788 0.755951,-0.75595 0.159369,-0.47811 -0.122229,-1.02299 0,-1.51191 0.136658,-0.54663 0.577774,-0.97736 0.755952,-1.5119 0.07968,-0.23906 -0.112689,-0.53057 0,-0.75595 0.159369,-0.31874 0.596585,-0.43722 0.755954,-0.75596 0.112689,-0.22538 -0.112691,-0.53057 0,-0.75595 0.159369,-0.31874 0.596583,-0.43722 0.755952,-0.75595 0.112691,-0.22538 0,-0.50397 0,-0.75596 0.251984,-0.25198 0.596582,-0.43721 0.755951,-0.75595 0.112692,-0.22538 -0.178178,-0.57777 0,-0.75595 0.178181,-0.17818 0.577774,0.17818 0.755955,0 0.178178,-0.17818 0,-0.50397 0,-0.75595 0,-0.25199 0,-0.50397 0,-0.75596 0,-0.52579 -0.136689,-3.50638 0,-3.77976 1.112311,-2.22462 0.755951,1.17346 0.755951,-2.26785 0,-0.49675 -0.142168,-1.84135 0,-2.26786 0.178179,-0.53454 0.619295,-0.96527 0.755952,-1.5119 0.147444,-0.58978 0,-3.65339 0,-4.53572 0,-0.25198 0,-0.50397 0,-0.75595 0,-0.25199 -0.112691,-0.53057 0,-0.75595 0.159369,-0.31874 0.596585,-0.43722 0.755952,-0.75596 0.225382,-0.45076 -0.35636,-1.15554 0,-1.5119 0.178181,-0.17818 0.577773,0.17818 0.755954,0 0.356356,-0.35636 -0.225383,-1.06114 0,-1.51191 0.159369,-0.31873 0.503966,-1.00793 0.755956,-0.75595 0.35635,0.35636 0,1.00794 0,1.51191 0,2.01587 0,4.03174 0,6.04761 0,1.25993 0,2.51985 0,3.77977 0,0.25198 0,0.50397 0,0.75595 0,0.25198 -0.1127,0.53057 0,0.75595 0.31873,0.63748 1.19316,0.87443 1.5119,1.51191 0.22538,0.45076 -0.22538,1.06114 0,1.5119 0.31874,0.63748 1.28652,0.83576 1.5119,1.51191 0.15937,0.4781 0,1.00793 0,1.5119 0,0.25199 -0.11269,0.53057 0,0.75595 0.31874,0.63748 1.28653,0.83576 1.51191,1.51191 0.15937,0.4781 0,1.00793 0,1.5119 0,1.3069 -0.079,1.77137 0.75595,3.02381 1.25359,1.88038 0.1737,0.0868 1.51191,0.75596 0.74388,0.37193 2.27993,2.65186 3.02381,3.0238 0.22538,0.11269 0.57777,-0.17818 0.75595,0 0.17818,0.17818 -0.17818,0.57778 0,0.75596 0.17818,0.17817 0.53057,-0.11269 0.75595,0 0.31874,0.15937 0.50397,0.50396 0.75595,0.75595 0.25199,0.25198 0.59659,0.43721 0.75596,0.75595 0.11269,0.22538 -0.17818,0.57777 0,0.75595 0.39842,0.39842 1.11348,0.35753 1.5119,0.75596 0.39842,0.39842 0.4434,1.04308 0.75595,1.5119 0.19768,0.29651 0.59659,0.43721 0.75596,0.75595 0.30238,0.60476 -0.30239,1.6631 0,2.26786 0.74198,1.48397 1.4366,0.34033 2.26785,0.75595 0.90715,0.45357 1.36072,1.81429 2.26786,2.26786 0.22538,0.11269 0.50397,0 0.75595,0 0.25199,0.25198 0.43722,0.59658 0.75595,0.75595 0.47514,0.23757 2.54868,-0.23757 3.02381,0 0.31874,0.15937 0.43722,0.59659 0.75596,0.75596 0.19877,0.0994 2.6285,0 3.02381,0 2.51984,0 5.03968,0 7.55952,0 2.26786,0 4.53571,0 6.80357,0 0.17964,0 2.85438,0.0847 3.02381,0 0.31874,-0.15937 0.43721,-0.59659 0.75595,-0.75596 0.22538,-0.11269 0.57777,0.17818 0.75595,0 0.35636,-0.35636 -0.35635,-1.15554 0,-1.5119 0.17819,-0.17818 0.57778,0.17818 0.75596,0 0.35636,-0.35636 -0.35636,-1.15555 0,-1.51191 0.17818,-0.17818 0.57777,0.17818 0.75595,0 0.35636,-0.35636 -0.22538,-1.06114 0,-1.5119 0.15937,-0.31874 0.59658,-0.43722 0.75595,-0.75596 0.22538,-0.45076 -0.35636,-1.15554 0,-1.5119 0.17818,-0.17818 0.57778,0.17818 0.75595,0 0.11732,-0.11731 -0.0981,-1.9737 0,-2.26786 0.17818,-0.53454 0.57778,-0.97736 0.75596,-1.5119 0.0797,-0.23906 -0.0797,-0.5169 0,-0.75595 0.17818,-0.53454 0.61929,-0.96528 0.75595,-1.51191 0.12223,-0.48892 -0.12223,-1.02298 0,-1.5119 0.13666,-0.54663 0.61929,-0.96528 0.75595,-1.51191 0.12223,-0.48892 0,-1.00793 0,-1.5119 0,-1.00794 0,-2.01588 0,-3.02381 0,-3.52778 0,-7.05556 0,-10.58333 0,-4.7877 0,-9.5754 0,-14.3631 0,-1.5119 0,-3.02381 0,-4.53572 0,-0.34044 0.11503,-2.03779 0,-2.26785 -0.15937,-0.31874 -0.64326,-0.41788 -0.75595,-0.75595 -0.15937,-0.47811 0.22538,-1.06115 0,-1.51191 -0.11269,-0.22538 -0.53057,0.11269 -0.75595,0 -0.31874,-0.15937 -0.59659,-0.43721 -0.75596,-0.75595 -0.11269,-0.22538 0.0797,-0.5169 0,-0.75595 -0.17817,-0.53454 -0.57777,-0.97737 -0.75595,-1.51191 -0.0797,-0.23905 0.11269,-0.53057 0,-0.75595 -0.15937,-0.31874 -0.55828,-0.45944 -0.75595,-0.75595 -0.31255,-0.46883 -0.35753,-1.11349 -0.75595,-1.51191 -0.17818,-0.17818 -0.57777,0.17818 -0.75596,0 -0.35635,-0.35636 0.22539,-1.06114 0,-1.5119 -0.31873,-0.63748 -1.11656,-0.91889 -1.5119,-1.51191 -0.31255,-0.46882 -0.44341,-1.04308 -0.75595,-1.5119 -0.19768,-0.29651 -0.59659,-0.43722 -0.75595,-0.75596 -0.1127,-0.22538 0.11269,-0.53056 0,-0.75595 -0.45358,-0.90714 -1.81429,-1.36071 -2.26786,-2.26785 -0.11269,-0.22538 0.17818,-0.57778 0,-0.75596 -0.17818,-0.17818 -0.57778,0.17818 -0.75595,0 -0.35636,-0.35636 0.22538,-1.06114 0,-1.5119 -0.15937,-0.31874 -0.59659,-0.43722 -0.75596,-0.75595 -0.11269,-0.22538 0,-0.50397 0,-0.75596 -0.25198,-0.25198 -0.59658,-0.43721 -0.75595,-0.75595 -0.11269,-0.22538 0.11269,-0.53057 0,-0.75595 -0.15937,-0.31874 -0.64326,-0.41788 -0.75595,-0.75595 -0.22679,-0.68036 0.22678,-1.5875 0,-2.26786 -0.17818,-0.53454 -0.6193,-0.96527 -0.75595,-1.5119 -0.12223,-0.48893 0.15936,-1.0338 0,-1.51191 -0.11269,-0.33807 -0.55828,-0.45944 -0.75596,-0.75595 -0.31254,-0.46882 -0.4434,-1.04308 -0.75595,-1.51191 -0.19767,-0.2965 -0.59658,-0.43721 -0.75595,-0.75595 -0.11269,-0.22538 0.17818,-0.57777 0,-0.75595 -0.39842,-0.39842 -1.11348,-0.35753 -1.51191,-0.75595 -0.17817,-0.17818 0.1127,-0.53058 0,-0.75596 -0.20187,-0.40374 -1.86987,-1.86987 -2.26785,-2.26785 -0.34045,-0.34045 -2.15283,-1.92277 -2.26786,-2.26786 -0.15937,-0.478106 0.35636,-1.155545 0,-1.511904 -0.35636,-0.356359 -1.15554,0.356359 -1.5119,0 -0.56346,-0.563454 -0.3996,-1.555139 -0.75596,-2.267858 -0.15936,-0.318738 -0.59658,-0.437216 -0.75595,-0.755951 -0.11269,-0.225383 0.0797,-0.516901 0,-0.755954 -1.82523,-5.475677 0.21795,1.191839 -1.5119,-2.267858 -0.11269,-0.22538 0,-0.503968 0,-0.755952 -0.25199,-0.503967 -0.44341,-1.043082 -0.75596,-1.511903 -0.39534,-0.593018 -1.11656,-0.918887 -1.5119,-1.511906 -0.31255,-0.468823 -0.44341,-1.043082 -0.75595,-1.511906 -0.19768,-0.296508 -0.59659,-0.437213 -0.75596,-0.755951 -0.93093,-1.861873 2.19433,0.682424 -0.75595,-2.267858 -0.17818,-0.178178 -0.53057,0.112692 -0.75595,0 -0.31874,-0.159369 -0.43722,-0.596582 -0.75595,-0.755951 -0.22538,-0.112692 -0.57777,0.178178 -0.75596,0 -0.35636,-0.35636 0.22539,-1.061144 0,-1.511906 -0.74198,-1.483966 -1.4366,-0.340326 -2.26785,-0.755952 -0.31874,-0.159369 -0.43722,-0.596582 -0.75595,-0.755951 -0.22539,-0.112692 -0.57778,0.178178 -0.75596,0 -0.17818,-0.178181 0.17818,-0.577774 0,-0.755952 -0.35636,-0.356362 -1.15554,0.356359 -1.5119,0 -1.56409,-1.564095 2.39014,0.06114 -0.75595,-1.511906 -0.60477,-0.302382 -1.6631,0.302382 -2.26786,0 -0.31874,-0.159369 -0.43722,-0.596582 -0.75595,-0.755952 -0.22539,-0.112691 -0.53057,0.112689 -0.75596,0 -0.31873,-0.159369 -0.43721,-0.596585 -0.75595,-0.755954 -0.22538,-0.112688 -0.57777,0.178181 -0.75595,0 -0.17818,-0.178178 0.17818,-0.57777 0,-0.755951 -0.17818,-0.178179 -0.57777,0.178181 -0.75595,0 -0.17818,-0.178179 0.17818,-0.577774 0,-0.755952 -0.17818,-0.178181 -0.57778,0.178178 -0.75596,0 -0.35636,-0.356359 0.35636,-1.155547 0,-1.511906 -0.17817,-0.178178 -0.57777,0.178181 -0.75595,0 -0.17818,-0.178178 0.11269,-0.530571 0,-0.755952 -0.15937,-0.318738 -0.59658,-0.437216 -0.75595,-0.755951 -0.14986,-0.299731 0.15454,-2.113314 0,-2.267858 -0.17818,-0.178181 -0.57777,0.178179 -0.75595,0 -0.17818,-0.178181 0.17818,-0.577773 0,-0.755951 -0.17818,-0.178181 -0.50397,0 -0.75596,0 -0.25198,0 -0.50396,0 -0.75595,0 -1.79491,0 -0.51149,-0.06112 -3.77976,0.755951 z"
       id="path31"
       inkscape:connector-curvature="0" />
  </g>
</svg>
