<?xml version="1.0" encoding="UTF-8" standalone="no"?>
<!-- Created with the Eggbot TSP art toolkit (http://egg-bot.com) -->

<svg xmlns="http://www.w3.org/2000/svg"
     xmlns:inkscape="http://www.inkscape.org/namespaces/inkscape"
     xmlns:sodipodi="http://sodipodi.sourceforge.net/DTD/sodipodi-0.dtd"
     xmlns:rdf="http://www.w3.org/1999/02/22-rdf-syntax-ns#"
     xmlns:dc="http://purl.org/dc/elements/1.1/"
     xmlns:cc="http://creativecommons.org/ns#"
     height="800"
     width="3200">
  <sodipodi:namedview
            showgrid="false"
            showborder="true"
            inkscape:showpageshadow="false"/>
  <metadata>
    <rdf:RDF>
      <cc:Work rdf:about="">
        <dc:format>image/svg+xml</dc:format>
        <dc:type rdf:resource="http://purl.org/dc/dcmitype/StillImage" />
        <dc:subject>
          <rdf:Bag>
            <rdf:li>Egg-Bot</rdf:li>
            <rdf:li>Eggbot</rdf:li>
            <rdf:li>TSP</rdf:li>
            <rdf:li>TSP art</rdf:li>
          </rdf:Bag>
        </dc:subject>
        <dc:description>TSP art created with the Eggbot TSP art toolkit (http://egg-bot.com)</dc:description>
      </cc:Work>
    </rdf:RDF>
  </metadata>
  <g      transform="translate(1200, 800) scale(1, -1)">
    <path style="fill:none;stroke:#000000;stroke-width:1"
          d="m 20,493 -16,-1 -4,21 20,0 0,21 -20,0 0,20 20,0 0,21 -20,0 0,20 20,0 0,20 -20,0 0,21 20,0 0,20 -20,0 0,20 20,0 0,21 -20,0 0,20 20,0 0,21 -20,0 0,20 20,0 -14,22 14,-2 3,17 18,4 4,1 16,-1 4,1 17,-1 4,1 16,-1 4,1 16,-1 4,1 17,-1 4,1 16,-1 4,1 16,-1 4,1 17,-1 4,1 16,-1 4,1 17,-1 4,1 16,-1 4,1 16,-1 4,1 17,-1 2,-8 -2,-13 2,-8 -2,-12 2,-8 -2,-12 2,-8 -2,-13 2,-8 -2,-12 2,-8 -2,-13 2,-7 -2,-13 2,-8 -2,-12 2,-8 -2,-13 2,-8 -2,-12 -9,-5 -12,5 0,20 -20,0 0,-20 14,-19 -14,-1 -20,0 0,20 0,20 0,21 20,0 20,0 0,20 0,20 -20,0 0,-20 -20,0 0,20 0,21 20,0 20,0 0,20 -20,0 -20,0 -21,0 0,-20 -20,0 0,20 0,21 20,0 21,0 20,0 20,0 0,20 0,20 -20,0 0,-20 -20,0 0,20 -21,0 0,-20 -20,0 0,20 -21,0 0,-20 0,-20 -20,0 0,20 0,20 -20,0 0,-20 0,-20 -21,0 -20,0 -20,0 0,20 20,0 20,0 0,20 -20,0 -20,0 -21,0 -20,0 0,-20 20,0 0,-20 -20,0 0,-21 20,0 0,-20 -20,0 0,-21 20,0 0,-20 -20,0 0,-20 20,0 21,0 0,20 20,0 0,-20 20,0 0,20 0,20 -20,0 -20,0 0,21 0,20 20,0 0,-20 20,0 0,20 21,0 20,0 20,0 0,-20 -20,0 -20,0 0,-21 0,-20 0,-20 20,0 20,0 0,20 -20,0 0,20 20,0 21,0 20,0 0,-20 -20,0 0,-20 20,0 0,-21 -20,0 0,-20 20,0 0,-20 -20,0 -21,0 0,20 0,20 -20,0 0,-20 0,-20 -20,0 0,20 0,20 -21,0 -20,0 -20,0 0,-20 20,0 20,0 0,-20 -20,0 -20,0 -21,0 0,20 0,20 -20,0 0,-20 0,-20 0,-21 20,0 0,-20 -20,0 0,-21 20,0 21,0 20,0 20,0 0,21 -20,0 -20,0 0,20 20,0 20,0 21,0 20,0 20,0 0,-20 -20,0 -20,0 0,-21 20,0 20,0 21,0 20,0 0,21 -20,0 0,20 20,0 21,0 20,0 8,0 10,-20 -18,0 -20,0 0,-21 20,0 20,0 18,11 3,-11 2,-10 -2,-10 -17,-1 -4,1 -16,-1 -4,1 -17,-1 -3,1 -17,-1 -4,1 -16,-1 -4,1 -17,-1 -4,1 -16,-1 -4,1 -16,-1 -4,1 -17,-1 -4,1 -16,-1 -4,1 -17,-1 -3,1 -17,-1 -4,1 -16,-1 -4,1 -17,-1 -4,1 Z"/>
  </g>
</svg>
