<?xml version="1.0" encoding="UTF-8" standalone="no"?>
<!-- Created with Inkscape (http://www.inkscape.org/) -->
<svg
   xmlns:dc="http://purl.org/dc/elements/1.1/"
   xmlns:cc="http://web.resource.org/cc/"
   xmlns:rdf="http://www.w3.org/1999/02/22-rdf-syntax-ns#"
   xmlns:svg="http://www.w3.org/2000/svg"
   xmlns="http://www.w3.org/2000/svg"
   xmlns:sodipodi="http://sodipodi.sourceforge.net/DTD/sodipodi-0.dtd"
   xmlns:inkscape="http://www.inkscape.org/namespaces/inkscape"
   width="500"
   height="500"
   id="svg2"
   sodipodi:version="0.32"
   inkscape:version="0.45pre1"
   sodipodi:docname="toscana.svg"
   inkscape:output_extension="org.inkscape.output.svg.inkscape"
   version="1.0"
   inkscape:export-xdpi="90"
   inkscape:export-ydpi="90"
   sodipodi:modified="TRUE">
  <defs
     id="defs4" />
  <sodipodi:namedview
     id="base"
     pagecolor="#ffffff"
     bordercolor="#666666"
     borderopacity="1.0"
     inkscape:pageopacity="0.0"
     inkscape:pageshadow="2"
     inkscape:zoom="1.0610016"
     inkscape:cx="127.01699"
     inkscape:cy="361.63106"
     inkscape:document-units="px"
     inkscape:current-layer="layer1"
     inkscape:object-points="true"
     inkscape:window-width="1280"
     inkscape:window-height="753"
     inkscape:window-x="-4"
     inkscape:window-y="-4"
     width="500px"
     height="500px" />
  <metadata
     id="metadata7">
    <rdf:RDF>
      <cc:Work
         rdf:about="">
        <dc:format>image/svg+xml</dc:format>
        <dc:type
           rdf:resource="http://purl.org/dc/dcmitype/StillImage" />
      </cc:Work>
    </rdf:RDF>
  </metadata>
  <g
     inkscape:label="Massa Carrara"
     inkscape:groupmode="layer"
     id="layer1">
    <path
       style="fill:none;fill-rule:evenodd;stroke:#000000;stroke-width:0.66411924px;stroke-linecap:butt;stroke-linejoin:miter;stroke-opacity:1"
       d="M 53.449368,26.131405 L 58.648547,22.609375 L 59.822554,23.783385 L 62.338286,23.783385 L 62.841432,21.603085 L 64.518586,21.603085 L 64.35087,18.248775 L 69.046902,13.217315 L 71.730349,8.6889952 L 74.246081,7.6827052 L 74.246081,4.1606852 L 79.445259,4.1606852 L 87.495598,3.6575352 L 88.669607,4.3283952 L 91.017622,2.8189552 L 93.197923,4.4961052 L 96.887662,4.4961052 L 98.06167,5.6701252 L 98.229385,7.8504252 L 100.24197,9.6952852 L 102.7577,9.5275752 L 103.93171,12.714165 L 101.58369,16.236185 L 101.41598,19.255065 L 104.43486,21.603085 L 109.2986,25.292825 L 111.64662,25.292825 L 115.00093,28.814845 L 116.67808,28.814845 L 118.18752,30.995145 L 121.03868,29.653425 L 125.73471,29.653425 L 128.75359,32.001445 L 128.75359,34.014015 L 130.76617,35.858895 L 132.77876,35.858895 L 132.77876,38.206915 L 134.79135,38.206915 L 136.30078,40.722645 L 138.14565,40.554925 L 139.82281,43.406095 L 140.49367,45.418675 L 143.17712,47.934405 L 143.34482,50.450135 L 141.49996,52.965865 L 140.32595,55.817025 L 137.13936,59.506765 L 135.46221,59.506765 L 133.61733,60.680785 L 132.61104,62.525645 L 133.44962,66.886245 L 134.95906,69.066545 L 133.44962,69.905125 L 134.62363,72.253145 L 132.44333,74.265725 L 131.94018,77.284605 L 132.94648,80.806629 L 137.13936,80.974349 L 139.82281,83.154649 L 140.66138,86.173519 L 141.49996,90.534129 L 138.48109,93.217579 L 138.48109,95.733309 L 135.29449,98.416749 L 134.95906,100.09391 L 136.30078,100.09391 L 136.13306,102.27421 L 132.61104,103.61593 L 132.44333,105.79623 L 129.42445,107.6411 L 129.42445,108.98282 L 130.93389,109.48597 L 130.26303,110.65997 L 127.41186,111.49855 L 125.90243,112.67256 L 120.87096,107.13795 L 114.66549,101.43563 L 105.9443,97.075029 L 107.78916,92.882139 L 112.98834,89.695549 L 112.65291,88.353819 L 113.99463,87.012109 L 113.99463,85.670379 L 110.13718,81.477489 L 105.77658,80.806629 L 102.7577,83.993219 L 102.58999,85.502669 L 101.24826,86.844389 L 99.90654,85.167239 L 101.91912,83.825509 L 101.91912,80.806629 L 99.90654,79.297185 L 99.90654,78.123175 L 98.732531,76.781455 L 99.235678,71.414565 L 97.893955,69.905125 L 95.378224,70.743705 L 91.8562,70.072845 L 90.01133,69.401975 L 87.663314,71.079125 L 86.153875,69.905125 L 89.005038,67.053965 L 90.346761,64.202795 L 92.694777,63.867365 L 89.340468,62.357935 L 85.483014,62.357935 L 82.799567,63.531945 L 82.464136,66.215385 L 81.290128,67.389395 L 79.948404,65.544525 L 80.451551,63.699655 L 82.296421,61.519355 L 82.128705,59.171335 L 83.134998,58.668195 L 83.134998,57.494185 L 82.296421,56.823325 L 80.786982,56.823325 L 80.283835,55.817025 L 80.786982,51.288705 L 79.780689,50.617855 L 79.948404,47.766695 L 77.264958,47.431265 L 76.258665,45.754105 L 74.749227,45.754105 L 73.575219,44.076945 L 72.904357,44.076945 L 72.06578,45.083245 L 68.208325,41.225785 L 66.028025,40.387205 L 63.344578,36.026605 L 61.499708,35.020315 L 59.654839,35.020315 L 58.816262,30.492005 L 57.306823,27.473125 L 56.635961,26.131405 L 53.449368,26.131405 z "
       id="MASSACARRARA"
       inkscape:label="PROVINCIA" />
  </g>
  <g
     inkscape:groupmode="layer"
     id="layer2"
     inkscape:label="Lucca"
     style="display:inline">
    <path
       id="LUCCA"
       d="M 143.17712,47.934405 L 143.34482,50.450135 L 141.49996,52.965865 L 140.32595,55.817025 L 137.13936,59.506765 L 135.46221,59.506765 L 133.61733,60.680785 L 132.61104,62.525645 L 133.44962,66.886245 L 134.95906,69.066545 L 133.44962,69.905125 L 134.62363,72.253145 L 132.44333,74.265725 L 131.94018,77.284605 L 132.94648,80.806629 L 137.13936,80.974349 L 139.82281,83.154649 L 140.66138,86.173519 L 141.49996,90.534129 L 138.48109,93.217579 L 138.48109,95.733309 L 135.29449,98.416749 L 134.95906,100.09391 L 136.30078,100.09391 L 136.13306,102.27421 L 132.61104,103.61593 L 132.44333,105.79623 L 129.42445,107.6411 L 129.42445,108.98282 L 130.93389,109.48597 L 130.26303,110.65997 L 127.41186,111.49855 L 125.90243,112.67256 L 125.91156,112.90758 L 129.58793,116.58396 L 134.9246,124.0553 L 142.04017,136.86331 L 140.97283,137.81205 L 144.17484,147.41806 L 152.47633,144.45324 L 155.32255,146.70651 L 156.74566,145.75777 L 158.16877,147.06228 L 160.30344,147.65524 L 163.62404,147.89243 L 165.16575,146.46932 L 166.94463,146.46932 L 168.96071,144.80902 L 170.97679,143.14873 L 171.68835,146.35073 L 172.75568,149.07836 L 175.00894,149.07836 L 175.00894,151.80599 L 172.87427,153.3477 L 172.87427,155.008 L 174.77175,156.90548 L 175.4833,158.68437 L 177.14361,157.85422 L 178.9225,159.7517 L 181.65013,160.22607 L 183.6662,160.70045 L 185.91947,159.04015 L 188.05413,159.63311 L 190.42599,162.12356 L 195.1697,160.70045 L 196.94859,158.68437 L 198.3717,160.46326 L 201.81089,160.70045 L 203.70837,157.49844 L 205.25008,151.80599 L 208.33349,148.95977 L 212.12845,150.85725 L 213.0772,149.19695 L 216.2792,153.70347 L 216.63498,151.21303 L 219.00684,148.36681 L 219.00684,147.18088 L 218.17669,146.35073 L 217.8209,143.86029 L 213.78875,138.6422 L 212.36565,138.28642 L 211.89127,134.84724 L 210.58675,133.89849 L 209.75661,135.79598 L 206.5546,136.03316 L 206.19882,131.88242 L 207.38475,130.93368 L 205.13148,126.18996 L 207.74053,125.24123 L 207.38475,123.22515 L 208.33349,122.63219 L 209.28223,118.24426 L 210.46816,116.93974 L 209.638,115.75381 L 209.638,111.12869 L 213.55157,106.74076 L 213.78875,104.60609 L 215.68624,102.59002 L 218.0581,102.59002 L 219.83698,101.87846 L 219.83698,97.846309 L 218.41387,97.846309 L 216.87217,97.016159 L 216.75358,94.881499 L 217.70231,92.984009 L 217.46513,88.358899 L 215.09328,86.224219 L 212.72142,85.987039 L 210.70535,82.785039 L 207.26616,82.310659 L 205.48726,83.140809 L 202.04808,79.938809 L 200.50637,79.938809 L 199.20185,81.361919 L 196.47422,81.361919 L 194.93252,79.938809 L 195.05111,78.397105 L 190.1888,74.127765 L 189.12147,74.483535 L 184.97073,70.569975 L 185.80088,69.502645 L 185.80088,67.723755 L 179.98984,62.742865 L 179.75264,61.912715 L 181.05717,59.540855 L 180.58279,58.117745 L 178.21095,57.880555 L 176.78783,55.864485 L 175.7205,56.813225 L 173.46723,56.694635 L 172.3999,57.643375 L 171.56975,57.761965 L 167.89338,54.322785 L 167.65619,52.662485 L 161.96374,47.800185 L 159.4733,46.732845 L 158.05018,48.037365 L 153.18788,46.021295 L 150.46025,43.886615 L 143.17712,47.934405 z "
       style="fill:none;fill-rule:evenodd;stroke:#000000;stroke-width:0.66411924px;stroke-linecap:butt;stroke-linejoin:miter;stroke-opacity:1"
       sodipodi:nodetypes="ccccccccccccccccccccccccccccccccc"
       inkscape:label="PROVINCIA" />
  </g>
  <g
     inkscape:groupmode="layer"
     id="layer4"
     inkscape:label="Pistoia"
     style="display:inline">
    <path
       sodipodi:nodetypes="cccccccccccccccccccccccccccccccccccc"
       style="fill:none;fill-rule:evenodd;stroke:#000000;stroke-width:0.66411924px;stroke-linecap:butt;stroke-linejoin:miter;stroke-opacity:1"
       d="M 219.00684,147.18088 L 218.17669,146.35073 L 217.8209,143.86029 L 213.78875,138.6422 L 212.36565,138.28642 L 211.89127,134.84724 L 210.58675,133.89849 L 209.75661,135.79598 L 206.5546,136.03316 L 206.19882,131.88242 L 207.38475,130.93368 L 205.13148,126.18996 L 207.74053,125.24123 L 207.38475,123.22515 L 208.33349,122.63219 L 209.28223,118.24426 L 210.46816,116.93974 L 209.638,115.75381 L 209.638,111.12869 L 213.55157,106.74076 L 213.78875,104.60609 L 215.68624,102.59002 L 218.0581,102.59002 L 219.83698,101.87846 L 219.83698,97.846309 L 218.41387,97.846309 L 216.87217,97.016159 L 216.75358,94.881499 L 217.70231,92.984009 L 217.46513,88.358899 L 215.09328,86.224219 L 212.72142,85.987039 L 210.70535,82.785039 L 207.26616,82.310659 L 205.48726,83.140809 L 202.04808,79.938809 L 201.6923,75.669465 L 203.47119,74.246355 L 203.58978,72.348875 L 204.8943,71.637315 L 207.14756,72.230275 L 208.33349,73.653395 L 210.46816,71.874505 L 214.14453,71.874505 L 215.56765,72.704645 L 216.63498,72.111685 L 218.0581,72.823235 L 219.71839,71.993095 L 223.03899,72.823235 L 224.3435,75.432275 L 226.59677,78.041315 L 228.61284,77.804135 L 230.62892,80.413179 L 232.88218,81.599109 L 234.30529,80.531769 L 236.79574,82.547849 L 236.79574,84.445329 L 241.89522,84.208149 L 246.04597,87.528739 L 246.16456,88.951849 L 245.21582,89.663409 L 245.69019,91.679489 L 247.58767,92.272449 L 249.36657,91.442299 L 250.19671,89.663409 L 255.88917,84.563929 L 256.71932,82.547849 L 256.9565,80.413179 L 260.2771,77.566955 L 260.63288,75.906655 L 262.64895,75.195095 L 263.83488,76.855395 L 263.4791,78.515695 L 261.9374,79.464435 L 261.9374,81.954889 L 263.95347,83.377999 L 265.61377,84.801109 L 268.69718,84.801109 L 269.17155,85.512659 L 268.81577,88.121699 L 270.35748,90.256369 L 267.51125,96.304599 L 267.62984,100.81113 L 265.49518,102.70861 L 264.19066,104.72468 L 263.36051,106.50358 L 265.0208,107.57091 L 266.20673,106.74076 L 269.52733,106.97794 L 271.54341,109.46839 L 272.37356,112.55181 L 270.47607,114.3307 L 268.10422,116.34677 L 265.85096,120.8533 L 265.0208,125.24123 L 266.08814,127.49449 L 264.66503,131.17086 L 263.83488,132.35679 L 264.30925,135.3216 L 266.08814,137.33768 L 266.08814,140.18391 L 266.56251,141.13264 L 264.90221,141.13264 L 263.36051,143.38591 L 260.51428,143.38591 L 259.32836,144.92761 L 256.71932,147.65524 L 254.82184,145.75777 L 253.39872,144.45324 L 251.14546,147.53665 L 248.8922,150.38288 L 244.97864,151.21303 L 241.18367,151.21303 L 238.21886,149.43414 L 232.88218,152.75473 L 232.88218,148.24821 L 229.44299,150.73866 L 224.81788,150.73866 L 223.39477,149.07836 L 220.07417,147.77384 L 219.00684,147.18088 z "
       id="PISTOIA"
       inkscape:label="PROVINCIA" />
  </g>
  <g
     inkscape:groupmode="layer"
     id="layer5"
     inkscape:label="Prato"
     style="display:inline">
    <path
       id="PRATO"
       d="M 269.17155,85.512659 L 268.81577,88.121699 L 270.35748,90.256369 L 267.51125,96.304599 L 267.62984,100.81113 L 265.49518,102.70861 L 264.19066,104.72468 L 263.36051,106.50358 L 265.0208,107.57091 L 266.20673,106.74076 L 269.52733,106.97794 L 271.54341,109.46839 L 272.37356,112.55181 L 270.47607,114.3307 L 268.10422,116.34677 L 265.85096,120.8533 L 265.0208,125.24123 L 266.08814,127.49449 L 264.66503,131.17086 L 263.83488,132.35679 L 264.30925,135.3216 L 266.08814,137.33768 L 266.08814,140.18391 L 266.56251,141.13264 L 264.90221,141.13264 L 263.36051,143.38591 L 260.51428,143.38591 L 259.32836,144.92761 L 256.71932,147.65524 L 256.72046,147.8928 L 258.90076,150.40853 L 258.90076,152.08569 L 263.59679,155.60771 L 267.45424,155.27228 L 271.31169,159.96831 L 273.32428,158.96202 L 273.99514,154.76913 L 271.98256,153.2597 L 272.15027,151.75026 L 275.00143,152.2534 L 275.84001,151.24711 L 273.32428,148.73138 L 273.32428,145.04164 L 273.82743,143.69992 L 275.00143,144.03534 L 277.8526,145.88021 L 280.20061,142.86134 L 282.38092,138.16531 L 284.05806,138.16531 L 285.90294,134.811 L 285.90294,133.13384 L 283.89035,131.79212 L 283.38721,129.27639 L 285.39979,127.59924 L 285.73522,124.91579 L 289.42496,121.89691 L 287.41238,119.88432 L 287.58009,116.53002 L 289.76039,114.51743 L 290.26354,112.33713 L 289.08954,110.15683 L 286.40609,110.32455 L 284.05806,109.15054 L 284.05806,106.46709 L 285.23208,104.11908 L 284.56122,100.09391 L 286.74151,97.913599 L 288.58638,97.913599 L 289.42496,97.410459 L 289.42496,94.391579 L 290.59897,93.552999 L 291.10211,89.024679 L 289.76039,87.347529 L 289.92811,85.670379 L 292.94698,83.532009 L 286.11258,80.932419 L 281.66812,81.267849 L 280.20061,82.567639 L 278.39767,82.735359 L 274.41443,86.425099 L 272.905,85.460729 L 269.17155,85.512659 z "
       style="fill:none;fill-rule:evenodd;stroke:#000000;stroke-width:0.66411924px;stroke-linecap:butt;stroke-linejoin:miter;stroke-opacity:1"
       sodipodi:nodetypes="ccccccccccccccccccccccccccccc"
       inkscape:label="PROVINCIA" />
  </g>
  <g
     inkscape:groupmode="layer"
     id="layer6"
     inkscape:label="Firenze">
    <path
       style="fill:none;fill-rule:evenodd;stroke:#000000;stroke-width:0.66411924px;stroke-linecap:butt;stroke-linejoin:miter;stroke-opacity:1"
       d="M 216.27623,153.70309 L 216.62905,151.21265 L 219.01573,148.36939 L 219.01573,147.18642 L 220.07417,147.76753 L 223.39477,149.07501 L 224.82677,150.73531 L 229.4341,150.73531 L 232.87922,148.24487 L 232.87922,152.74842 L 238.21292,149.42783 L 241.18071,151.21265 L 244.97864,151.21265 L 248.90109,150.3825 L 251.1425,147.53924 L 253.40465,144.44693 L 254.8159,145.75442 L 256.72524,147.66376 L 256.72524,147.89205 L 258.90439,150.40325 L 258.90439,152.0843 L 263.59473,155.61244 L 267.45492,155.28038 L 271.31511,159.97072 L 273.32823,158.95378 L 273.99234,154.76153 L 271.97924,153.26726 L 272.14526,151.75224 L 275.00928,152.25034 L 275.83942,151.25416 L 273.32823,148.7222 L 273.32823,145.04879 L 273.82632,143.6998 L 275.00928,144.03186 L 277.85254,145.87894 L 280.19771,142.86965 L 282.37685,138.15855 L 284.0579,138.15855 L 285.90498,134.81721 L 285.90498,133.13616 L 283.89187,131.78716 L 283.39378,129.27596 L 285.4069,127.59491 L 285.73895,124.91768 L 289.43312,121.88763 L 287.42,119.87452 L 287.58603,116.53317 L 289.76518,114.52006 L 290.26326,112.34092 L 289.0803,110.16178 L 286.40307,110.32781 L 284.0579,109.14485 L 284.0579,106.46762 L 285.24087,104.12245 L 284.55599,100.09622 L 286.73513,97.917079 L 288.58221,97.917079 L 289.43312,97.418989 L 289.43312,94.388949 L 290.59532,93.558799 L 291.09342,89.034489 L 289.76518,87.353439 L 289.93121,85.672389 L 292.9405,83.534749 L 295.08406,84.208149 L 297.6931,82.547849 L 300.24284,84.089559 L 301.36947,82.488559 L 303.38555,82.666439 L 303.38555,80.887549 L 296.98154,76.677505 L 295.20265,76.736795 L 292.53431,74.127765 L 292.53431,71.993095 L 296.0328,72.111685 L 298.64184,70.451395 L 304.39358,70.510685 L 305.6388,71.400135 L 308.24785,67.486575 L 309.96744,67.308685 L 312.40197,64.286665 L 312.7374,62.022505 L 315.33699,59.842205 L 320.78775,61.100075 L 321.96175,60.345355 L 322.29718,57.997335 L 327.49636,52.798155 L 332.36011,56.571755 L 332.69554,59.171335 L 331.43767,60.261495 L 333.53412,62.944945 L 335.12741,62.525645 L 335.29513,64.202795 L 337.97857,64.202795 L 338.06244,66.215385 L 340.66202,68.563415 L 342.33917,68.731115 L 343.42932,70.072845 L 345.10648,69.569695 L 346.95135,70.995275 L 348.71236,69.485845 L 348.54465,67.976405 L 350.64109,67.221685 L 352.48596,69.401985 L 355.08555,68.647265 L 356.09184,69.653555 L 357.76899,68.563415 L 358.69143,70.408275 L 358.52371,72.504715 L 356.42727,74.098015 L 356.42727,76.446035 L 353.57611,77.703895 L 353.9954,79.213335 L 356.42727,78.207045 L 359.53,78.207045 L 362.46503,79.716485 L 364.47761,82.316069 L 369.08978,77.033035 L 373.19881,77.368465 L 374.70825,76.529895 L 375.7984,77.368465 L 378.73343,75.775175 L 380.32672,77.033035 L 379.572,81.309779 L 378.14642,82.148359 L 378.14642,84.747949 L 373.86967,88.605399 L 371.68937,92.043569 L 371.60552,96.320319 L 369.59293,99.339189 L 366.40633,99.423039 L 365.56776,100.26162 L 366.4902,102.35806 L 365.14848,102.77736 L 364.81304,104.78994 L 363.47132,106.04781 L 365.73547,109.56983 L 367.49649,109.48597 L 368.92207,111.49856 L 371.77323,113.09185 L 370.17994,116.53002 L 370.59923,117.9556 L 373.36653,119.71662 L 376.21769,120.63905 L 375.29525,125.58665 L 374.20511,128.77325 L 375.29525,130.61812 L 373.28267,130.78583 L 370.26379,131.12126 L 367.16105,131.79212 L 365.14848,134.72714 L 366.07091,137.66217 L 362.21345,137.91373 L 360.95558,140.7649 L 362.21345,143.36448 L 358.18828,146.21565 L 357.76899,151.75026 L 357.18199,154.51756 L 355.33713,154.60142 L 354.91783,157.45259 L 356.1757,159.46517 L 353.57611,161.9809 L 353.32454,163.65806 L 355.08555,166.17379 L 357.01427,166.42536 L 359.86544,171.1214 L 359.36229,173.21783 L 357.26585,173.21783 L 348.79622,178.92016 L 348.79622,180.68117 L 350.47337,181.93904 L 348.54465,183.02919 L 344.43562,182.94532 L 340.07502,186.5512 L 343.09389,189.90552 L 343.09389,190.99567 L 345.19034,192.84054 L 345.10648,195.18855 L 346.11277,196.94956 L 341.24902,196.94956 L 337.30771,194.85312 L 337.05614,196.78185 L 335.12741,197.28499 L 333.11483,201.05859 L 328.83808,200.89087 L 326.40621,203.99361 L 324.81292,204.16133 L 323.72277,205.50305 L 323.80662,207.51564 L 321.37474,209.36051 L 320.03302,208.27036 L 318.85901,209.19279 L 316.67872,208.85736 L 314.58227,210.19908 L 309.88624,210.9538 L 309.9701,208.27036 L 306.61579,204.74833 L 305.69336,205.16762 L 306.02878,206.84478 L 306.69965,207.34792 L 306.69965,209.61208 L 303.26149,213.80496 L 302.50676,213.80496 L 302.50676,215.73369 L 299.90717,217.41084 L 298.81702,217.4947 L 296.55286,219.50729 L 294.12099,217.57856 L 291.10211,217.57856 L 293.19856,214.81126 L 294.03713,211.79238 L 292.44384,210.78609 L 289.67653,213.30182 L 287.49623,215.64983 L 287.24466,218.41714 L 285.23208,220.59744 L 282.71634,220.42973 L 281.79391,217.32699 L 278.4396,214.22425 L 275.16915,211.62467 L 275.0853,209.69594 L 272.06641,209.52822 L 271.06012,207.93493 L 268.71211,207.43177 L 268.1251,205.58691 L 264.68694,207.76721 L 262.84206,210.19908 L 261.24877,210.3668 L 259.15233,212.96639 L 257.64289,212.88253 L 256.21731,215.81755 L 256.80431,219.00414 L 256.13345,220.42973 L 256.80431,223.36474 L 255.0433,226.29976 L 250.59884,225.54504 L 248.58625,223.19703 L 246.48981,223.4486 L 245.48352,225.12575 L 243.38707,224.70646 L 241.87764,223.61631 L 241.79378,221.60373 L 239.27805,220.34586 L 241.12292,218.501 L 239.11034,216.48841 L 237.85247,216.15298 L 238.1879,212.21167 L 236.17531,210.86994 L 235.33674,207.26406 L 236.51074,203.74204 L 238.85876,202.56803 L 238.94262,201.72946 L 236.42689,200.97473 L 236.93003,199.63301 L 237.51704,195.60784 L 236.34303,192.67283 L 234.58202,190.66024 L 235.58831,188.98308 L 237.68475,189.31851 L 239.94891,187.47364 L 242.88393,190.3248 L 243.1355,188.39608 L 244.81266,188.31222 L 244.98037,184.87405 L 246.82524,186.29964 L 249.50869,183.11304 L 252.02443,180.93275 L 249.34097,179.92645 L 247.99925,175.98514 L 246.3221,175.0627 L 244.64494,172.96626 L 245.65124,171.1214 L 242.96779,169.27652 L 242.96779,167.26394 L 237.01389,167.59936 L 234.58202,169.36038 L 234.16273,171.2891 L 232.82101,170.78596 L 231.05999,171.54068 L 230.13756,170.61824 L 230.0537,168.01866 L 226.78325,163.65806 L 224.77067,163.49034 L 221.41636,160.97461 L 216.9719,156.11086 L 216.27623,153.70309 z "
       id="FIRENZE"
       sodipodi:nodetypes="cccccccccccccccccccccccccccccccccccccccccccccccccccccccccccccccc"
       inkscape:label="PROVINCIA" />
  </g>
  <g
     inkscape:groupmode="layer"
     id="layer7"
     inkscape:label="Arezzo">
    <path
       sodipodi:nodetypes="cccccccccccccccccccccccccccccccccccccccc"
       id="AREZZO"
       d="M 375.29525,130.61812 L 373.28267,130.78583 L 370.26379,131.12126 L 367.16105,131.79212 L 365.14848,134.72714 L 366.07091,137.66217 L 362.21345,137.91373 L 360.95558,140.7649 L 362.21345,143.36448 L 358.18828,146.21565 L 357.76899,151.75026 L 357.18199,154.51756 L 355.33713,154.60142 L 354.91783,157.45259 L 356.1757,159.46517 L 353.57611,161.9809 L 353.32454,163.65806 L 355.08555,166.17379 L 357.01427,166.42536 L 359.86544,171.1214 L 359.36229,173.21783 L 357.26585,173.21783 L 348.79622,178.92016 L 348.79622,180.68117 L 350.47337,181.93904 L 348.54465,183.02919 L 344.43562,182.94532 L 340.07502,186.5512 L 343.09389,189.90552 L 343.09389,190.99567 L 345.19034,192.84054 L 345.10648,195.18855 L 346.11277,196.94956 L 341.24902,196.94956 L 337.30771,194.85312 L 337.05614,196.78185 L 335.12741,197.28499 L 333.11483,201.05859 L 328.83808,200.89087 L 326.40621,203.99361 L 326.68901,204.10538 L 328.4679,205.52849 L 331.31413,208.25613 L 331.66991,209.56065 L 333.56739,212.40687 L 336.17644,211.57673 L 336.88799,215.37169 L 339.14125,217.98073 L 342.10607,220.47117 L 342.34325,222.25006 L 343.52918,223.08021 L 346.25681,221.41991 L 347.79852,223.67317 L 352.18645,223.43599 L 349.81459,226.28221 L 350.17037,229.60281 L 351.11912,230.90734 L 350.05178,232.21185 L 348.51007,236.83697 L 351.3563,241.1063 L 353.72815,241.81787 L 354.43971,244.18972 L 356.45578,244.30831 L 358.70905,246.68016 L 364.16431,248.81483 L 366.41757,251.18668 L 369.2638,252.49121 L 369.97535,256.64196 L 372.11002,258.77662 L 373.41454,261.50425 L 376.37936,260.91129 L 379.10699,264.58766 L 379.81855,267.43389 L 384.91803,272.29619 L 386.22255,271.22885 L 387.40848,272.1776 L 388.23863,271.11026 L 390.96627,273.95649 L 394.87982,274.90523 L 398.20042,274.19367 L 399.50494,279.17457 L 403.89287,285.45998 L 407.80643,288.89917 L 409.94109,284.62983 L 412.78733,285.45998 L 414.32903,283.91828 L 418.12399,286.05294 L 420.02148,285.34139 L 423.34208,282.02079 L 426.1883,282.85094 L 429.62749,280.47909 L 429.62749,277.39568 L 430.69482,272.53337 L 431.76216,271.22885 L 430.22045,268.14544 L 432.47371,266.36656 L 434.25261,267.90826 L 436.98024,268.02685 L 439.11491,270.28011 L 442.07972,268.61981 L 443.74002,266.01077 L 448.12795,266.24796 L 452.75307,261.50425 L 454.76914,261.50425 L 458.6827,258.89522 L 460.58018,256.40477 L 457.97115,254.62587 L 455.71789,252.6098 L 454.41336,254.38869 L 451.32995,255.57462 L 452.63447,257.11632 L 452.51588,259.36958 L 447.65358,258.53943 L 444.68876,255.69321 L 445.28173,253.91432 L 446.34906,249.2892 L 445.6375,245.37564 L 442.67269,241.58068 L 440.53802,240.03897 L 439.2335,241.34349 L 436.26868,241.58068 L 435.67571,232.92341 L 432.7109,234.5837 L 428.79734,233.99074 L 428.20437,230.19578 L 431.40637,228.2983 L 432.94808,225.45207 L 436.15009,226.99378 L 439.2335,224.14755 L 439.11491,221.7757 L 443.85861,218.21792 L 445.6375,218.81088 L 446.82343,216.20184 L 443.74002,214.30436 L 438.52195,212.16969 L 437.33601,209.20487 L 440.06365,205.05413 L 443.38424,205.52849 L 445.7561,204.22397 L 447.53499,205.88427 L 448.48373,202.68227 L 448.60232,198.8873 L 451.80433,194.1436 L 454.17618,192.00892 L 453.8204,190.11144 L 456.54804,187.73959 L 456.54804,185.72351 L 454.76914,184.06321 L 452.27869,181.21699 L 453.93899,178.37076 L 458.08974,178.25217 L 461.41033,175.05017 L 462.12189,172.32253 L 463.30782,171.13661 L 466.62842,171.96676 L 469.00027,170.06927 L 470.66056,166.51149 L 469.83041,161.64919 L 470.54197,160.22608 L 471.7279,161.76778 L 471.84649,166.15571 L 473.26961,167.69742 L 472.43946,169.7135 L 472.43946,171.37379 L 474.57412,172.44112 L 477.65754,170.30646 L 475.64146,167.46023 L 474.92991,164.96978 L 476.82739,164.85119 L 479.55502,165.79993 L 481.09673,164.13963 L 475.87864,159.27734 L 475.28568,157.73563 L 472.55805,154.77081 L 469.47464,154.29645 L 466.62842,152.99192 L 462.24048,153.94066 L 462.24048,155.83814 L 461.05455,156.19393 L 459.51285,155.008 L 455.95507,154.53363 L 453.10884,157.02407 L 452.75307,160.46326 L 448.8395,156.5497 L 447.2978,154.05925 L 441.48676,157.26126 L 436.98024,157.02407 L 434.84557,159.04015 L 432.59231,159.04015 L 431.76216,156.66829 L 429.62749,155.36377 L 426.1883,156.07534 L 422.51193,153.82207 L 418.12399,154.53363 L 414.09184,151.6874 L 413.73606,149.90851 L 411.83858,148.12962 L 408.3994,147.53665 L 408.2808,143.74169 L 406.02754,145.2834 L 402.58835,144.69043 L 401.04664,143.03013 L 396.8959,145.16481 L 393.10093,143.86029 L 389.18737,140.06532 L 388.59441,138.04924 L 386.34115,136.50753 L 378.39543,133.7799 L 377.44669,131.76383 L 375.29525,130.61812 z "
       style="fill:none;fill-rule:evenodd;stroke:#000000;stroke-width:0.66411924px;stroke-linecap:butt;stroke-linejoin:miter;stroke-opacity:1"
       inkscape:label="PROVINCIA" />
  </g>
  <g
     inkscape:groupmode="layer"
     id="layer8"
     inkscape:label="Siena">
    <path
       style="fill:none;fill-rule:evenodd;stroke:#000000;stroke-width:0.66411924px;stroke-linecap:butt;stroke-linejoin:miter;stroke-opacity:1"
       d="M 255.04419,226.29962 L 256.80826,223.37335 L 256.12339,220.42632 L 256.80826,218.99431 L 256.22716,215.81899 L 257.63841,212.89272 L 259.15343,212.97573 L 261.24956,210.36076 L 262.84759,210.19473 L 264.69467,207.76655 L 268.11904,205.58741 L 268.7209,207.43449 L 271.06607,207.93257 L 272.06225,209.53062 L 275.09229,209.69664 L 275.17531,211.62674 L 278.43364,214.22096 L 281.79575,217.33401 L 282.70891,220.42632 L 285.24087,220.59235 L 287.25398,218.41321 L 287.50302,215.65296 L 289.68216,213.30779 L 292.44241,210.77583 L 294.04044,211.79277 L 293.18954,214.80206 L 291.09342,217.58306 L 294.12346,217.58306 L 296.55165,219.51315 L 298.8138,217.50004 L 299.91375,217.41703 L 302.50796,215.73598 L 302.50796,213.80588 L 303.25509,213.80588 L 306.70021,209.61363 L 306.70021,207.35147 L 306.0361,206.85338 L 305.68328,205.17233 L 306.6172,204.75726 L 309.97931,208.26464 L 309.89629,210.96262 L 314.58663,210.19473 L 316.68275,208.86649 L 318.8619,209.19855 L 320.02411,208.26464 L 321.3731,209.36459 L 323.80129,207.5175 L 323.71827,205.50439 L 324.81821,204.1554 L 326.41625,203.98937 L 326.68605,204.11389 L 328.47087,205.52514 L 331.31413,208.26464 L 331.66694,209.55137 L 333.57629,212.41538 L 336.1705,211.58523 L 336.89688,215.36241 L 339.13829,217.97738 L 342.10607,220.46783 L 342.33436,222.25265 L 343.53807,223.08279 L 346.25681,221.4225 L 347.79259,223.6639 L 352.19238,223.43561 L 349.8057,226.27887 L 350.17927,229.59947 L 351.11318,230.90695 L 350.05475,232.21444 L 348.51897,236.84251 L 351.36223,241.09703 L 353.72815,241.82341 L 354.43378,244.18933 L 356.44689,244.31386 L 358.70905,246.67978 L 364.16728,248.81741 L 366.40868,251.18334 L 369.27269,252.49082 L 369.97832,256.64157 L 372.11595,258.7792 L 373.42344,261.49794 L 376.37047,260.91683 L 379.10996,264.59025 L 379.81559,267.43351 L 384.921,272.28988 L 386.22849,271.23144 L 387.41145,272.18611 L 388.2416,271.10691 L 390.96034,273.95017 L 394.88279,274.90484 L 398.20338,274.19922 L 399.51087,279.18011 L 403.8899,285.46849 L 407.81236,288.89285 L 409.94999,284.63834 L 412.79325,285.46849 L 414.32903,283.91196 L 418.12696,286.04959 L 413.03122,290.45091 L 412.86351,293.80522 L 411.18635,294.81151 L 413.19894,296.99181 L 413.19894,299.67526 L 414.70838,302.86185 L 413.03122,305.20986 L 415.37924,308.7319 L 415.37924,310.40905 L 418.39812,310.07362 L 418.39812,307.89331 L 420.74613,307.55789 L 423.26186,310.91219 L 421.24928,314.2665 L 419.40441,327.01287 L 418.06269,327.85145 L 418.39812,330.70261 L 419.2367,333.05062 L 416.88868,336.74037 L 416.38553,339.2561 L 416.0501,343.6167 L 418.39812,343.78442 L 420.4107,345.797 L 420.4107,351.33161 L 416.72096,350.99618 L 414.87609,352.17019 L 412.86351,356.19536 L 410.51549,357.36936 L 409.84463,359.04652 L 402.63287,358.71109 L 400.62028,361.72997 L 397.43369,361.89768 L 396.76283,368.43858 L 394.41481,365.08428 L 391.06051,362.73625 L 387.53848,365.92285 L 386.86762,370.95431 L 384.01646,368.94173 L 381.50072,368.77402 L 378.81728,367.43229 L 375.63069,370.45116 L 372.27638,370.45116 L 368.92206,367.26457 L 367.0772,368.6063 L 366.40633,366.92915 L 368.41892,365.25199 L 368.41892,362.90397 L 367.58035,358.71109 L 368.75436,356.02764 L 365.90319,352.00247 L 365.56776,348.64816 L 366.57405,342.10726 L 364.05832,334.39235 L 361.03944,334.39235 L 359.36229,331.03805 L 356.34341,330.36718 L 354.16311,332.21205 L 350.13794,331.70891 L 350.30566,329.5286 L 348.29307,328.52231 L 344.60334,329.86404 L 343.59704,332.7152 L 341.24902,332.37977 L 339.73959,333.88921 L 329.50894,332.54748 L 324.81292,331.37347 L 321.79403,331.37347 L 321.79403,330.03175 L 323.47119,328.85774 L 324.6452,330.03175 L 326.15463,328.18688 L 323.97433,325.83887 L 326.49007,324.83258 L 324.81292,322.31684 L 323.30347,322.98771 L 323.13576,319.46568 L 321.62632,318.29167 L 323.13576,317.28538 L 321.96175,315.44051 L 323.47119,314.60193 L 322.12947,312.25392 L 323.80662,311.41534 L 322.96805,306.55159 L 321.12318,307.22245 L 317.76886,304.87444 L 316.25943,306.21616 L 314.07912,305.5453 L 312.7374,307.7256 L 309.71853,306.55159 L 307.03508,307.22245 L 304.18391,306.04845 L 303.34534,306.55159 L 301.66818,305.20986 L 298.64931,305.88073 L 293.28242,305.20986 L 291.77297,308.06103 L 286.74151,307.05473 L 283.72264,305.04216 L 278.02032,307.05473 L 275.67229,304.70672 L 275.67229,302.69413 L 273.82742,300.1784 L 275.50458,298.33354 L 273.492,296.8241 L 273.65971,294.30837 L 271.98256,292.79893 L 274.16286,291.45721 L 272.98885,284.9163 L 270.13769,285.75488 L 267.28653,283.91001 L 265.77709,287.09661 L 264.43536,285.75488 L 263.7645,287.09661 L 261.24877,286.59345 L 255.21101,290.45091 L 252.35985,289.78005 L 249.17326,290.2832 L 249.00554,285.75488 L 252.35985,282.56829 L 254.54015,281.72971 L 255.0433,277.70454 L 253.03071,275.35652 L 252.19214,274.51795 L 254.54015,271.66679 L 256.88817,274.18252 L 259.57161,273.84708 L 261.91963,275.02109 L 263.59679,273.67937 L 262.5905,271.33135 L 263.7645,268.81562 L 261.5842,264.11959 L 261.24877,262.27472 L 256.38503,259.42356 L 256.21731,255.90153 L 259.06847,257.57869 L 259.73933,254.05666 L 258.56532,253.55352 L 258.56532,249.69606 L 262.92592,250.0315 L 265.77709,244.6646 L 263.7645,240.47171 L 263.26136,236.78198 L 259.90705,236.27883 L 259.90705,233.09224 L 255.88187,228.56392 L 255.04419,226.29962 z "
       id="SIENA"
       sodipodi:nodetypes="ccccccccccccccccccccccccccccccccccccccccccccccccccccccccccccccccccccccccccccccccccccccccccccccccc"
       inkscape:label="PROVINCIA" />
  </g>
  <g
     inkscape:groupmode="layer"
     id="layer9"
     inkscape:label="Grosseto">
    <path
       style="fill:none;fill-rule:evenodd;stroke:#000000;stroke-width:0.66411924px;stroke-linecap:butt;stroke-linejoin:miter;stroke-opacity:1"
       d="M 267.28889,283.91196 L 265.77387,287.08728 L 264.44563,285.75905 L 263.76076,287.08728 L 261.24956,286.58919 L 255.21022,290.44939 L 252.36696,289.78526 L 249.17089,290.28336 L 246.99175,290.07582 L 242.61271,291.73612 L 238.81478,289.72301 L 237.98463,291.86064 L 234.31122,292.93983 L 233.83389,291.27953 L 232.29811,289.97205 L 228.97752,292.69079 L 226.36255,294.82842 L 225.65692,292.10968 L 224.4532,292.10968 L 223.74758,295.30575 L 224.10039,299.10369 L 221.38165,299.68479 L 220.42698,301.6979 L 218.76668,301.94695 L 220.30246,305.0185 L 219.11949,306.22222 L 220.42698,307.98628 L 217.81201,309.99939 L 219.94965,311.4314 L 222.08728,311.20311 L 224.93054,309.41829 L 227.54551,311.07859 L 229.91143,313.44451 L 227.54551,316.18401 L 228.50018,320.43851 L 230.03596,322.09882 L 231.57173,322.8252 L 228.853,325.0666 L 225.76069,323.05349 L 223.27024,322.92896 L 222.08728,325.54393 L 224.4532,327.90986 L 223.74758,329.92297 L 221.02884,333.01528 L 221.02884,336.46039 L 223.51929,338.34898 L 223.8721,342.27144 L 227.06817,344.86565 L 229.20581,348.18625 L 230.26424,351.50684 L 227.7738,353.89352 L 227.67003,356.96507 L 228.97752,358.62537 L 228.14737,365.86842 L 226.23803,368.35887 L 224.57773,369.06449 L 222.91743,368.23435 L 221.38165,370.72479 L 223.8721,370.97384 L 226.94365,373.21524 L 230.99063,376.41131 L 232.04907,375.58117 L 241.53352,377.36598 L 252.44998,381.03939 L 258.86288,383.88265 L 262.28724,387.45229 L 265.02674,392.55771 L 266.2097,397.28956 L 266.56251,401.4403 L 271.54341,403.45341 L 275.09229,404.05527 L 280.07319,407.25134 L 280.32223,409.74179 L 279.36756,410.21913 L 280.44675,412.00395 L 282.68815,412.93787 L 283.29001,417.46218 L 285.05408,421.01107 L 286.36157,423.37699 L 288.14638,423.85433 L 289.68216,421.36388 L 292.17261,421.71669 L 295.01587,426.82211 L 297.1535,431.57471 L 297.27802,440.58183 L 295.97054,444.25524 L 294.43476,447.80413 L 292.52542,449.83799 L 290.63683,449.23613 L 289.45387,450.29457 L 287.79357,448.63427 L 286.71438,450.1908 L 284.47298,447.0985 L 282.9372,447.34754 L 281.98253,451.12472 L 280.55052,451.37377 L 281.62972,455.04717 L 280.32223,456.00184 L 282.10705,458.01496 L 282.68815,459.42621 L 284.5975,459.90355 L 287.44076,460.50541 L 288.14638,462.39399 L 290.28402,462.64303 L 291.34246,466.0674 L 293.60461,465.48629 L 293.60461,464.53162 L 295.84602,464.65615 L 295.84602,465.48629 L 297.98365,465.48629 L 297.40254,461.91666 L 301.07596,460.50541 L 301.20048,459.32244 L 299.29113,458.49229 L 300.95143,457.76591 L 300.4741,455.39999 L 303.56641,454.34155 L 307.59262,453.26235 L 311.86789,453.26235 L 312.57352,455.27546 L 314.23381,456.23013 L 315.76959,455.04717 L 328.11806,457.53762 L 336.52332,460.02807 L 340.67406,461.68836 L 340.67406,458.24325 L 339.4911,457.18481 L 345.30214,452.68125 L 345.77948,448.17769 L 348.04163,447.57583 L 350.53208,448.7588 L 352.42067,448.63427 L 355.26393,446.62116 L 360.9712,447.92865 L 366.88602,447.92865 L 367.96521,447.0985 L 366.05586,444.96087 L 367.48788,443.1968 L 366.18039,441.64027 L 367.71616,439.50264 L 367.01054,436.7839 L 364.16728,434.89531 L 362.02965,434.29345 L 360.9712,432.40486 L 358.83357,431.92753 L 357.75438,430.26723 L 358.00342,428.00507 L 359.41467,425.76367 L 362.15417,425.03729 L 361.90512,422.89965 L 360.14106,419.70358 L 361.67683,418.04328 L 364.52009,418.74891 L 366.18039,421.36388 L 368.31802,418.29233 L 369.72928,419.70358 L 372.11595,418.29233 L 373.52721,416.86032 L 376.14218,416.5075 L 378.15529,414.4944 L 376.49499,412.58505 L 378.5081,411.52662 L 380.29292,411.52662 L 382.43056,409.74179 L 384.67196,410.44742 L 386.10396,409.03617 L 389.30004,405.23824 L 387.63974,402.74779 L 392.86968,403.70246 L 396.8959,401.21201 L 397.49776,397.16504 L 395.71294,395.98208 L 393.34702,394.67459 L 393.69983,391.60304 L 391.79048,387.68059 L 395.4639,388.0334 L 397.12419,384.1317 L 396.8959,380.93562 L 398.78449,379.02628 L 395.94123,377.01317 L 391.91501,376.41131 L 391.91501,374.3982 L 389.07175,371.67946 L 386.87185,370.95308 L 384.00784,368.93997 L 381.49664,368.77394 L 378.81941,367.42495 L 375.62334,370.45499 L 372.28198,370.45499 L 368.91988,367.25892 L 367.0728,368.60791 L 366.40868,366.92686 L 368.42179,365.24581 L 368.42179,362.90064 L 367.57089,358.70839 L 368.75385,356.03115 L 365.91059,352.00493 L 365.55778,348.64283 L 366.57471,342.10541 L 364.06351,334.38502 L 361.03347,334.38502 L 359.35242,331.04367 L 356.34313,330.3588 L 354.16398,332.20588 L 350.13776,331.70779 L 350.30379,329.52865 L 348.29068,328.53247 L 344.59652,329.86071 L 343.60034,332.72472 L 341.25516,332.37191 L 339.74014,333.88693 L 329.50856,332.53794 L 324.81821,331.37573 L 321.78817,331.37573 L 321.78817,330.02674 L 323.46922,328.86453 L 324.65218,330.02674 L 326.14645,328.17965 L 323.96732,325.83449 L 326.49927,324.83831 L 324.81821,322.3271 L 323.30319,322.99123 L 323.13716,319.46309 L 321.62214,318.30088 L 323.13716,317.28395 L 321.9542,315.43687 L 323.46922,314.60672 L 322.12023,312.26155 L 323.80129,311.41065 L 322.97113,306.55428 L 321.12405,307.21839 L 317.76195,304.87322 L 316.26768,306.22222 L 314.08854,305.53734 L 312.73955,307.71648 L 309.7095,306.55428 L 307.03227,307.21839 L 304.18901,306.05618 L 303.33811,306.55428 L 301.67782,305.20528 L 298.64777,305.89015 L 293.27255,305.20528 L 291.77829,308.0693 L 286.73513,307.05236 L 283.72584,305.03926 L 278.01857,307.05236 L 275.67339,304.70719 L 275.67339,302.69408 L 273.82632,300.18288 L 275.50737,298.3358 L 273.49426,296.82078 L 273.66029,294.30958 L 271.97924,292.79456 L 274.15837,291.46632 L 272.99616,284.90814 L 270.13215,285.75905 L 267.28889,283.91196 z M 246.86723,459.79978 L 246.76346,461.56384 L 247.69737,463.12037 L 246.99175,465.48629 L 245.33145,464.78067 L 244.62582,466.54474 L 244.97864,467.8522 L 247.46908,468.55783 L 247.8219,470.11441 L 250.66516,474.01606 L 252.32546,474.4934 L 253.63294,476.27824 L 255.16872,474.14059 L 255.16872,471.42185 L 253.63294,468.55783 L 254.2348,467.02205 L 252.80279,464.65615 L 251.1425,461.81289 L 249.35767,461.21103 L 246.86723,459.79978 z M 151.87743,469.5125 L 151.1718,471.87842 L 150.34166,473.31044 L 150.21713,475.67637 L 151.64914,477.33668 L 155.19802,477.68949 L 157.46018,474.4934 L 156.75456,472.35582 L 155.79988,469.86536 L 151.87743,469.5125 z M 285.1786,487.54751 L 283.76735,488.12861 L 282.21082,489.56057 L 282.10705,491.57375 L 284.12016,493.35858 L 285.42765,493.23406 L 285.65594,492.27937 L 284.34845,491.57375 L 284.5975,490.03797 L 286.25779,489.20782 L 285.1786,487.54751 z "
       id="GROSSETO"
       inkscape:label="PROVINCIA" />
  </g>
  <g
     inkscape:groupmode="layer"
     id="layer10"
     inkscape:label="Livorno">
    <path
       style="fill:none;fill-rule:evenodd;stroke:#000000;stroke-width:0.66411924px;stroke-linecap:butt;stroke-linejoin:miter;stroke-opacity:1"
       d="M 172.69342,187.05433 L 168.91624,189.9806 L 164.72399,191.66165 L 160.53173,194.25587 L 153.91129,197.03687 L 150.63221,198.46888 L 150.98502,200.21219 L 151.9812,201.47817 L 151.48311,202.91018 L 151.56612,204.67424 L 150.0511,205.83645 L 151.23406,207.26846 L 150.54919,208.67971 L 151.9812,210.0287 L 153.33019,212.45689 L 153.74527,215.65296 L 154.40938,217.50004 L 156.50551,220.17727 L 155.92441,222.02436 L 157.77149,224.12048 L 161.29962,225.6355 L 164.30891,228.39575 L 166.32202,232.0069 L 167.23519,235.43126 L 168.41815,237.8802 L 169.2483,237.27834 L 171.1784,239.29145 L 171.78025,241.82341 L 173.10849,243.31768 L 173.87638,247.59294 L 176.13853,250.45696 L 176.55361,255.06428 L 179.47989,257.74152 L 182.59294,261.35267 L 184.77208,265.04682 L 187.86439,272.08234 L 189.46242,281.40076 L 189.96051,298.66786 L 188.96434,314.68974 L 187.44932,322.57615 L 185.18716,324.42323 L 186.61916,326.41559 L 185.10414,328.94754 L 183.25706,327.59855 L 181.16094,328.61548 L 181.16094,330.52483 L 182.3439,332.12286 L 181.24395,333.80392 L 182.67596,338.24521 L 183.75515,340.83943 L 185.18716,340.9432 L 187.61535,344.0355 L 190.89443,343.86947 L 191.72458,341.85636 L 190.31333,340.83943 L 190.64539,339.76023 L 192.13966,337.66411 L 194.75462,336.91697 L 202.64104,336.14908 L 211.77268,336.83396 L 219.74211,340.17531 L 223.8721,342.27144 L 223.51929,338.34898 L 221.02884,336.46039 L 221.02884,333.01528 L 223.74758,329.92297 L 224.4532,327.90986 L 222.08728,325.54393 L 223.27024,322.92896 L 225.76069,323.05349 L 228.853,325.0666 L 231.57173,322.8252 L 230.03596,322.09882 L 228.50018,320.43851 L 227.54551,316.18401 L 229.91143,313.44451 L 227.54551,311.07859 L 224.93054,309.41829 L 222.08728,311.20311 L 219.94965,311.4314 L 217.81201,309.99939 L 220.42698,307.98628 L 219.11949,306.22222 L 220.30246,305.0185 L 218.76668,301.94695 L 219.32703,300.93002 L 219.24402,299.08293 L 215.38383,298.9169 L 215.13478,297.06982 L 214.36689,295.05671 L 210.34067,294.55862 L 209.26148,292.96059 L 210.42368,292.71154 L 210.00861,289.01738 L 208.07852,288.43627 L 207.9955,286.75522 L 206.48048,285.34397 L 207.33138,284.41005 L 210.94253,283.33086 L 212.4368,284.24402 L 214.28388,280.54986 L 213.8688,276.95946 L 210.5067,277.78961 L 209.59354,276.60665 L 211.3576,274.51052 L 210.00861,272.85023 L 211.19157,271.99932 L 210.42368,267.89008 L 212.68584,265.71095 L 215.2178,265.29587 L 215.30081,261.68472 L 213.03865,259.75462 L 210.17464,262.70166 L 209.01244,262.26583 L 207.9955,263.61482 L 199.611,263.69783 L 194.06975,260.93759 L 193.57166,258.84146 L 191.47554,258.75845 L 188.96434,255.64539 L 187.20027,255.39634 L 188.30021,253.88132 L 189.2964,250.87203 L 188.46624,248.44385 L 189.62845,245.74586 L 188.13419,245.33079 L 186.03806,247.01184 L 184.52304,246.18169 L 183.42309,240.55743 L 182.09485,238.29528 L 181.65902,237.0293 L 183.58912,234.60111 L 184.68907,231.23901 L 182.67596,230.15982 L 180.57983,231.07298 L 183.83817,227.73163 L 181.92882,226.21661 L 182.67596,224.95063 L 182.01184,223.02053 L 179.99873,218.41321 L 178.31768,214.55301 L 180.16475,212.97573 L 178.06863,210.77583 L 177.9026,209.28157 L 177.13471,207.18544 L 178.15165,206.0855 L 179.91571,204.07239 L 179.31386,202.05927 L 179.06481,197.70099 L 181.49299,197.45195 L 181.32696,193.50874 L 183.00801,192.07673 L 182.59294,189.9806 L 183.83817,188.23729 L 182.01184,187.13734 L 179.64591,187.05433 L 172.69342,187.05433 z M 87.333351,230.24283 L 85.486269,230.90695 L 84.469337,233.77096 L 86.316418,234.43508 L 88.661589,232.92006 L 88.827619,231.59182 L 87.333351,230.24283 z M 75.420713,310.41447 L 70.896401,314.44069 L 70.896401,319.46309 L 69.04932,321.64223 L 70.211528,324.15344 L 72.411423,326.85142 L 73.075542,323.9874 L 76.416892,321.14414 L 78.097943,318.79897 L 78.782817,316.28777 L 76.769705,315.43687 L 77.101765,312.59361 L 75.420713,310.41447 z M 169.43508,354.59915 L 168.25212,356.86131 L 166.34277,358.87441 L 165.63715,361.36486 L 163.85233,364.91375 L 162.79389,366.69857 L 161.25811,367.27967 L 161.61092,370.14369 L 159.34877,371.55494 L 155.67536,370.37198 L 154.26411,368.58716 L 157.46018,367.88153 L 156.75456,366.44952 L 153.66225,365.99294 L 150.81899,367.05138 L 149.5115,365.7439 L 147.49839,365.61937 L 146.06639,364.20812 L 145.23624,365.1628 L 147.24935,366.34576 L 145.58905,368.10982 L 147.14558,370.14369 L 143.57594,371.32665 L 142.74579,373.46428 L 139.67424,373.33976 L 137.28756,370.4965 L 136.1046,369.06449 L 132.78401,368.00606 L 130.18979,369.4173 L 125.56171,368.93997 L 123.77689,370.14369 L 119.62614,373.21524 L 119.85443,378.90176 L 121.28644,380.93562 L 122.4694,383.42607 L 125.2089,385.66747 L 127.32578,385.792 L 128.75778,387.45229 L 128.98607,385.54295 L 131.47652,384.96185 L 136.1046,384.83733 L 138.94786,386.49762 L 142.5175,386.97496 L 141.08549,384.48451 L 141.08549,382.22236 L 142.39298,381.39221 L 144.40609,383.42607 L 146.4192,383.65436 L 149.98884,384.96185 L 150.34166,381.39221 L 152.47929,379.50362 L 153.78678,381.03939 L 154.61692,384.7128 L 156.1527,383.88265 L 154.4924,379.85643 L 157.68847,379.3791 L 160.9053,379.73191 L 161.25811,382.11858 L 163.62404,384.83733 L 164.57871,388.63526 L 167.42197,389.94274 L 169.91242,389.23711 L 171.69724,391.25023 L 174.5405,388.51073 L 173.35753,384.7128 L 170.97086,382.69969 L 169.20679,382.11858 L 168.48041,380.33377 L 165.63715,379.50362 L 168.48041,378.54895 L 171.09538,376.66036 L 173.71035,375.83021 L 173.10849,371.80399 L 174.06316,371.43042 L 173.93864,370.14369 L 172.40286,368.93997 L 172.40286,366.22123 L 174.64426,361.01205 L 175.01783,359.35175 L 171.44819,357.56693 L 170.38975,355.42929 L 169.43508,354.59915 z M 116.30555,410.21913 L 115.82821,412.00395 L 116.07726,414.36988 L 114.76977,416.86032 L 111.67747,417.08861 L 110.49451,417.91876 L 110.49451,419.95263 L 112.63214,421.01107 L 114.0434,420.05639 L 114.76977,421.4884 L 117.36399,421.84121 L 120.10348,420.05639 L 118.44318,418.52062 L 119.85443,417.56595 L 117.96584,416.7358 L 117.73755,414.97173 L 116.53384,413.66424 L 117.73755,411.40209 L 116.30555,410.21913 z "
       id="LIVORNO"
       inkscape:label="PROVINCIA" />
  </g>
  <g
     inkscape:groupmode="layer"
     id="layer12"
     inkscape:label="Pisa">
    <path
       style="fill:none;fill-rule:evenodd;stroke:#000000;stroke-width:0.66411924px;stroke-linecap:butt;stroke-linejoin:miter;stroke-opacity:1;display:inline"
       d="M 144.1778,147.41471 L 152.47929,144.44693 L 155.32255,146.70909 L 156.75456,145.75442 L 158.16581,147.0619 L 160.30344,147.66376 L 163.62404,147.89205 L 165.15981,146.46004 L 166.94463,146.46004 L 168.95775,144.79975 L 170.97086,143.13945 L 171.69724,146.35628 L 172.75568,149.07501 L 175.01783,149.07501 L 175.01783,151.81451 L 172.8802,153.35028 L 172.8802,155.01058 L 174.76879,156.89917 L 175.47441,158.68399 L 177.13471,157.85384 L 178.91953,159.74243 L 181.65902,160.21976 L 183.67214,160.6971 L 185.91354,159.0368 L 188.05117,159.63866 L 190.4171,162.1291 L 195.1697,160.6971 L 196.95452,158.68399 L 198.36577,160.46881 L 201.81089,160.6971 L 203.69948,157.50103 L 205.25601,151.81451 L 208.32756,148.95049 L 212.12549,150.85983 L 213.08016,149.19954 L 216.27623,153.70309 L 216.98186,156.11052 L 221.42316,160.9669 L 224.76451,163.49885 L 226.77762,163.66488 L 230.05671,168.02316 L 230.13973,170.61738 L 231.05289,171.53055 L 232.81696,170.78341 L 234.16595,171.2815 L 234.58102,169.3514 L 237.00921,167.60809 L 242.96553,167.25527 L 242.96553,169.26839 L 245.64276,171.11547 L 244.64658,172.96255 L 246.32763,175.05868 L 248.00868,175.99259 L 249.33692,179.9358 L 252.01415,180.93198 L 249.50295,183.11112 L 246.82572,186.3072 L 244.97864,184.87519 L 244.81261,188.32031 L 243.13155,188.40332 L 242.88251,190.33342 L 239.95624,187.4694 L 237.69408,189.31649 L 235.59795,188.98442 L 234.58102,190.66548 L 236.34509,192.67859 L 237.5073,195.60486 L 236.92619,199.63109 L 236.42811,200.98008 L 238.9393,201.72721 L 238.85629,202.57812 L 236.51112,203.74032 L 235.32816,207.26846 L 236.17906,210.87961 L 238.19217,212.20784 L 237.86011,216.15105 L 239.10534,216.48311 L 241.11845,218.49622 L 239.27137,220.3433 L 241.80332,221.60928 L 241.88633,223.62239 L 243.3806,224.70159 L 245.47673,225.11666 L 246.49366,223.45636 L 248.58979,223.20732 L 250.6029,225.55249 L 255.04419,226.29962 L 255.87434,228.56178 L 259.90057,233.08609 L 259.90057,236.28216 L 263.26267,236.78026 L 263.76076,240.47442 L 265.77387,244.66667 L 262.93061,250.02113 L 258.57233,249.68907 L 258.57233,253.54926 L 259.73454,254.04735 L 259.07042,257.57549 L 256.22716,255.89443 L 256.39319,259.42257 L 261.24956,262.26583 L 261.58162,264.11291 L 263.76076,268.824 L 262.59855,271.33521 L 263.59473,273.68038 L 261.91368,275.02937 L 259.5685,273.84641 L 256.89128,274.17847 L 254.54611,271.66726 L 252.20093,274.51052 L 253.03108,275.36143 L 255.04419,277.7066 L 254.54611,281.73282 L 252.36696,282.56297 L 249.00486,285.75905 L 249.17089,290.28336 L 246.99175,290.07582 L 242.61271,291.73612 L 238.81478,289.72301 L 237.98463,291.86064 L 234.31122,292.93983 L 233.83389,291.27953 L 232.29811,289.97205 L 228.97752,292.69079 L 226.36255,294.82842 L 225.65692,292.10968 L 224.4532,292.10968 L 223.74758,295.30575 L 224.10039,299.10369 L 221.38165,299.68479 L 220.42698,301.6979 L 218.76668,301.94695 L 219.32703,300.93002 L 219.24402,299.08293 L 215.38383,298.9169 L 215.13478,297.06982 L 214.36689,295.05671 L 210.34067,294.55862 L 209.26148,292.96059 L 210.42368,292.71154 L 210.00861,289.01738 L 208.07852,288.43627 L 207.9955,286.75522 L 206.48048,285.34397 L 207.33138,284.41005 L 210.94253,283.33086 L 212.4368,284.24402 L 214.28388,280.54986 L 213.8688,276.95946 L 210.5067,277.78961 L 209.59354,276.60665 L 211.3576,274.51052 L 210.00861,272.85023 L 211.19157,271.99932 L 210.42368,267.89008 L 212.68584,265.71095 L 215.2178,265.29587 L 215.30081,261.68472 L 213.03865,259.75462 L 210.17464,262.70166 L 209.01244,262.26583 L 207.9955,263.61482 L 199.611,263.69783 L 194.06975,260.93759 L 193.57166,258.84146 L 191.47554,258.75845 L 188.96434,255.64539 L 187.20027,255.39634 L 188.30021,253.88132 L 189.2964,250.87203 L 188.46624,248.44385 L 189.62845,245.74586 L 188.13419,245.33079 L 186.03806,247.01184 L 184.52304,246.18169 L 183.42309,240.55743 L 182.09485,238.29528 L 181.65902,237.0293 L 183.58912,234.60111 L 184.68907,231.23901 L 182.67596,230.15982 L 180.57983,231.07298 L 183.83817,227.73163 L 181.92882,226.21661 L 182.67596,224.95063 L 182.01184,223.02053 L 179.99873,218.41321 L 178.31768,214.55301 L 180.16475,212.97573 L 178.06863,210.77583 L 177.9026,209.28157 L 177.13471,207.18544 L 178.15165,206.0855 L 179.91571,204.07239 L 179.31386,202.05927 L 179.06481,197.70099 L 181.49299,197.45195 L 181.32696,193.50874 L 183.00801,192.07673 L 182.59294,189.9806 L 183.83817,188.23729 L 182.01184,187.13734 L 179.64591,187.05433 L 172.69342,187.05433 L 168.91624,189.9806 L 164.72399,191.66165 L 160.53173,194.25587 L 153.91129,197.03687 L 150.63221,198.46888 L 150.22306,198.76871 L 147.85121,184.53759 L 145.95373,178.13358 L 147.85121,176.94765 L 146.66528,161.29341 L 144.1778,147.41471 z "
       id="PISA"
       sodipodi:nodetypes="ccccccccccccccccccccccccccccccccccccccccccccccccccccccccccccccccccccccccccccccccccccccccccccccccccccccccccccccccccccccccccccccccccccccccccccccccccccccccccccccccccccccccccccccccccccccccccccccccccccccccccccccccc"
       inkscape:label="PROVINCIA" />
  </g>
</svg>
