<?xml version="1.0" encoding="UTF-8" standalone="no"?>
<!-- Created with the Eggbot TSP art toolkit (http://egg-bot.com) -->

<svg xmlns="http://www.w3.org/2000/svg"
     xmlns:inkscape="http://www.inkscape.org/namespaces/inkscape"
     xmlns:sodipodi="http://sodipodi.sourceforge.net/DTD/sodipodi-0.dtd"
     xmlns:rdf="http://www.w3.org/1999/02/22-rdf-syntax-ns#"
     xmlns:dc="http://purl.org/dc/elements/1.1/"
     xmlns:cc="http://creativecommons.org/ns#"
     height="800"
     width="3200">
  <sodipodi:namedview
            showgrid="false"
            showborder="true"
            inkscape:showpageshadow="false"/>
  <metadata>
    <rdf:RDF>
      <cc:Work rdf:about="">
        <dc:format>image/svg+xml</dc:format>
        <dc:type rdf:resource="http://purl.org/dc/dcmitype/StillImage" />
        <dc:subject>
          <rdf:Bag>
            <rdf:li>Egg-Bot</rdf:li>
            <rdf:li>Eggbot</rdf:li>
            <rdf:li>TSP</rdf:li>
            <rdf:li>TSP art</rdf:li>
          </rdf:Bag>
        </dc:subject>
        <dc:description>TSP art created with the Eggbot TSP art toolkit (http://egg-bot.com)</dc:description>
      </cc:Work>
    </rdf:RDF>
  </metadata>
  <g      transform="translate(1200, 800) scale(1, -1)">
    <path style="fill:none;stroke:#000000;stroke-width:1"
          d="m 228,553 -10,0 0,10 -11,0 0,-10 -10,0 0,10 0,11 10,0 11,0 10,0 11,0 0,11 0,10 11,0 0,-10 10,0 0,10 11,0 0,-10 11,0 0,10 10,0 0,-10 0,-11 -10,0 -11,0 -11,0 -10,0 0,-11 0,-10 10,0 0,10 11,0 0,-10 11,0 0,10 10,0 0,-10 11,0 10,0 0,10 -10,0 0,11 10,0 11,0 0,-11 0,-10 11,0 10,0 0,10 -10,0 0,11 10,0 0,11 0,10 -10,0 0,-10 -11,0 0,10 -11,0 0,-10 -10,0 0,10 0,11 10,0 0,11 -10,0 0,10 10,0 0,11 -10,0 0,10 10,0 0,11 -10,0 0,11 10,0 0,10 -10,0 0,11 10,0 11,0 11,0 10,0 11,0 11,0 10,0 0,-11 0,-10 -10,0 0,10 -11,0 0,-10 0,-11 0,-11 0,-10 0,-11 0,-10 -11,0 -10,0 0,10 10,0 0,11 -10,0 0,10 10,0 0,11 -10,0 0,11 10,0 0,10 -10,0 -11,0 0,-10 0,-11 0,-11 0,-10 0,-11 0,-10 0,-11 11,0 10,0 11,0 0,-11 0,-10 0,-11 0,-11 0,-10 11,0 0,10 10,0 0,-10 0,-9 1,0 2,0 2,0 2,-1 2,0 2,0 0,10 0,10 10,0 0,-10 0,-11 0,-1 1,0 2,-1 2,0 2,-1 1,-2 2,-1 1,-1 0,7 11,0 10,0 0,-10 -10,0 0,-5 1,-1 1,-2 1,-2 1,-2 6,1 -5,-3 1,-2 0,-1 1,-2 1,-2 2,-1 -1,-1 1,-2 0,-2 0,-2 0,-1 11,-2 0,10 0,11 11,0 10,0 11,0 10,0 0,11 -10,0 0,10 10,0 0,11 -10,0 0,10 10,0 11,0 0,-10 0,-11 0,-10 11,0 0,10 10,0 0,-10 0,-11 -10,0 -11,0 0,-11 0,-10 0,-11 0,-11 0,-10 11,0 0,10 10,0 0,-10 11,0 0,10 0,11 -11,0 -10,0 0,11 0,10 10,0 0,-10 11,0 0,10 0,11 0,11 0,10 11,0 0,-10 10,0 0,10 0,11 -10,0 0,10 10,0 11,0 10,0 0,-10 -10,0 0,-11 10,0 0,-10 -10,0 0,-11 -11,0 -10,0 0,-11 0,-10 10,0 0,10 11,0 0,-10 10,0 0,10 0,11 11,0 0,-11 0,-10 0,-11 -11,0 -10,0 -11,0 -10,0 0,-11 0,-10 10,0 0,10 11,0 0,-10 10,0 0,10 11,0 0,-10 0,-11 0,-10 0,-11 11,0 10,0 0,11 -10,0 0,10 10,0 11,0 0,-10 0,-11 0,-11 0,-10 -11,0 0,10 -10,0 0,-10 -11,0 0,10 -11,0 0,-10 -10,0 0,10 0,11 10,0 0,11 0,10 -10,0 0,-10 -11,0 0,10 -10,0 0,-10 0,-11 10,0 0,-11 0,-10 -10,0 0,10 -11,0 0,-10 0,-11 0,-11 0,-10 -11,0 0,10 -10,0 0,-10 -11,0 0,10 0,11 11,0 10,0 0,11 0,10 -10,0 0,-10 -11,0 0,10 0,11 11,0 10,0 11,0 0,11 0,10 -11,0 0,-10 -10,0 0,10 -11,0 0,-10 -11,0 -10,0 0,10 10,0 0,11 -10,0 0,10 10,0 0,11 -10,0 0,11 10,0 0,10 -10,0 -11,0 -10,0 0,-10 10,0 0,-11 -10,0 -11,0 0,-11 0,-10 11,0 0,10 10,0 0,-10 0,-11 0,-10 -10,0 0,10 -11,0 0,-10 0,-11 0,-11 0,-10 11,0 10,0 0,10 -10,0 0,11 10,0 11,0 10,0 0,-11 -10,0 0,-10 10,0 0,-11 -10,0 0,-11 10,0 0,-10 -10,0 -11,0 -10,0 0,10 10,0 0,11 -10,0 -11,0"/>
    <path style="fill:none;stroke:#000000;stroke-width:1"
          d="m 441,404 0,-11 0,-10 0,-2 1,-1 1,-2 1,-1 1,-2 1,-2 1,-2 2,-1 2,-1 1,0 0,3 10,0 0,-10 1,0 2,-1 2,-2 2,0 2,-1 2,0 0,4 0,10 10,0 0,-10 0,-5 2,0 2,0 2,-1 3,0 2,0 0,0 0,6 0,10 11,0 0,-10 0,-6 1,0 2,0 2,0 2,0 3,0 0,0 0,6 0,10 11,0 0,-10 0,-6 1,0 2,0 2,0 2,0 2,0 2,0 0,6 0,10 10,0 0,-10 0,-6 1,0 2,0 2,0 2,0 2,0 2,0 0,6 0,10 10,0 0,-10 0,-5 1,0 2,1 2,0 2,0 2,0 2,1 0,0 0,3 0,10 11,0 0,-10 1,1 1,1 2,1 2,1 2,1 2,1 0,1 0,3 0,11 0,10 -10,0 0,-10 -11,0 0,10 -11,0 0,-10 -10,0 0,10 -11,0 0,-10 -10,0 0,10 0,11 10,0 11,0 10,0 11,0 11,0 10,0 11,0 0,-11 0,-10 0,-4 0,0 1,2 2,2 1,2 1,1 1,2 2,2 1,1 1,2 1,1 0,10 0,11 0,10 0,11 0,11 0,10 0,11 0,10 0,11 0,11 0,10 0,11 0,11 0,10 0,11 0,10 0,11 3,0 0,2 0,2 0,2 0,2 0,2 0,1 -3,0 0,10 0,11 3,0 0,1 0,2 0,2 0,3 0,2 0,1 -3,0 0,10 0,11 0,10 -11,0 0,-10 0,-11 0,-10 0,-11 0,-11 0,-10 0,-11 -11,0 -10,0 0,-11 0,-10 10,0 0,10 11,0 0,-10 0,-11 0,-10 0,-11 0,-11 0,-10 0,-11 0,-11 0,-10 -11,0 -10,0 0,10 10,0 0,11 -10,0 0,11 10,0 0,10 -10,0 0,11 10,0 0,11 0,10 -10,0 0,-10 -11,0 0,10 0,11 0,10 0,11 0,11 0,10 11,0 0,-10 10,0 0,10 0,11 -10,0 0,11 10,0 0,10 -10,0 0,11 10,0 0,10 -10,0 0,11 10,0 11,0 11,0 0,11 0,10 0,11 -11,0 0,-11 0,-10 -11,0 -10,0 0,10 10,0 0,11 -10,0 0,11 10,0 0,10 -10,0 0,11 10,0 0,10 -10,0 0,11 10,0 0,11 -10,0 0,10 10,0 11,0 0,-10 0,-11 0,-11 0,-10 0,-11 0,-10 11,0 0,10 0,11 3,0 0,1 0,2 0,2 0,2 0,2 0,1 -3,0 0,11 2,1 1,-1 -1,3 0,2 0,2 0,2 -1,2 -1,0 -1,10 0,0 -1,2 -1,2 -1,2 -1,2 -1,1 -1,2 -4,0 -11,0 -10,0 0,11 10,0 5,0 1,0 -2,1 -2,1 -2,1 -2,1 -1,1 -2,2 -2,1 -2,1 -1,1 -2,0 -9,0 0,-10 0,-11 0,-11 0,-10 -11,0 0,10 -10,0 0,-10 0,-11 10,0 11,0 0,-11 0,-10 -11,0 0,10 -10,0 0,-10 0,-11 0,-10 0,-11 10,0 0,11 0,10 11,0 0,-10 0,-11 0,-11 0,-10 0,-11 -11,0 -10,0 0,-11 0,-10 10,0 0,10 11,0 0,-10 0,-11 0,-10 0,-11 -11,0 -10,0 0,11 10,0 0,10 -10,0 -11,0 -10,0 0,-10 10,0 0,-11 -10,0 -11,0 -11,0 -10,0 0,-11 0,-10 10,0 0,10 11,0 0,-10 11,0 0,10 10,0 0,-10 11,0 0,10 10,0 0,-10 0,-11 -10,0 -11,0 -10,0 -11,0 0,-11 0,-10 -11,0 -10,0 0,10 10,0 0,11 -10,0 -11,0 0,11 0,10 0,11 -11,0 -10,0 -11,0 -10,0 -11,0 0,11 0,10 0,11 0,10"/>
    <path style="fill:none;stroke:#000000;stroke-width:1"
          d="m 441,648 -11,0 0,-10 -10,0 0,10 -11,0 0,-10 0,-11 0,-10 11,0 0,10 10,0 0,-10 0,-11 -10,0 0,-11 0,-10 10,0 0,10 11,0 0,-10 11,0 0,10 10,0 0,-10 11,0 0,10 10,0 0,-10 0,-11 -10,0 -11,0 -10,0 0,-11 10,0 0,-10 -10,0 0,-11 10,0 0,-10 -10,0 -11,0 0,10 0,11 0,10 0,11 -11,0 -10,0 0,-11 10,0 0,-10 -10,0 -11,0 0,10 0,11 -11,0 -10,0 -11,0 -10,0 0,11 0,10 10,0 0,-10 11,0 0,10 10,0 0,-10 11,0 0,10 0,11 -11,0 -10,0 -11,0 -10,0 0,11 0,10 10,0 0,-10 11,0 10,0 0,10 -10,0 0,11 10,0 0,10 -10,0 -11,0 0,-10 -10,0 0,10 0,11 10,0 11,0 10,0 11,0 11,0 10,0 11,0 0,11 0,10 -11,0 0,-10 -10,0 0,10 0,11 10,0 11,0 0,11 0,10 -11,0 0,-10 -10,0 0,10 -11,0 0,-10 0,-11 0,-11 0,-10 -11,0 -10,0 0,10 10,0 0,11 -10,0 0,11 10,0 0,10 -10,0 0,11 0,10 10,0 0,-10 11,0 0,10 11,0 0,-10 10,0 0,10 0,11 -10,0 -11,0 0,11 0,10 11,0 0,-10 10,0 0,10 11,0 0,-10 0,-11 0,-11 0,-10 11,0 10,0 0,10 -10,0 0,11 10,0 11,0 10,0 11,0 11,0 10,0 0,-11 11,0 0,-10 -2,0 0,0 -6,3 -6,1 -6,1 -1,5 -5,-5 -6,5 0,-6 -6,-1 -6,-3 1,10 -10,0 0,-10 0,-6 -2,-1 -4,-4 -5,0 -10,0 0,-10 8,0 -3,-6 -2,-5 -3,0 1,-11 -1,0 1,-2 1,-6 0,-2 -2,0 0,-11 0,-11 0,-10 0,-11 0,-10 10,0 0,10 0,11 0,10 1,0 4,-4 5,-4 1,-2 0,0 0,-11 0,-10 10,0 0,10 0,6 5,-2 6,-1 0,0 0,-3 0,-10 11,0 0,10 0,2 1,0 7,1 2,0 0,-3 0,-10 11,0 0,10 0,7 4,2 5,4 2,2 0,-4 10,0 0,10 0,8 2,4 3,6 1,6 5,-2 10,0 0,10 -10,0 -5,-2 -1,6 -1,6 -2,6 -2,4 0,2 0,10 0,11 -10,0 0,10 10,0 0,11 0,11 0,10 -10,0 0,-10 0,-11 -11,0 0,11 0,10 0,11 11,0 10,0 11,0 10,0 0,11 0,10 -10,0 0,-10 -11,0 0,10 -10,0 0,-10 -11,0 0,10 -11,0 -10,0 0,-10 10,0 0,-11 -10,0 0,-11 10,0 0,-10 -10,0 -11,0 0,10 -11,0 0,-10 -10,0 0,10 -11,0 0,-10 -10,0 0,10 0,11 10,0 11,0 10,0 11,0 0,11 0,10 -11,0 0,-10 -10,0 0,10 -11,0 0,-10 -10,0 0,10 -11,0 0,-10 0,-11 -11,0 -10,0 0,11 10,0 0,10 -10,0 -11,0 0,-10 0,-11 -11,0 -10,0 0,11 10,0 0,10 -10,0 0,3 -1,0 -2,0 -2,0 -2,0 -2,0 -2,0 0,-3 0,-10 -10,0 0,10 0,3 -2,0 -3,0 -2,0 -2,0 -2,0 0,0 0,-3 0,-10 -11,0 0,10 0,3 -1,0 -2,0 -2,0 -3,0 -2,0 0,0 0,-3 0,-10 -11,0 0,10 0,3 -1,0 -2,0 -2,0 -2,0 -3,0 -1,0 0,-3 0,-10 -10,0 0,10 0,3 -1,0 -2,0 -2,0 -2,0 -2,0 -2,0 0,-3 0,-10 -10,0 0,10 0,3 -1,0 -2,0 -2,0 -2,0 -2,0 -2,0 0,-3 0,-10 -11,0 0,10 0,3 0,0 -2,0"/>
    <path style="fill:none;stroke:#000000;stroke-width:1"
          d="m 258,800 -2,0 -2,0 -2,0 -2,0 0,0 0,-3 0,-10 -11,0 0,10 0,3 -2,0 -2,0 -2,0 -2,0 -2,0 -1,0 0,-3 0,-10 -10,0 0,10 0,3 -2,0 -2,0 -2,0 -2,0 -2,0 -1,0 0,-3 0,-10 -10,0 0,10 -11,0 0,-10 0,-11 11,0 10,0 0,-11 0,-10 -10,0 0,10 -11,0 0,-10 -11,0 0,10 -10,0 0,-10 -11,0 0,10 0,11 11,0 10,0 0,11 0,10 -10,0 0,-10 -11,0 0,10 -11,0 -10,0 0,-10 10,0 0,-11 -10,0 0,-11 10,0 0,-10 -10,0 0,-11 10,0 11,0 11,0 10,0 0,-11 0,-10 -1,0 0,0 -6,3 -3,7 -3,-6 -6,1 -2,5 -4,-5 -6,-1 -1,6 -5,-7 -6,-3 1,10 -11,0 -10,0 0,11 10,0 0,11 0,10 -10,0 0,-10 -11,0 0,10 -11,0 0,-10 -10,0 0,10 0,11 10,0 11,0 11,0 10,0 0,11 0,10 -10,0 0,-10 -11,0 0,10 0,3 -1,0 -2,0 -3,0 -2,0 -2,0 -1,0 0,-3 0,-10 -10,0 0,10 0,3 -1,0 -2,0 -2,0 -3,0 -2,0 -1,0 0,-3 0,-10 0,-11 0,-11 0,-10 -11,0 -10,0 0,10 10,0 0,11 -10,0 0,11 10,0 0,10 0,3 0,0 -2,0 -2,0 -2,-1 -2,0 -2,0 0,-2 -11,0 -2,-1 -2,0 -2,-1 -1,-1 -2,-1 -1,-1 0,-5 10,0 0,-11 -10,0 -11,0 0,8 -1,-1 -2,-1 -1,-2 -1,-2 -1,-2 -1,-2 -1,-2 -1,-1 -1,-2 -1,-2 0,-2 0,-10 0,-11 0,-11 0,-10 11,0 0,10 0,11 0,11 0,10 11,0 10,0 0,-10 -10,0 0,-11 10,0 0,-11 -10,0 0,-10 10,0 0,-11 -10,0 0,-10 10,0 0,-11 -10,0 -11,0 0,11 0,10 -11,0 0,-10 0,-11 0,-11 0,-10 0,-11 0,-11 0,-10 -5,0 0,-2 0,-2 0,-2 0,-2 0,-2 0,-1 5,0 0,-10 0,-11 -5,0 0,-1 0,-2 0,-2 0,-2 0,-2 0,-2 5,0 0,-10 11,0 0,10 11,0 0,-10 10,0 0,10 0,11 -10,0 -11,0 0,11 0,10 0,11 0,10 11,0 10,0 0,-10 -10,0 0,-11 0,-10 10,0 0,10 11,0 0,-10 10,0 0,-11 -10,0 0,-11 0,-10 10,0 0,10 11,0 0,-10 11,0 0,10 10,0 0,-10 11,0 0,10 0,11 11,0 10,0 11,0 10,0 0,11 -10,0 -11,0 0,10 -10,0 0,-10 -11,0 0,10 -11,0 -10,0 0,-10 10,0 0,-11 -10,0 -11,0 0,11 0,10 -11,0 0,11 -10,0 0,10 10,0 0,11 -10,0 -11,0 -10,0 -11,0 0,11 0,10 11,0 0,-10 10,0 0,10 11,0 0,-10 10,0 0,10 11,0 0,-10 0,-11 0,-11 0,-10 11,0 10,0 11,0 0,10 -11,0 -10,0 0,11 10,0 0,11 -10,0 0,10 10,0 0,11 -10,0 -11,0 -11,0 -10,0 0,11 10,0 0,10 -10,0 0,11 10,0 0,10 -10,0 0,11 10,0 11,0 0,-11 0,-10 0,-11 0,-10 11,0 10,0 0,10 -10,0 0,11 10,0 0,10 -10,0 0,11 10,0 11,0 0,-11 0,-10 11,0 10,0 0,-6 -1,-1 -4,-4 -5,0 1,-5 -1,-2 -11,7 0,-10 0,-11 0,-11 0,-10 0,-11 6,0 3,-5 3,-5 0,-1 -1,0 0,-10 10,0 2,0 3,-2 5,-3 1,-6 5,4 5,-4 1,3 6,-1 4,-2 2,2 7,1 2,-3 4,4 6,-4 -1,6 6,3 2,2 4,0 0,3"/>
    <path style="fill:none;stroke:#000000;stroke-width:1"
          d="m 186,641 3,3 4,4 4,0 0,-10 10,0 0,10 0,11 -8,0 0,1 3,6 1,4 4,0 0,10 0,11 -6,0 -2,5 -2,6 10,0 0,10 -10,0 -8,0 -4,4 -1,1 2,6 0,10 0,11 11,0 10,0 0,-11 -10,0 0,-10 10,0 11,0 10,0 0,10 -10,0 0,11 10,0 11,0 0,-11 0,-10 11,0 10,0 0,10 -10,0 0,11 10,0 0,11 0,10 -10,0 0,-10 -11,0 0,10 -11,0 0,-10 -10,0 0,10 0,11 10,0 11,0 11,0 10,0 11,0 11,0 10,0 11,0 10,0 11,0 11,0 10,0 0,-11 -10,0 0,-10 10,0 11,0 0,10 0,11 11,0 10,0 0,-11 -10,0 0,-10 10,0 11,0 0,10 10,0 0,-10 0,-11 -10,0 -11,0 -10,0 0,-11 10,0 0,-10 -10,0 0,-11 10,0 0,-10 -10,0 -11,0 0,10 0,11 0,10 0,11 -11,0 -10,0 -11,0 0,11 0,10 -11,0 0,-10 -10,0 0,10 -11,0 0,-10 -10,0 0,10 -11,0 0,-10 0,-11 0,-11 0,-10 11,0 10,0 0,10 -10,0 0,11 10,0 11,0 10,0 0,-11 -10,0 0,-10 10,0 11,0 0,10 11,0 10,0 0,-10 -10,0 0,-11 10,0 0,-10 -10,0 -11,0 0,10 -11,0 0,-10 -10,0 0,10 -11,0 -10,0 0,-10 10,0 0,-11 -10,0 -11,0 0,11 0,10 -11,0 0,-10 -10,0 0,10 -11,0 0,-10 -11,0 0,10 -10,0 0,-10 0,-11 10,0 11,0 11,0 10,0 0,-11 0,-10 -10,0 0,10 -11,0 0,-10 -11,0 0,10 -10,0 0,-10 0,-11 10,0 0,-11 -10,0 0,-10 10,0 11,0 0,10 0,11 11,0 10,0 0,-11 -10,0 0,-10 10,0 0,-11 -10,0 0,-10 10,0 11,0 0,10 0,11 0,10 0,11 0,11 0,10 11,0 10,0 0,-10 -10,0 0,-11 10,0 0,-11 -10,0 0,-10 10,0 0,-11 -10,0 0,-10 10,0 0,-11 -10,0 -11,0 -11,0 -10,0 -11,0 0,11 0,10 -11,0 0,-10 -10,0 0,10 -11,0 0,-10 -10,0 0,10 -11,0 0,-10 0,-11 11,0 10,0 11,0 10,0 0,-11 0,-10 -10,0 0,10 -11,0 0,-10 -10,0 0,10 -11,0 0,-10 0,-11 -11,0 -10,0 0,11 10,0 0,10 -10,0 0,11 10,0 0,11 -10,0 -11,0 0,-11 0,-11 0,-10 0,-11 -11,0 -10,0 0,11 10,0 0,10 -10,0 -11,0 -10,0 0,-10 10,0 0,-11 -10,0 -11,0 -11,0 -10,0 -11,0 -11,0 -10,0 -11,0 -10,0 -11,0 -11,0 -5,0 0,0 0,-2 0,-2 0,-3 0,-2 0,-2 5,0 0,-10 0,-11 -5,0 0,-2 0,-2 0,-2 0,-2 0,-2 0,0 5,0 0,-11 -5,0 0,-2 0,-2 0,-2 0,-2 0,-2 0,-1 5,0 0,-10 -5,0 0,-1 0,-2 0,-3 0,-2 0,-2 0,-1 5,0 0,-11 -5,0 0,0 0,-2 0,-2 0,-2 0,-3 0,-1 5,0 11,0 0,10 0,11 0,11 0,10 0,11 11,0 10,0 0,11 0,10 -10,0 0,-10 -11,0 0,10 0,11 0,10 11,0 0,-10 10,0 0,10 11,0 10,0 0,-10 -10,0 0,-11 10,0 0,-10 -10,0 0,-11 10,0 11,0 0,-11 0,-10 -11,0 0,10 -10,0 0,-10 -11,0 0,10 -10,0 0,-10 0,-11 10,0 11,0 10,0 11,0 11,0 10,0 11,0 0,11 0,10 -11,0 0,-10 -10,0 0,10 0,11 10,0 0,11 0,10 -10,0 0,-10"/>
    <path style="fill:none;stroke:#000000;stroke-width:1"
          d="m 80,532 -11,0 0,10 0,11 0,10 11,0 0,-10 10,0 0,10 11,0 0,-10 0,-11 0,-10 0,-11 11,0 10,0 11,0 10,0 11,0 0,-11 0,-10 0,-11 0,-11 0,-10 -11,0 -10,0 0,10 10,0 0,11 -10,0 0,11 10,0 0,10 -10,0 -11,0 -10,0 0,-10 10,0 0,-11 -10,0 0,-11 10,0 0,-10 -10,0 -11,0 0,10 -11,0 0,-10 -10,0 0,10 -11,0 0,-10 0,-11 0,-10 0,-11 0,-11 0,-10 -11,0 0,10 -10,0 0,-10 -11,0 0,10 -10,0 0,-10 -11,0 0,10 0,11 11,0 10,0 11,0 10,0 0,11 -10,0 0,10 10,0 0,11 0,10 -10,0 0,-10 -11,0 0,10 -10,0 0,-10 0,-11 10,0 0,-10 -10,0 -11,0 0,10 -11,0 -5,0 0,0 0,-2 0,-2 0,-2 0,-2 0,-2 5,0 0,-11 -5,0 0,-2 0,-2 0,-2 0,-2 0,-2 0,-1 5,0 0,-10 -5,0 0,-2 0,-2 1,-2 0,-2 0,-2 0,-1 4,0 11,0 11,0 10,0 0,-11 0,-10 -10,0 0,10 -11,0 -11,0 -2,0 0,0 1,-3 0,-2 1,-1 2,-2 1,-2 0,0 8,0 0,-10 1,-1 0,-1 3,-3 1,0 2,-1 2,-1 2,-1 0,7 10,0 0,-10 0,-3 1,0 2,-1 2,0 2,0 2,-1 2,0 0,5 0,10 10,0 0,-10 0,-5 2,-1 3,0 2,0 2,0 2,0 0,0 0,6 0,10 0,11 0,10 -11,0 0,-10 -10,0 0,10 0,11 10,0 11,0 11,0 10,0 0,11 -10,0 0,10 10,0 0,11 -10,0 0,11 0,10 10,0 0,-10 11,0 0,10 11,0 0,-10 10,0 0,10 11,0 0,-10 10,0 0,10 11,0 0,-10 0,-11 0,-11 0,-10 -11,0 -10,0 0,10 10,0 0,11 -10,0 -11,0 -10,0 -11,0 0,-11 0,-10 11,0 0,10 10,0 0,-10 0,-11 0,-11 0,-10 -10,0 0,10 0,11 -11,0 0,-11 0,-10 -11,0 0,10 -10,0 0,-10 0,-11 0,-10 0,-6 1,0 2,0 2,0 3,0 2,0 0,0 0,6 0,10 11,0 0,-10 0,-6 1,0 2,0 2,0 2,0 2,0 2,0 0,6 0,10 10,0 0,-10 0,-6 1,0 2,0 2,0 2,0 2,0 2,0 0,6 0,10 10,0 0,-10 0,-5 1,0 2,1 2,0 2,0 2,0 2,1 0,3 0,10 0,11 0,10 -11,0 0,-10 -10,0 0,10 0,11 10,0 11,0 11,0 0,11 10,0 0,10 -10,0 0,11 10,0 11,0 0,-11 0,-10 0,-11 -11,0 0,-11 -10,0 0,-10 0,-11 0,-8 0,-1 2,2 2,1 2,1 1,1 2,1 1,1 0,2 0,11 11,1 1,1 1,2 1,2 -3,4 4,-2 1,2 0,2 1,2 0,2 0,2 0,2 0,2 1,2 0,2 0,2 0,2 1,2 0,2 0,2 0,3 0,2 0,2 0,2 0,2 0,2 0,2 0,2 0,2 0,2 0,2 0,3 0,2 0,2 0,2 0,2 0,2 0,2 0,2 0,2 0,2 0,2 0,2 0,3 0,2 0,2 0,2 0,2 0,2 0,2 0,2 0,2 0,2 0,2 0,2 0,3 0,2 1,2 0,2 0,2 0,2 0,2 1,2 1,2 0,10 -11,0 0,-11 0,-10 0,-11 0,-11 0,-10 0,-11 0,-10 -11,0 -10,0 0,10 10,0 0,11 -10,0 0,10 10,0 0,11 -10,0 0,11 10,0 0,10 -10,0 0,11 10,0 0,11 0,10 -10,0 0,-10"/>
    <path style="fill:none;stroke:#000000;stroke-width:1"
          d="m 165,532 -11,0 0,10 -11,0 0,-10 -10,0 0,10 -11,0 0,-10 -10,0 0,10 0,11 0,10 10,0 0,-10 11,0 0,10 10,0 0,-10 11,0 0,10 11,0 0,-10 10,0 0,10 11,0 0,-10 0,-11 0,-10 11,0 0,10 10,0 0,-10 0,-3 2,1 1,1 2,1 2,2 1,1 2,1 1,1 0,5 10,0 7,0 1,0 3,1 0,0 0,10 0,10 -11,0 0,-10"/>
  </g>
</svg>
