<?xml version="1.0" encoding="UTF-8" standalone="no"?>
<!-- Created with the Eggbot TSP art toolkit (http://egg-bot.com) -->

<svg
   xmlns:dc="http://purl.org/dc/elements/1.1/"
   xmlns:cc="http://creativecommons.org/ns#"
   xmlns:rdf="http://www.w3.org/1999/02/22-rdf-syntax-ns#"
   xmlns:svg="http://www.w3.org/2000/svg"
   xmlns="http://www.w3.org/2000/svg"
   xmlns:sodipodi="http://sodipodi.sourceforge.net/DTD/sodipodi-0.dtd"
   xmlns:inkscape="http://www.inkscape.org/namespaces/inkscape"
   height="489.25745"
   width="1130.2605"
   id="svg2"
   version="1.1"
   inkscape:version="0.91 r13725"
   sodipodi:docname="pic.svg">
  <defs
     id="defs48" />
  <sodipodi:namedview
     showgrid="false"
     showborder="true"
     inkscape:showpageshadow="false"
     id="namedview4"
     fit-margin-top="0"
     fit-margin-left="0"
     fit-margin-right="0"
     fit-margin-bottom="0"
     inkscape:zoom="0.9225"
     inkscape:cx="697.28164"
     inkscape:cy="322.62824"
     inkscape:window-width="1920"
     inkscape:window-height="1005"
     inkscape:window-x="-9"
     inkscape:window-y="-9"
     inkscape:window-maximized="1"
     inkscape:current-layer="svg2" />
  <metadata
     id="metadata6">
    <rdf:RDF>
      <cc:Work
         rdf:about="">
        <dc:format>image/svg+xml</dc:format>
        <dc:type
           rdf:resource="http://purl.org/dc/dcmitype/StillImage" />
        <dc:subject>
          <rdf:Bag>
            <rdf:li>Egg-Bot</rdf:li>
            <rdf:li>Eggbot</rdf:li>
            <rdf:li>TSP</rdf:li>
            <rdf:li>TSP art</rdf:li>
          </rdf:Bag>
        </dc:subject>
        <dc:description>TSP art created with the Eggbot TSP art toolkit (http://egg-bot.com)</dc:description>
        <dc:title></dc:title>
      </cc:Work>
    </rdf:RDF>
  </metadata>
  <g
     transform="matrix(1,0,0,-1,-4.3434678,492.5)"
     id="g8">
    <path
       style="fill:none;stroke:#000000;stroke-width:1"
       d="m 8,492 5,0 5,0 5,0 5,0 5,0 5,0 5,0 5,0 5,0 5,0 5,0 5,0 5,0 5,0 5,0 5,0 5,0 5,0 5,0 5,0 5,0 5,0 5,0 4,-1 2,-6 0,-7 1,-6 1,-6 1,-6 3,-4 -2,-8 5,1 2,-6 2,-5 4,-3 3,-5 4,-4 4,-5 4,-3 3,-4 5,-2 3,-4 4,-1 4,-2 4,-2 5,-2 5,-2 3,-2 5,0 6,-2 5,0 5,-1 3,-1 6,1 6,0 5,0 2,-6 5,-2 3,-4 5,0 4,-4 8,-4 1,-6 6,3 5,-1 4,-1 2,-7 1,-6 1,-7 6,6 2,-6 10,0 -3,3 -1,6 0,7 -3,1 -5,0 -3,6 -2,6 -6,1 -6,0 -5,4 -5,-1 -3,5 0,6 -7,-3 -8,6 5,0 6,3 8,3 4,-3 0,-7 5,1 3,-5 5,-1 6,-1 5,-3 1,-7 5,0 5,0 3,-4 0,-8 2,-3 1,-7 5,-5 2,9 -1,6 7,-3 0,-7 3,-4 3,-7 7,-4 -1,6 -2,7 -1,6 -2,6 7,3 -3,6 -6,-2 -5,0 -6,1 -4,2 0,7 -3,5 -5,0 -5,0 -3,6 -5,3 -4,1 1,7 -6,2 -1,-8 -5,5 -3,5 8,5 6,4 3,-4 5,-2 1,-6 3,-4 4,-5 6,1 5,0 6,3 4,-5 -7,-4 2,-6 3,-4 7,-1 -1,6 1,7 7,6 -5,3 -4,3 -4,4 -7,-3 -6,-1 -4,2 -3,5 8,4 5,-1 6,1 7,2 3,-5 4,-2 4,-3 2,-6 4,-3 7,-5 4,-2 5,-4 6,2 -1,7 -4,3 -4,3 -6,-1 -2,6 -4,3 -2,6 -5,3 -4,3 0,7 -7,-4 -6,-2 -2,3 -6,-2 -7,-3 -5,-1 -5,0 -4,3 8,7 5,2 4,-1 6,2 6,1 7,0 6,2 7,-2 1,-6 4,-4 4,-5 4,-4 3,-5 6,1 4,-4 4,-2 1,-7 3,-4 5,3 3,-4 7,2 6,2 5,0 6,0 2,-8 5,0 3,-6 2,-6 4,-4 3,-2 4,-4 3,-6 3,-4 0,-7 6,3 5,-1 4,-1 1,-6 3,-4 5,0 7,2 5,0 3,-5 3,-1 2,10 -4,4 -7,0 -5,0 -5,0 0,8 -4,2 -6,0 -5,1 -4,4 -3,5 -3,5 -3,5 -5,1 -1,6 -4,4 -2,6 -6,0 2,8 -7,-1 -5,2 -5,0 -7,-4 -3,2 -5,2 -5,0 -1,7 -5,1 -5,4 -6,0 -3,5 -4,4 -5,6 5,1 7,-2 6,1 0,-7 6,1 3,-4 5,0 4,-6 3,-1 4,-3 5,0 8,4 3,-1 4,-3 5,0 4,-7 5,-2 2,-5 3,-3 2,-6 5,0 1,-6 3,-5 3,-5 4,-3 5,1 3,-2 5,-1 3,-3 1,-8 7,1 -1,6 0,7 8,2 -1,6 -6,1 -5,-2 -5,0 -4,3 -5,-1 -4,3 -3,4 -1,6 -1,6 -6,-1 -2,5 -3,5 -2,5 -4,2 -3,1 -4,6 -5,0 -3,4 -6,-1 -6,-3 -5,0 -3,4 -6,-1 0,7 -6,-1 -7,2 -2,8 -5,0 -5,0 -3,3 -7,-3 -5,0 -5,0 -6,1 -6,-1 -5,0 -6,-1 -5,0 -6,-1 8,11 4,1 5,0 5,0 5,0 5,0 6,-1 6,0 6,0 8,0 6,0 6,0 1,-6 3,-3 5,0 -1,9 6,0 6,0 8,0 6,0 6,0 8,0 6,0 6,0 8,0 6,0 6,0 8,0 6,0 6,0 8,1 1,-7 2,-7 4,-4 3,-4 7,0 1,-7 5,-4 1,-7 1,-6 4,-5 7,3 1,-7 2,-6 4,-3 4,-3 4,-6 4,-2 0,-8 4,-2 5,0 8,4 3,-5 6,-1 5,0 6,1 7,-4 6,1 3,-4 2,-3 7,4"
       id="path10"
       inkscape:connector-curvature="0" />
    <path
       style="fill:none;stroke:#000000;stroke-width:1"
       d="m 606,361 4,-4 2,-6 4,-3 1,-5 7,4 6,-2 0,-7 6,-4 3,-5 6,2 0,7 -3,5 -5,0 1,8 -3,4 -4,1 -5,1 -5,0 -4,3 -3,6 -4,4 -7,-2 -1,7 7,2 7,2 3,-4 6,2 5,-3 -9,-6 6,-2 6,2 2,-3 6,-3 4,-4 0,-7 5,-3 5,0 5,-2 7,3 0,-6 4,-3 5,-1 -1,9 6,-1 4,-3 2,-6 3,-5 5,-3 4,-2 1,-6 2,-5 2,-4 1,-7 7,2 -1,7 7,1 1,-6 6,2 6,-8 -1,6 5,7 -4,4 -5,0 -2,5 -5,5 -2,-8 -7,-1 -4,5 7,4 -4,5 -4,3 -3,2 -5,-1 -2,5 -3,4 -3,5 -5,2 -4,3 -5,-3 -5,2 -7,-3 -3,3 -7,-2 -1,6 -3,5 -7,2 0,8 -5,1 -3,4 -5,3 -6,0 -5,3 -7,-3 -5,0 -5,0 -2,4 -8,-2 -1,-7 4,-3 2,-5 -8,-2 -4,6 -5,0 -7,-2 -4,3 -4,4 -6,-2 -4,-1 -4,3 -1,7 -7,0 -1,7 -3,4 -4,2 -2,7 -5,5 -6,-2 0,7 -3,5 -3,6 -2,5 -7,4 -4,4 -4,4 -2,7 6,2 4,-4 4,-4 3,-5 5,3 3,-7 1,-6 4,-4 3,-4 3,-1 2,-7 4,-5 4,-3 4,-4 2,-6 4,-1 3,-6 4,-3 5,3 5,-1 4,-4 4,-3 7,1 1,7 -5,1 -4,4 -5,3 -4,2 -6,-2 -1,5 -5,2 -2,5 -4,3 -3,4 -4,3 -3,4 -2,7 -4,3 -4,3 0,7 -5,2 -6,6 -4,3 -4,4 -4,4 -7,-2 -5,0 -6,0 -5,0 -5,0 -5,0 -5,0 -5,0 -5,0 -5,0 -5,0 -5,0 -5,0 -5,0 -5,0 -5,0 -5,0 -5,0 -5,0 -5,0 -5,0 -5,0 -5,0 -5,0 -5,0 -5,0 -5,0 -5,0 -5,0 -5,0 -5,0 -6,0 -6,0 -6,0 -5,1 5,9 5,0 5,0 5,0 5,0 5,0 5,0 5,0 5,0 5,0 5,0 5,0 5,0 5,0 5,0 5,0 5,0 5,0 5,0 5,0 5,0 5,0 5,0 5,0 5,0 5,0 5,0 5,0 5,0 5,0 5,0 5,0 5,0 5,0 5,0 5,0 6,0 4,-4 4,-3 2,10 -1,6 -4,1 -5,0 -5,0 -5,0 -5,0 -5,0 -5,0 -5,0 -5,0 -5,0 -5,0 -5,0 -5,0 -5,0 -5,0 -5,0 -5,0 -5,0 -5,0 -5,0 -5,0 -5,0 -5,0 -5,0 -5,0 -5,0 -5,0 -5,0 -5,0 -5,0 -5,0 -5,0 -5,0 -5,0 -5,0 -5,0 -5,0 -5,0 3,10 5,0 5,0 5,0 5,0 5,0 5,0 5,0 5,0 5,0 5,0 5,0 5,0 5,0 5,0 5,0 5,0 5,0 5,0 5,0 5,0 5,0 5,0 5,0 5,0 5,0 5,0 5,0 5,0 5,0 5,0 5,0 5,0 5,0 5,0 5,0 5,0 5,0 5,0 3,-4 1,-7 -1,-7 2,-3 2,-6 -8,-3 2,-6 6,2 2,-3 3,-5 1,-6 4,-3 3,-6 3,-4 3,-4 4,-4 4,-4 4,-3 3,-3 4,-3 5,-2 5,-3 4,-3 5,-1 5,-2 3,-2 5,0 6,-2 5,0 5,-1 8,0 6,0 5,0 3,-4 6,6 5,0 0,-8 -6,-2 5,-6 1,-5 6,-4 4,-5 6,2 3,-4 8,1 -2,7 -4,5 -7,-3 0,7 -6,-2 -1,6 0,7 -1,7 7,2 2,-6 0,-6 6,-3 5,-1 3,-5 3,-6 3,-5 3,-4 5,-3 4,-4 3,-4 4,-4 5,0 3,-5 5,-3 3,-1 5,-1 2,-6 5,-3 5,-1 4,-3 3,-2 8,5 -3,5"
       id="path12"
       inkscape:connector-curvature="0" />
    <path
       style="fill:none;stroke:#000000;stroke-width:1"
       d="m 749,335 -4,2 -4,3 -5,0 -4,3 -1,8 7,1 4,-2 5,1 2,-5 5,-2 3,-5 6,0 -1,9 5,0 5,-2 5,3 4,-3 8,5 -3,4 -4,3 -8,-3 -6,2 -5,0 -7,-5 -1,6 -4,3 -5,-1 -7,0 -5,0 -2,6 -5,0 -1,-9 1,-7 -7,0 -3,4 -5,4 -6,1 -1,7 -4,2 -5,3 -3,4 -3,4 -3,4 -2,5 -3,5 -3,4 -6,-3 0,7 -3,4 8,5 4,-5 5,-3 3,-4 2,-5 4,-3 2,-3 2,-6 4,-3 4,-1 4,-4 1,-7 7,-4 0,7 -1,6 -1,7 -4,3 -6,2 -3,4 7,6 3,-5 7,0 2,-6 2,-7 2,-5 6,3 4,-2 2,-7 6,-1 8,3 -4,5 -6,2 -2,7 -3,4 -5,-2 -3,4 -2,6 -3,5 -5,0 -3,4 -2,6 -5,0 -6,-2 4,-7 -5,-2 -5,0 -2,6 -2,5 -5,0 -6,2 7,8 5,0 5,-1 3,-4 5,3 7,0 7,-1 2,-6 4,-1 4,-3 2,-6 3,-5 5,-1 5,-3 1,-6 3,-4 5,-4 5,-1 5,-2 -8,-7 4,-3 5,2 4,-2 5,-2 5,2 -1,7 -4,3 -4,2 -1,6 -3,4 -6,-1 -4,3 -3,4 -2,6 -2,5 -3,3 -5,-2 -3,4 -2,6 -5,3 -4,3 0,7 -7,-4 -6,2 -5,1 -6,0 -6,1 7,7 7,1 5,0 5,-3 6,2 7,-2 1,-6 4,-4 4,-5 4,-4 8,-2 3,-4 1,-7 3,-5 5,-2 7,-2 3,-5 3,-3 4,-3 1,-6 4,-1 -3,-9 4,1 7,-4 -6,-3 2,-7 7,4 2,-6 5,0 13,-2 -5,6 -2,5 -6,0 -2,6 -3,5 -5,1 -1,6 -4,6 7,2 5,-3 3,-2 3,-5 2,-6 4,-2 5,-5 2,-6 5,-4 4,-2 5,-2 8,-2 -1,6 -4,5 -5,2 -5,2 -2,6 -4,4 -3,5 -5,3 -1,6 -5,4 -4,4 -5,1 -6,-2 -5,0 -3,1 -5,3 -3,5 -5,1 -5,1 -3,5 -1,5 -3,5 -8,0 -3,5 -4,4 -5,6 5,1 7,-2 6,1 0,-7 6,1 4,-4 3,-3 1,-7 4,1 3,-5 5,-4 4,-4 7,-1 1,7 -4,3 -5,3 -3,5 -2,6 -4,1 -1,7 -5,0 -7,2 -2,8 -5,0 -5,0 -3,3 -7,-3 -5,0 -5,0 -6,1 -6,-1 -6,2 -7,-1 6,9 7,0 5,0 5,0 6,-1 6,0 6,0 8,0 6,0 6,0 1,-6 3,-3 5,0 -1,9 6,0 6,0 8,0 6,0 6,0 7,0 6,0 5,0 -1,-8 7,-2 3,-3 1,-7 3,-3 1,-7 3,-4 3,-5 3,-5 11,3 -3,1 -3,5 -2,5 -3,4 -3,5 -1,7 -3,4 -1,6 -2,5 -6,-3 0,7 -3,5 -5,0 -5,0 -5,0 -5,0 -5,0 -5,0 -5,0 -5,0 -5,0 -5,0 -5,0 -5,0 -5,0 -5,0 -5,0 -5,0 -5,0 -5,0 -5,0 -6,0 -6,0 -5,0 4,10 5,0 5,0 5,0 5,0 5,0 5,0 5,0 5,0 5,0 5,0 5,0 5,0 5,0 5,0 5,0 5,0 5,0 5,0 5,0 5,0 5,0 5,0 5,0 1,-6 3,-5 6,-1 1,-7 2,-6 2,-6 2,-5 3,-3 3,-5 1,-7 6,-2 0,-7 5,1 3,-6 0,-7 5,1 4,-3 3,-3 2,-5 5,-2 3,-3 8,1 5,-2 5,-2 3,-4 6,0 5,-3 6,1 3,-5 5,-4 1,-6 5,-4 1,-7 3,-6 5,0 0,-9 6,2 -1,-8 6,2 7,1 0,7 -5,1 -3,6 -5,1 -5,5 -2,5 8,5 2,-6 5,0 4,-6 4,-2 4,-5 7,2 -2,7 -3,5 -2,4"
       id="path14"
       inkscape:connector-curvature="0" />
    <path
       style="fill:none;stroke:#000000;stroke-width:1"
       d="m 989,361 -6,-2 -4,6 -3,4 -3,5 0,7 -4,3 -5,1 -6,0 2,-9 5,-2 2,-7 -5,-1 -5,1 -2,9 -4,2 -2,5 -5,2 -5,0 -3,4 -6,-3 -1,6 -6,-1 -5,2 -8,-1 -3,5 -4,1 -3,4 -4,4 -5,3 -3,3 -3,5 -5,4 -5,5 -3,5 -2,7 -3,6 -3,5 -2,6 -2,6 -1,8 -5,0 -3,4 8,5 -3,5 -5,-1 -5,0 -5,0 -5,0 -5,0 -5,0 -5,0 -5,0 -5,0 -5,0 -5,0 -5,0 -5,0 -5,0 -5,0 -5,0 -5,0 -5,0 -5,0 -5,0 -5,0 -5,0 -5,0 -5,0 -5,0 1,10 5,0 5,0 5,0 5,0 5,0 5,0 5,0 5,0 5,0 5,0 5,0 5,0 5,0 5,0 5,0 5,0 5,0 5,0 5,0 5,0 5,0 5,0 5,0 5,0 5,0 5,-1 3,-5 0,-8 1,-7 1,-6 2,-6 2,-6 3,-5 2,-6 3,-5 3,-4 3,-4 4,-4 4,-4 4,-4 4,-3 4,-3 4,-3 4,-2 3,-4 4,1 5,-2 5,-2 7,-2 6,-2 5,0 5,-1 3,-1 6,1 6,0 5,0 3,-4 6,6 5,0 6,3 1,-7 3,-4 4,-4 7,2 -1,7 -4,2 -3,6 7,4 4,-3 3,-7 4,-3 5,2 5,0 5,-2 5,0 -1,9 -4,3 -5,0 -6,-2 -5,3 -2,6 8,5 1,-6 7,2 7,1 4,-2 4,-2 6,2 -2,7 -4,3 -6,0 -6,0 -4,1 7,7 7,0 9,-2 -2,5 -7,4 7,3 -1,6 7,7 6,1 5,0 5,0 5,0 5,0 3,-2 6,2 5,0 5,-1 4,-1 7,-1 0,-7 5,0 1,-6 7,2 0,7 -1,6 -5,1 -3,6 -4,1 -4,3 -4,-1 -6,0 -6,0 -5,0 -6,0 -6,0 -6,0 -6,0 -5,0 6,10 5,0 5,0 5,0 5,0 5,0 5,0 5,0 5,0 5,0 6,0 3,-3 7,3 -1,7 -3,3 -5,0 -5,0 -5,0 -5,0 -5,0 -5,0 -5,0 -5,0 -5,0 -5,0 -5,0 2,10 5,0 5,0 5,0 5,0 5,0 5,0 5,0 5,0 5,0 5,0 5,0 5,0 3,-3 0,-7 1,-6 0,-7 -9,-5 3,-3 6,1 0,-7 0,-7 0,-7 0,-7 -6,-2 6,-5 0,-7 0,-7 0,-7 0,-7 -7,-3 -1,6 0,6 1,8 -6,-1 -1,7 7,1 -6,7 -6,-2 -3,5 -5,2 0,8 -6,-2 -6,2 -5,0 -6,-2 -4,-1 -4,3 -5,0 -5,0 -7,1 0,-7 3,-5 4,1 5,0 5,-3 3,-3 7,6 7,2 7,-2 2,-6 4,-2 3,-5 4,-1 1,-7 2,-6 3,-1 -1,-8 -7,-2 -3,7 -1,7 -5,4 -3,4 -5,5 -1,6 -7,-2 0,-7 6,-4 1,-7 1,-6 6,3 1,-6 4,-5 -8,-4 -4,3 -5,-1 -1,7 -2,5 0,7 -6,0 0,8 -5,-1 -4,3 -3,3 -9,-2 2,-5 2,-5 3,-1 4,-2 3,-2 5,-4 1,-6 3,-5 -1,-8 -6,4 -4,4 -1,6 -6,-4 -2,5 -4,2 -4,3 -9,-4 3,-4 3,-3 4,-3 3,-5 6,1 4,-4 6,-2 -8,-6 -6,3 -7,-1 -3,5 -3,2 -4,3 -7,-3 1,-7 4,-3 4,-2 2,-5 7,3 5,0 0,-6 -8,-4 -3,-9 -4,2 -1,6 -5,3 -3,3 -4,2 -1,6 -1,6 -1,6 -5,0 -8,-1 -1,-7 7,-1 1,-6 1,-6 3,-6 0,-6 6,2 5,-2 2,-8 3,-4 -10,3 -4,2 -7,-2 -2,7 -1,6 -3,7 -1,7 -5,-3 -3,5 1,7 -6,-2 -6,3 -4,3 -2,6 -6,-2 -1,-8 4,-4 2,-6 5,3"
       id="path16"
       inkscape:connector-curvature="0" />
    <path
       style="fill:none;stroke:#000000;stroke-width:1"
       d="m 991,371 5,-4 3,-5 1,-6 5,1 5,-3 0,-8 -7,2 -1,-7 4,-4 6,2 1,-7 7,3 4,-2 7,2 3,-5 1,-6 -10,2 3,-4 3,-7 1,-6 -7,4 -4,2 -3,5 -2,5 -6,-2 -4,6 -6,-1 -3,4 -3,5 -6,-2 1,-8 3,-4 7,-3 5,0 6,-5 4,-4 2,-6 6,-1 4,-2 6,-1 0,-8 -6,0 -5,-3 -3,4 -4,3 -5,3 -2,6 -4,5 -6,-2 -3,1 -2,6 -7,-2 -2,5 -2,5 -6,-1 -7,-2 -5,5 -5,1 -1,7 -5,0 0,7 -3,6 -1,6 -6,3 0,7 -6,4 -1,-7 -6,3 -1,6 -4,1 -7,2 -4,3 -5,2 -5,1 -7,-3 -2,5 -5,2 -3,5 -4,4 -5,-1 -3,6 0,7 -6,0 -6,-2 -5,0 -6,-2 -4,4 -2,6 -5,3 -1,7 -3,1 -1,6 -2,5 -2,6 -7,2 -2,4 -7,1 -5,0 5,-7 3,-6 6,0 3,-5 -1,-8 2,-3 4,-6 3,-5 5,-2 1,-7 5,-4 6,0 6,1 7,2 3,-5 -6,-3 -7,-3 7,-4 3,-5 3,-6 -7,-3 -4,5 -3,5 -6,1 -1,6 -5,0 -3,5 -5,3 -2,5 -5,5 -2,6 -5,2 -4,3 5,9 -4,3 -6,2 -2,5 -3,4 -5,0 3,9 -5,0 -4,3 -7,-3 1,-7 4,-2 1,-6 4,-4 3,-1 3,-4 4,-3 4,-2 -5,-9 4,-3 6,-3 3,-4 6,-2 0,-8 5,-4 4,-4 3,-5 4,-3 5,-1 3,-4 4,-3 1,-6 1,-7 1,-8 3,-1 10,-1 -2,6 -1,6 -5,0 0,8 6,2 5,0 2,-6 1,-6 4,-1 5,0 3,-5 9,-2 -1,7 -2,4 -2,5 -5,1 -4,1 -2,6 -3,5 -4,2 -2,7 -2,5 8,-2 4,-3 4,-5 2,-5 5,-2 5,2 4,1 5,-2 4,-3 5,0 4,-4 1,-6 6,1 1,-6 4,-5 3,9 4,-5 2,-3 3,-6 2,-6 -7,-4 -2,6 -5,1 -6,1 -4,3 -2,6 -7,-3 1,8 -3,4 -7,1 -4,3 3,-10 3,-4 0,-7 -6,-2 4,-6 5,-2 4,8 3,-4 3,-3 5,0 6,-2 2,-5 5,-2 6,4 5,0 3,-3 4,-4 5,0 3,-5 6,2 5,0 4,-4 1,-7 7,4 0,-7 7,-1 7,3 2,-6 3,-5 4,-3 4,-3 5,-4 7,3 7,2 1,-5 3,-6 -6,-2 -4,-1 -3,4 -6,-4 -5,2 -4,3 -5,3 -4,3 -3,5 -3,4 -7,1 -7,3 -7,4 -2,5 -7,-1 -5,-2 -3,5 -6,1 -3,4 -5,2 -7,-3 -5,2 -5,4 -2,4 -7,-2 -4,2 -7,-2 -4,3 -4,5 -4,3 -2,6 -9,1 -5,0 6,-6 3,-4 2,-7 4,-2 3,-4 3,-4 5,1 5,0 8,0 4,-3 3,-1 5,-3 5,-2 6,3 4,-3 6,-2 3,-4 4,-4 1,-6 2,-5 1,-7 4,-3 5,-4 8,1 2,-5 3,-2 4,-4 6,-4 4,-3 6,-3 6,-2 2,-5 3,-3 4,-2 3,-2 5,0 4,-4 2,-5 7,0 4,-3 3,-5 3,-3 4,-6 4,-4 5,-4 4,-4 7,-2 3,-2 4,-3 6,0 6,-5 -7,-2 1,-7 6,-2 4,-1 0,9 6,0 5,0 5,0 5,0 4,-5 6,1 -1,7 -1,6 -6,0 -5,1 -5,0 -6,-1 -4,2 -6,1 -4,5 -5,0 -5,3 -6,2 -4,3 -5,3 -3,5 -4,3 -2,6 -4,3 -3,5 -3,4 -6,-2 -3,5 -3,4 -5,2 -4,1 -5,2 -2,5 -3,4 -4,1 -6,0 -4,4 -5,2 -4,4 -4,4 -2,5 -8,-1 -4,3 -3,4 -3,3 -1,7 -1,5 8,-3 4,-5 4,-1 2,-4 6,2 3,-5 3,-5 4,-3 4,-2"
       id="path18"
       inkscape:connector-curvature="0" />
    <path
       style="fill:none;stroke:#000000;stroke-width:1"
       d="m 1001,270 4,-3 4,-2 6,-1 5,-1 2,-5 2,-6 7,0 4,-2 -4,9 -2,5 8,4 2,-5 2,-4 3,-4 3,-5 -8,-4 3,-5 7,3 3,-4 2,-5 3,-4 3,-5 3,-4 4,-4 3,-4 5,-2 3,-4 6,-1 5,-2 6,-2 3,-2 5,0 4,-2 5,0 6,0 5,-1 5,0 4,-3 -1,-7 2,-3 1,-7 -7,-7 6,-1 0,-7 1,-7 -7,2 -3,4 -4,4 -5,0 -3,5 -8,-1 -5,0 6,-6 3,-4 7,-3 4,-4 6,-3 6,-2 3,-4 -1,-8 0,-7 0,-7 0,-7 0,-7 0,-7 -6,6 -6,-1 -1,7 6,2 0,8 -5,0 -5,-1 -4,4 -5,3 -4,1 -2,6 -5,1 -4,6 -6,-1 -6,-2 -4,3 -4,3 -4,3 -1,7 -3,5 -2,5 0,7 7,1 2,-6 2,-6 2,-6 4,-2 4,-4 5,1 6,0 5,-5 5,-1 4,-5 4,-2 4,-3 3,-4 7,0 0,7 -3,4 -5,3 -6,3 -4,5 -7,1 -3,6 -5,1 -5,-1 -4,3 -4,3 -3,6 -1,7 -7,2 -4,2 -2,5 -7,2 -3,5 -5,0 -2,4 -2,6 -6,0 -1,7 -4,3 -4,2 -7,2 -2,5 -6,-1 -6,3 -4,3 -3,4 -1,6 -5,0 -3,3 -6,2 -2,6 -6,1 -7,1 -1,7 -3,1 -6,3 -5,-1 -3,4 -1,7 -3,6 -1,7 -4,3 -3,4 -7,2 0,-6 2,-6 4,-4 2,-4 3,-5 2,-6 -7,-3 -3,4 -3,5 -3,4 -2,6 -3,5 1,8 -4,2 -3,2 -5,0 -5,3 -2,5 -9,-4 2,-4 4,-5 4,-3 4,-3 4,-2 3,-4 2,-6 -12,2 4,-4 3,-6 6,2 3,-4 3,-4 3,-5 2,-5 1,-6 1,-6 6,2 3,-5 1,-6 6,1 3,-3 4,-3 6,-1 7,0 3,-4 6,-4 3,-4 0,-7 5,-3 5,-1 4,-1 2,-4 5,-4 4,-3 6,3 5,-4 5,-4 6,2 -4,6 -5,4 -3,7 -6,-4 -5,2 -2,5 -4,4 -4,2 -5,-1 -2,5 -2,6 -6,2 -3,5 -4,4 -5,0 -4,2 -5,0 -3,6 -6,-2 -4,5 -6,4 -2,7 7,2 4,-4 6,2 -1,-7 6,2 3,-5 5,1 4,-2 4,-2 5,-5 4,-5 5,-2 3,-6 4,-4 6,-1 4,-4 5,0 0,-7 7,4 3,-5 4,-1 2,-5 4,-4 3,-1 1,-7 4,-3 5,0 1,-6 7,4 0,-7 -7,-4 6,-3 0,-7 -7,2 -6,5 -1,6 -6,4 -6,-2 5,-5 1,-7 6,-4 5,-5 6,-2 5,1 2,-5 3,-4 1,-7 5,-2 4,-4 1,-6 1,-6 -8,4 -3,4 -5,2 -3,6 -2,5 -4,3 -6,3 -4,5 -5,4 -6,4 -1,6 -4,3 -3,4 -3,5 -5,3 -8,-3 -4,4 -4,3 -5,2 -4,2 -4,3 -4,3 -2,7 -3,1 1,8 -6,-2 -3,5 -5,-1 -4,2 -6,1 -5,3 -5,0 -2,7 -4,3 -6,1 -2,5 0,7 -2,6 -3,5 -4,4 -7,2 0,-9 3,-2 3,-4 3,-5 -9,-3 3,-5 6,1 1,-7 6,-3 4,-2 3,-4 1,-7 -7,-3 -2,4 -5,3 -3,4 -4,5 -4,-1 -3,6 -4,-10 4,-6 5,0 2,-6 5,0 2,-7 8,1 4,-5 4,-3 3,-5 7,-2 3,-6 1,-7 4,-1 7,2 2,-5 3,-3 2,-6 2,-6 2,-4 2,-6 0,-7 -7,0 -2,5 -2,6 -2,6 -3,5 -3,5 -6,-3 -4,2 -2,7 -1,6 -3,5 -6,-2 -2,6 -5,3 -2,5 -5,0 -6,-2 -1,6 -5,2 -3,5 -6,-2 1,8 -7,-4 -1,-8 4,-5 5,1 4,-4 2,-5 2,-6 6,4 4,-1 4,-3 4,-3 1,-7 6,2 4,-4 0,-8"
       id="path20"
       inkscape:connector-curvature="0" />
    <path
       style="fill:none;stroke:#000000;stroke-width:1"
       d="m 938,158 -6,0 -4,2 -6,6 -4,3 -3,2 -7,-1 -6,5 -3,3 -2,5 -7,0 -2,5 -3,5 -7,-6 2,-4 3,-5 2,-5 6,2 0,-7 4,-2 5,1 3,-5 5,0 5,-3 2,-4 6,2 1,-7 6,-1 5,0 3,-5 4,-4 3,-5 8,-3 -1,6 -2,6 -4,5 -3,4 10,0 4,-4 2,-6 2,-6 0,-7 5,-2 5,0 4,-2 7,0 6,3 -6,5 6,3 7,-2 0,-7 3,-5 4,-3 5,-3 1,-7 5,-1 5,0 6,-5 4,-3 6,-5 -5,-2 -6,-2 -4,3 -2,6 -6,-2 0,-8 3,-5 3,-4 7,2 5,0 6,5 0,-7 4,-3 5,-1 5,1 4,-3 4,-1 3,-5 7,-4 6,-4 7,1 0,8 -6,-1 -2,6 -6,-2 -2,6 -5,5 -3,4 -3,1 -7,-3 -3,3 -1,6 -1,7 -6,1 -1,6 -3,4 -6,-2 -5,5 -6,1 0,7 -3,3 -4,2 -4,2 -1,6 -6,4 -4,4 -7,-3 0,6 -3,4 0,8 -3,2 -3,5 -1,6 -3,4 -4,5 -4,-1 -5,0 -3,6 -1,7 -6,-2 -3,5 -3,4 -5,2 7,7 5,-2 4,-3 2,-3 7,2 6,-4 -7,-3 1,-7 6,2 5,0 2,-6 4,-3 4,-3 -1,-7 3,-4 5,9 4,-3 3,-3 5,-2 7,3 3,-4 3,-4 -1,-7 6,2 2,-6 6,-2 3,-5 5,-3 0,-6 7,2 4,-6 -6,-2 -7,-2 -6,4 -1,5 -4,4 -4,3 -4,4 -5,-1 -3,6 -1,6 -4,2 -7,-1 -6,3 -1,-7 4,-4 5,0 3,-4 3,-5 6,-5 4,-2 4,-3 3,-4 1,-7 6,2 0,-7 7,4 5,0 0,-8 3,-5 5,-5 2,-5 2,-5 8,2 4,-4 2,-6 5,-5 7,2 2,-6 7,3 0,-7 0,-7 5,1 5,-1 2,-6 7,4 1,-7 5,-3 1,-6 2,-7 -6,-2 -3,6 -3,3 -3,5 -7,-2 -2,6 -7,-1 1,-7 2,-6 6,1 3,-3 3,-4 3,-4 7,-2 7,3 3,-6 2,-6 -9,3 0,-7 3,-4 6,0 7,-3 -1,6 1,7 -1,6 0,7 -3,1 -2,6 -2,6 0,7 -5,5 -3,5 -4,6 -4,-1 -4,4 -5,0 -1,6 -1,7 1,7 -7,-2 -2,-8 -5,5 -6,-1 -3,5 -3,6 -5,4 -5,-1 -3,5 -5,3 -2,6 -2,7 6,2 3,-6 4,-3 4,-4 5,1 3,-5 6,2 6,-3 -8,-5 4,-4 5,2 5,1 6,0 6,-4 7,2 -1,7 -5,1 -6,2 -6,1 0,7 -5,0 -2,4 -1,7 7,2 3,-4 5,-3 1,-6 6,-1 5,-2 5,-5 1,-6 -1,-7 6,-2 6,0 3,-4 6,0 0,-7 -7,-2 -4,-1 -3,5 -6,1 -4,2 -5,3 -6,-2 2,-7 5,-3 7,-1 3,-4 3,-5 3,-5 5,2 0,7 7,3 0,-7 0,-7 0,-7 -7,3 -1,-7 3,-5 5,2 0,-7 0,-7 0,-7 0,-7 0,-7 0,-7 -7,-4 -8,1 -5,0 -5,-1 -3,4 -2,6 0,7 -3,5 -6,-4 -2,6 -4,3 -3,3 -5,1 -3,7 -1,7 -3,4 -7,-3 -2,6 -5,0 -3,4 -7,3 -3,1 -4,3 -7,0 -5,3 -4,3 -8,0 1,-6 4,-4 4,-2 4,-3 5,1 2,-5 5,-2 6,4 2,-6 4,-4 4,-1 3,-5 6,3 2,-4 4,-5 0,-8 4,-2 5,-2 3,-3 2,-6 7,2 1,-6 2,-6 -10,3 -7,1 -3,4 -3,4 -6,1 -2,6 0,7 -5,3 -5,-2 -3,5 -4,1 -3,5 -3,2 -3,1 -6,1 -4,2 -4,1 -4,3 -5,1 -2,6 -4,5 -6,-2 2,-7 3,-5 -1,-8 6,2 4,-3 6,-3 5,-1 4,-3 6,-2 2,-5"
       id="path22"
       inkscape:connector-curvature="0" />
    <path
       style="fill:none;stroke:#000000;stroke-width:1"
       d="m 1043,28 -9,-1 3,-6 5,-1 3,-4 7,6 -3,5 9,-3 2,-3 1,-7 5,-4 5,-3 -12,-2 -4,5 -4,3 -6,-8 -3,3 -6,3 -4,1 -2,6 -3,5 -1,5 -4,2 -4,4 -5,1 -7,0 -4,5 1,7 -2,6 -2,7 -5,0 -1,7 -3,6 7,3 3,-6 5,-1 7,5 -6,3 -2,5 -3,4 1,7 0,7 -3,5 -1,6 -5,2 -4,4 -3,4 -7,-3 3,-6 3,-5 4,-3 2,-3 3,-5 1,-6 -1,-8 -5,4 -3,5 -4,4 -3,4 -3,3 -1,7 -3,2 0,7 -7,0 -5,0 -4,3 -4,5 -2,-8 -6,3 0,7 -7,-2 -2,6 -4,2 -2,5 -6,1 -4,2 -4,5 -7,1 -3,5 -6,0 -5,4 -6,-3 -2,5 -3,6 -6,0 -1,6 -3,5 -3,5 -8,-5 3,-4 3,-5 2,-6 4,-5 5,0 1,-7 3,-4 3,-6 5,-4 0,-7 5,0 3,-6 7,1 5,-9 -5,2 -7,-1 1,-7 4,-2 6,0 6,3 1,-8 7,3 2,-6 2,-6 5,0 5,-1 5,-1 6,0 4,-1 4,-6 1,-6 6,1 9,-1 -3,4 -5,4 -3,6 -2,5 -2,5 -6,-2 -4,2 -5,-1 -5,3 -4,-1 -3,5 -3,6 -6,-2 -3,7 -3,4 -3,4 -6,5 -5,1 -4,5 -4,7 -3,4 9,-3 5,-5 6,-1 3,-6 7,-1 3,-4 2,-6 4,1 5,-5 3,-4 4,-1 3,-5 7,3 4,-3 7,2 3,-4 2,-7 2,-6 4,-4 5,-3 2,-5 5,-4 -7,-4 3,-5 4,-4 1,-7 2,-6 5,-1 1,-7 0,-7 5,-4 7,-4 7,-3 3,-5 3,-4 4,-4 0,-7 -8,2 -4,4 -3,4 -1,7 -7,-2 -3,4 -6,3 -4,5 0,7 -3,3 -4,5 0,8 -3,4 -4,4 -2,6 -6,0 -3,1 -6,-2 -5,0 -1,7 -2,5 -6,1 -7,1 0,-7 5,-2 2,-4 2,-4 1,-7 5,0 5,0 3,-4 6,6 3,-4 3,-4 3,-5 1,-7 3,-4 1,-6 3,-5 4,-4 5,-2 3,-6 6,-1 3,-4 -10,-3 -6,0 -1,5 -4,2 -4,3 -2,5 -4,3 -1,7 -3,5 -1,6 -3,3 -3,4 -6,-7 3,-5 2,-5 3,-5 2,-5 1,-7 4,-3 3,-5 -14,-2 1,8 -8,-2 -4,4 9,3 -3,5 -3,4 -1,6 -2,6 4,9 -4,1 -5,1 -6,10 -4,7 -4,10 0,7 -6,0 -3,7 -3,4 -7,-2 -1,6 -6,-1 -8,2 -2,8 -3,3 2,8 -5,1 -4,4 1,8 -5,-1 -1,6 -4,2 0,8 -5,2 -4,4 -2,6 -3,4 -3,4 -2,6 -7,-3 -9,-3 3,-4 7,0 2,-5 3,-4 4,-4 3,-6 5,-4 1,-6 3,-5 1,-5 4,-3 3,-5 2,-5 4,-1 -12,-2 -3,5 -4,3 -4,1 -6,-1 -2,6 -2,5 11,-3 -2,5 -1,7 -5,0 -1,6 -5,3 -3,4 -2,6 -5,0 -5,2 -1,7 -3,1 -5,-2 -5,0 -5,0 -5,1 -5,0 -6,2 -5,0 -5,2 -5,0 -3,2 -5,2 -6,1 -4,3 -6,3 -4,3 -5,3 -4,4 -4,4 -4,4 -4,4 -3,5 -4,5 -2,6 -3,5 -2,7 -3,4 -7,0 -1,-8 4,-3 4,-3 0,-8 3,-4 5,-4 1,-7 5,-4 3,-4 4,-4 4,-4 6,-3 3,-5 7,0 4,-5 6,-2 4,-3 3,-4 6,0 5,0 4,-3 6,3 4,-3 1,-5 7,4 5,-1 4,-1 6,1 4,-3 4,-3 4,-2 3,-3 3,-4 5,-1 0,-7 -7,-2 -5,2 -3,4 -4,3 -4,3 -4,3 -5,0 -1,-9 4,-2 4,-3 3,-4 4,-3 5,-2 7,1 4,-1 3,-5 -8,-5 -4,2 -6,0 -5,0 -3,3 -4,3"
       id="path24"
       inkscape:connector-curvature="0" />
    <path
       style="fill:none;stroke:#000000;stroke-width:1"
       d="m 817,117 -4,4 -4,2 -7,-4 -3,4 -5,-1 -5,0 -8,3 -3,3 -5,-2 -4,3 -3,5 -8,-1 2,-6 2,-5 3,-3 5,-3 5,0 6,2 4,-5 5,-1 5,0 5,-2 6,3 4,-2 3,-4 2,-5 -11,0 -5,0 -5,-2 -4,3 -6,0 -5,0 -1,6 -7,-3 -5,0 -4,4 -5,2 -3,5 -1,7 -3,4 -3,5 7,4 -5,4 -3,5 -5,-2 -4,3 -4,-1 -6,1 6,6 -7,1 -1,7 -7,0 -4,7 -5,3 -4,3 -1,7 -3,3 -4,2 0,7 -2,4 -3,3 -5,4 -1,6 -8,-4 1,-6 5,-4 2,-6 4,-5 -6,-3 -5,4 -2,6 -6,2 -2,-8 3,-4 4,-5 4,-4 7,3 5,1 4,-3 2,-5 3,-5 4,-2 5,-2 1,-6 3,-4 5,3 2,-7 -2,-8 6,0 6,-2 4,-1 7,0 -5,-8 4,-2 3,-5 4,-5 -7,-3 -5,3 -3,2 -3,3 -1,6 -6,3 -4,1 3,-9 0,-7 3,-5 7,-3 5,-3 7,3 6,1 3,-5 5,-1 5,-4 7,1 4,-4 7,0 5,-1 6,-2 -12,-6 -3,-8 -5,3 1,7 -6,0 -3,3 -6,-2 -3,5 -5,0 -4,2 -3,3 -6,-2 -6,-1 -3,3 -4,4 -6,3 -3,6 0,8 -3,1 -5,0 -6,-2 -4,4 -5,2 -4,2 -5,4 -6,1 -5,-1 -9,-5 4,-4 7,1 6,0 2,-5 7,-2 4,-2 3,-5 5,1 5,0 2,-5 3,-3 5,-4 5,-4 2,-6 6,-1 5,0 4,1 4,-3 3,-4 5,3 5,-4 5,0 5,-1 4,-7 -5,-1 -6,-1 -5,0 -4,5 -7,-3 -5,-3 -1,7 -4,1 -3,-10 -4,5 -1,6 -5,2 -4,4 -1,6 -5,2 -4,1 -4,2 -2,5 -5,-1 -5,3 -3,4 -4,-1 -1,6 -7,2 -4,2 -6,-2 -4,4 -4,3 0,7 -5,2 -4,5 -2,5 -7,-3 -1,5 -2,5 -5,-9 -3,5 -6,-1 -2,6 -5,4 -1,7 -2,6 -7,4 -3,6 -6,0 -1,5 8,3 6,-4 3,-5 5,0 3,-6 1,-6 2,-6 4,-5 7,1 0,7 -3,3 -3,4 0,7 -4,4 -1,7 -6,-1 -7,5 5,1 5,8 3,-6 6,-4 3,-5 3,-6 2,-6 4,-6 1,-6 2,-5 2,-5 6,3 1,-6 3,-5 4,1 3,-4 5,-1 6,4 -1,7 -5,-1 -4,5 -3,1 -1,6 -3,4 -5,-2 -3,4 0,7 -1,6 -5,-3 -1,7 -3,5 -2,6 -3,5 -3,1 -4,3 6,8 4,-3 5,-4 2,-6 2,-6 4,-5 6,-2 0,-7 1,-6 6,1 3,-6 3,-4 3,-5 5,2 5,1 5,-3 1,-6 -8,0 1,-7 4,-3 6,4 6,2 2,-5 -7,-5 7,-2 5,0 2,-5 7,1 0,7 1,7 -6,-1 -2,4 -1,7 -5,2 -5,-2 0,7 -4,4 -2,4 -6,-1 -6,-2 -4,4 -3,5 -6,3 -1,7 2,8 -7,-2 -5,3 -2,6 -2,6 -3,5 -3,3 -4,3 6,13 1,-5 4,-3 3,-6 3,-5 2,-6 3,-4 5,0 7,3 -2,6 -5,1 -3,4 -3,6 -3,4 -3,6 -2,6 -1,6 0,6 8,-1 0,-7 2,-6 4,-3 2,-6 3,-4 3,-3 5,-3 6,2 -1,6 -4,3 -4,4 -3,5 -3,5 -3,4 0,8 -7,2 -3,4 -4,4 0,10 6,-1 3,-4 3,-4 4,-3 5,-5 1,-5 3,-5 3,-3 2,-4 3,-5 5,-3 5,0 2,-6 -7,-4 5,-4 0,-7 6,-1 3,-4 1,-7 3,-4 4,-4 1,-6 4,1 1,-7 4,-6 5,-2 6,-4 4,-2 4,-5 4,-3 6,0 5,-4 3,-3 4,-3 3,-3 8,2 2,-6 5,-1 6,-1 2,-6 7,3 5,0 6,-3"
       id="path26"
       inkscape:connector-curvature="0" />
    <path
       style="fill:none;stroke:#000000;stroke-width:1"
       d="m 806,129 1,8 -1,6 -5,-1 -7,-3 -1,6 -4,1 -6,-1 -3,3 -8,0 -5,4 -4,4 -5,2 -4,5 -5,0 -5,3 -3,5 -6,1 -3,4 -4,3 -4,1 0,7 -4,5 -3,5 -4,2 -3,6 -1,6 -4,4 -4,3 2,8 -1,6 -4,5 -7,0 -2,5 -3,5 0,7 -6,-1 0,8 -6,1 0,7 -4,1 -4,4 -2,6 -6,-2 -6,3 -3,4 10,1 -2,6 -5,2 -4,4 -4,3 -3,3 2,10 5,0 3,-5 4,-2 2,-5 5,-2 3,-4 1,-6 4,-1 2,-7 3,-4 6,-2 1,-6 5,-1 0,-7 6,1 0,-8 2,-5 3,-6 7,-3 5,-2 7,0 -1,8 -3,3 -7,-2 -5,5 7,3 7,2 0,7 1,8 2,8 1,7 -7,-3 -5,-1 -5,5 7,3 7,2 7,3 -1,6 -7,-2 -7,-2 -6,-2 -4,4 -2,5 -3,4 0,7 -3,4 -4,4 -4,4 -2,6 -6,-7 -4,3 -7,2 -4,5 -7,1 0,-7 4,-3 6,-3 3,-4 6,-2 6,1 5,-4 3,-5 2,-6 -6,-4 7,-3 2,-4 4,-3 1,-6 5,-5 2,-7 7,2 0,-6 -1,-7 -7,-2 -1,5 -5,5 -1,7 -5,1 -3,6 -4,1 -1,7 -4,-1 -3,6 -3,5 7,4 -3,6 -6,-2 -4,-1 -3,4 -5,3 -3,4 -6,2 -5,0 -6,-8 -3,5 -3,5 -2,5 -5,1 -1,8 -6,-3 -11,4 0,8 -4,4 -8,-5 -4,7 -5,0 -4,5 -5,-1 -9,-1 -5,0 -3,1 -3,5 -6,-7 -4,3 -8,-5 0,6 0,8 -4,2 -1,7 -5,-1 -2,5 -4,3 -3,4 0,7 -7,3 -5,3 -2,5 0,7 -3,3 -2,7 -5,-1 -4,3 -3,5 -2,7 -3,3 -1,6 -7,-2 -6,-1 6,-6 2,-6 4,-4 2,-6 3,-5 3,-4 6,1 1,-7 2,-5 1,-6 4,-3 3,-4 5,2 2,-6 2,-7 4,-3 2,-6 4,-2 3,-4 3,-4 -9,-5 -3,4 -4,3 -2,6 -4,2 -1,7 -3,4 -7,1 -2,5 -4,7 -2,6 -2,6 -7,3 -1,-7 -5,-2 -3,4 -5,1 -3,1 -2,7 6,2 6,-1 4,1 -3,7 -4,3 -2,5 -2,6 -4,6 -1,6 -7,-3 -5,0 -5,0 -3,3 -7,-3 -5,0 -5,0 -3,3 -7,-3 -5,0 -5,0 -3,3 -7,-3 2,-8 7,-2 6,1 7,1 7,-2 6,1 0,-7 6,1 1,7 7,-2 6,1 6,1 4,-4 2,-6 1,-7 -7,-1 -2,6 -4,3 -6,-2 -5,0 5,-8 4,-1 1,-6 6,0 1,-7 1,-7 4,-3 5,1 4,-4 6,0 7,6 1,-6 5,-5 1,-7 2,-6 6,2 3,-5 1,-7 5,-3 3,-7 4,-4 -10,3 -5,3 -4,4 -1,6 -7,0 -4,5 -2,-8 6,-4 2,-7 0,-6 6,2 6,-3 -7,-5 -7,-2 -5,-9 -4,2 -6,-1 -2,6 -4,1 -6,-2 -6,0 -5,4 -3,5 -3,2 -6,-2 -6,-2 1,8 -2,5 -1,7 -6,3 -5,3 -2,5 -2,6 -3,4 -6,2 -1,6 -5,0 -6,-1 -6,-2 -7,0 -5,0 -6,-3 5,-6 1,-5 -8,2 -4,1 -3,4 -4,5 -6,-2 -2,7 -4,2 -7,0 0,-7 4,-3 2,-5 2,-5 7,4 3,-5 3,-5 2,-5 7,6 0,-6 1,-6 1,-7 7,0 1,-5 4,-4 4,-3 6,-3 3,-5 1,-7 4,-2 6,-2 6,2 3,-4 4,-3 7,4 -1,7 -3,2 -2,4 -5,0 -5,4 -2,-8 -5,3 -2,6 -1,6 -6,1 -4,4 -4,3 -2,6 -5,3 -3,2 0,7 7,0 4,-4 5,-4 3,-3 3,-4 4,-3 6,-4 1,-5 7,3 0,7 -7,2 -4,6 -3,5 -3,5 -4,1 -4,3"
       id="path28"
       inkscape:connector-curvature="0" />
    <path
       style="fill:none;stroke:#000000;stroke-width:1"
       d="m 390,369 -7,2 -1,6 8,1 5,0 4,-3 5,-2 3,-4 2,-5 2,-6 5,-2 6,-1 1,-6 1,-7 -6,-6 6,-1 4,-5 7,2 6,-1 5,-3 2,-5 5,0 6,0 5,0 3,-5 5,0 -4,-9 -6,0 -4,4 -3,1 -6,0 -6,-2 -2,6 -3,5 -7,1 0,-7 3,-4 1,-6 4,-4 7,2 7,-2 4,-3 5,0 -3,-9 -7,0 -4,3 -3,4 -7,-3 -5,-1 -3,4 -3,5 -2,3 -7,-3 -7,0 -5,4 -7,0 -4,1 -5,2 -3,5 0,6 -3,5 -5,0 -4,4 -4,3 -3,6 -7,-2 -5,5 6,3 -2,6 -6,0 -3,3 -1,6 -3,4 -7,-3 0,-7 4,-2 -1,-8 3,-1 5,-1 -4,-10 5,0 3,-4 6,2 5,0 1,-8 4,-1 3,-5 5,0 0,-7 4,-3 -5,-9 7,3 4,-1 4,-2 6,2 5,0 3,-5 6,1 6,0 3,-2 3,-5 1,-6 6,3 7,3 5,-3 6,-2 5,0 1,-6 -2,-9 -5,3 -4,3 -4,3 -4,3 -8,-4 3,-5 4,-3 5,-3 4,-3 8,-1 1,-6 -8,1 -8,-1 -4,4 -6,3 -4,4 -2,6 -3,5 -2,6 -4,2 -4,1 -6,0 -5,4 -8,-2 -6,1 7,-7 5,0 6,-5 6,-2 4,-2 2,-6 2,-5 5,-4 5,-4 3,-4 3,-4 5,2 4,-1 2,-7 5,1 -1,8 7,-1 2,-5 1,-6 -8,-3 5,-5 6,2 1,-6 3,-4 3,-5 2,-6 3,-4 3,-4 4,-3 4,-3 4,-4 4,-3 4,-3 5,-3 4,-3 5,-1 4,-2 5,-2 0,-6 7,4 5,-2 5,0 6,-1 4,-1 5,0 5,0 6,1 5,0 5,0 5,2 5,0 6,3 0,-8 5,-3 5,0 7,-4 3,-6 -7,-3 -3,6 -8,-2 -6,3 -3,5 -5,-1 -6,-2 -6,0 -6,0 -5,0 -6,-1 -6,0 -6,2 -4,1 -5,-2 -3,4 -5,-8 -3,5 -4,6 -5,1 -4,2 -4,3 -4,4 -5,2 -5,4 -4,4 -5,3 -4,3 -3,4 -4,3 -1,7 -3,4 -3,4 -3,5 -5,2 -3,4 -4,5 -6,6 0,-7 -6,-1 -1,7 -4,4 -3,5 -3,4 -4,4 -4,1 -2,6 -3,5 -5,4 -5,-1 -1,6 -8,0 2,-7 1,-8 7,1 5,-3 0,-7 -6,-2 -3,4 -4,-8 2,-6 3,-4 6,0 4,1 -4,7 6,3 5,-2 3,-4 5,-3 2,-6 2,-5 4,-5 3,-4 6,6 4,-2 2,-6 4,-1 4,-3 2,-6 3,-4 3,-4 3,-6 4,-5 4,-3 4,-1 4,-4 5,-2 3,-5 4,-1 3,-4 4,-3 6,-3 6,0 0,-7 3,-3 2,-6 4,-3 2,-6 5,-5 6,2 5,-1 2,-5 3,-6 3,-6 -7,-2 -4,5 -3,5 -5,0 -6,6 -6,1 -2,5 -4,6 -3,3 -4,2 1,7 -7,-3 0,6 -6,2 -4,3 -5,7 -5,2 -4,4 -6,-1 -2,4 -8,-3 -2,6 7,3 -4,6 -4,2 -2,5 -3,5 -3,3 -4,2 -3,7 -7,-3 2,-6 1,-6 4,-3 4,-3 3,-5 4,-6 -6,-2 -5,0 -2,5 -4,4 -5,2 -1,6 -2,5 -6,2 -1,5 9,2 -2,6 -4,2 -2,5 -2,6 -3,4 -5,-3 -7,-4 -5,1 -5,0 -3,5 -5,-11 3,-4 5,0 5,0 8,3 5,1 2,-5 1,-6 -7,-2 -4,3 -6,-2 -7,-2 -6,-1 -3,4 -7,-7 2,-5 0,-7 -7,-2 -1,6 -6,-5 -9,-6 6,-2 4,-2 7,2 6,2 3,-5 6,-1 7,0 6,0 4,-2 5,1 2,-6 2,-6 -6,-3 -4,4 -5,0 -4,3 -5,0 -4,1 -6,1 -5,2 -3,1 -8,-2 1,-7 4,-3 5,1 5,-1 1,-6 6,3 5,0"
       id="path30"
       inkscape:connector-curvature="0" />
    <path
       style="fill:none;stroke:#000000;stroke-width:1"
       d="m 382,157 4,-3 5,1 1,-7 6,4 2,-6 8,-1 -1,5 -2,6 7,4 3,-4 0,-8 2,-3 7,3 4,1 6,2 1,-6 6,1 5,-3 -7,-5 6,-2 3,-4 -1,-8 4,-3 3,-5 8,-2 -1,6 -2,6 -4,4 -1,7 0,7 7,3 0,-7 2,-5 3,-5 3,-6 6,3 4,-3 1,-6 -10,-1 3,-4 3,-5 7,-1 0,6 7,-2 1,-6 -1,-7 7,-3 0,6 7,-2 1,-7 5,0 3,-1 6,2 0,-7 -8,-4 3,-5 4,-3 3,-3 4,-2 7,3 6,1 1,-6 1,-7 4,-4 4,1 6,2 4,-3 4,-2 6,0 3,-3 3,-6 7,2 -3,6 -1,6 -5,4 -4,1 -6,1 7,6 -7,1 -2,6 0,7 -8,3 1,-7 0,-7 3,-6 -7,-3 -3,5 0,7 -1,6 -5,0 -6,-2 -6,-3 -5,6 5,2 7,3 -2,6 -6,-1 -1,6 -5,3 -5,-1 -5,0 -1,7 -5,0 -5,1 -3,4 -1,7 -5,0 -3,3 -2,6 -3,4 -4,3 -6,-3 -3,6 6,3 -6,4 -2,4 -6,4 -6,-2 -5,-1 -3,4 -6,-2 -3,5 -7,-1 -7,-2 -4,2 0,7 -4,4 -4,1 -3,4 -1,6 -4,4 -5,0 -2,6 -6,-7 -7,0 -6,1 -1,6 -1,6 8,2 1,-6 5,-1 2,8 6,-1 6,1 1,-6 6,0 2,-4 3,-5 2,-6 5,-1 3,-5 2,-6 5,1 6,2 5,0 2,-6 7,3 3,-5 7,2 5,-4 6,-1 2,-7 6,-3 3,-4 5,-4 2,-6 4,-3 5,0 1,-7 3,-5 5,0 5,-1 1,-7 6,1 5,-4 6,-5 6,2 0,-7 3,-6 5,1 -2,8 7,0 3,-5 4,-5 7,-2 0,-7 4,-2 5,-2 1,-6 4,-2 3,-3 1,-7 2,-5 6,2 1,7 -3,5 -2,7 -5,3 -2,7 -5,2 -3,4 -2,6 -5,1 -4,3 -3,4 -7,2 -5,2 1,7 -3,5 -1,7 -2,3 9,0 5,0 7,0 6,0 3,-3 6,2 2,-4 7,2 4,-3 6,3 6,-4 -6,-3 3,-6 3,-4 6,0 2,-5 7,1 2,-3 7,3 5,0 3,-3 1,-6 4,-4 4,-5 5,1 -2,7 -3,6 -2,6 -2,6 -6,1 -6,-1 -4,2 -7,-3 -3,6 -5,0 1,7 -4,5 -4,4 -8,-2 -7,1 -3,4 -6,-1 -4,4 -4,-1 -5,0 -5,0 -6,-1 -5,0 -6,0 -5,-1 -5,0 -7,-2 -3,4 -5,8 5,0 6,2 3,-4 5,3 5,-1 5,0 6,1 5,0 5,0 6,1 5,0 6,-1 4,-4 7,2 2,-6 7,1 5,2 5,-4 3,-5 5,-5 3,-1 1,-7 6,4 5,-2 5,1 4,-3 5,-4 2,-6 2,-6 4,-2 0,-7 0,-7 6,-2 7,3 -5,5 -1,6 8,0 3,-1 2,-7 1,-6 6,3 3,-2 5,-2 4,-3 4,-4 3,-4 5,3 1,-7 3,-1 4,-3 3,-3 4,-5 3,-5 6,2 6,1 5,-3 3,8 4,-5 7,0 5,0 1,-6 -8,-3 -8,1 3,-4 6,-5 -2,-10 -3,1 -2,6 -7,3 -3,5 -4,3 -6,-1 -7,-3 -3,5 -3,5 -4,3 -5,3 -6,-1 0,7 -6,2 -2,5 -4,2 -4,3 -5,0 -5,0 -4,5 -5,-2 2,-8 3,-5 5,0 5,0 4,-3 4,-4 4,-1 0,-7 6,-2 5,0 4,-4 3,-3 3,-4 7,-4 7,3 5,-2 3,-5 6,1 3,-6 -7,-3 2,-7 6,2 7,2 -1,-8 1,-9 -4,1 -4,6 -2,-8 -5,5 -6,-2 1,8 -1,7 -2,6 -4,3 -5,-1 -7,-3 0,7 -7,0 -4,4 -3,5 -6,0 -4,3 -4,5 -4,5 -4,3 -5,0 -5,-3 -3,4 -3,5"
       id="path32"
       inkscape:connector-curvature="0" />
    <path
       style="fill:none;stroke:#000000;stroke-width:1"
       d="m 661,67 -1,7 -2,7 -4,3 -7,-3 2,-6 4,-3 1,-7 1,-7 3,-4 3,-5 6,1 6,1 5,-2 4,-5 2,-6 7,-1 4,-2 3,-4 5,-3 3,-1 2,-7 6,2 6,1 4,-3 0,-7 0,-7 -7,3 -2,5 -6,-2 -6,-2 -7,-4 0,8 5,3 -6,4 -4,3 -4,3 -4,4 -5,5 -4,5 -7,1 0,-7 4,-3 2,-6 4,-2 3,-4 3,-4 5,-2 1,-7 -5,-3 -4,4 -6,3 -3,4 -4,7 -4,3 -2,8 -1,7 -5,0 -2,6 -4,3 -1,7 -1,7 -3,3 -3,5 -6,-2 -6,-1 -4,3 -4,2 -3,6 -5,0 -6,0 -3,3 -4,5 -3,6 7,3 3,-6 6,-3 6,2 5,-1 2,-6 4,-2 4,-3 7,2 -2,7 -5,3 -4,4 -3,5 -5,0 -7,-2 -4,3 -7,4 -5,0 -3,3 -6,-2 -4,5 8,3 -3,6 -6,-1 -3,3 -6,-2 -5,2 -5,1 -5,3 -6,0 1,-8 5,-3 7,-2 4,-3 5,1 2,-5 3,-4 2,-5 6,0 -1,-7 3,-4 4,-5 2,-6 5,-3 3,-1 6,1 3,-5 4,-3 3,-3 6,1 2,-3 4,-5 3,9 3,-6 0,-7 3,-4 2,-6 3,-3 4,-4 2,-5 3,-3 2,-8 7,-1 -2,-9 -5,2 -6,-2 0,8 -4,2 -3,1 0,7 -4,3 -4,2 -1,6 -2,5 -3,4 -5,5 -5,1 -6,1 -4,3 -3,3 -2,5 -8,-2 2,-6 1,-6 4,-3 5,-2 5,-1 4,-2 6,1 0,-8 3,-3 3,-5 0,-8 5,1 2,-5 4,-8 -5,0 -6,1 -4,2 -5,0 -5,-1 -8,2 -5,3 -5,1 -4,3 -4,2 -5,1 3,-12 -5,2 -5,0 1,8 -1,7 -7,-1 -7,-1 0,-8 7,2 -1,-7 -7,-3 -6,5 -5,-2 -7,-3 -3,4 -8,0 -5,1 -7,-2 -1,13 6,1 1,-5 7,3 4,-1 4,-3 7,-2 8,4 -3,5 -5,0 -4,3 -5,3 -6,-1 -7,1 -6,1 0,9 -4,5 -3,8 7,2 3,-4 3,-5 0,-7 6,-1 5,0 6,2 3,-5 7,0 3,-1 4,-5 7,1 7,1 7,2 2,-6 6,1 5,-2 5,-2 5,-1 3,-1 3,-5 4,-3 8,3 -3,5 -4,4 -2,5 -6,1 -4,2 -4,2 -4,2 -6,-2 1,7 0,7 -7,-2 0,-7 -7,-2 -5,0 -7,-2 -2,6 -4,3 -5,-3 -3,4 -4,3 -6,-3 -6,0 -2,6 -3,6 -2,6 -7,-3 -7,-1 -4,4 -4,4 -3,5 -2,8 -5,1 -1,7 -7,-3 -3,4 -6,2 1,8 -6,-1 -5,1 -4,5 -5,3 -6,-4 -3,5 -8,3 -4,3 -3,2 2,8 -3,5 -6,-1 0,7 -5,4 -7,-2 -6,-2 -6,1 -7,0 -4,1 -6,2 -6,5 -6,-3 -2,5 -5,0 -9,4 1,-6 1,-6 6,-1 5,-5 8,4 4,-5 3,-3 2,-5 6,-4 6,2 -5,7 5,0 7,-2 7,3 6,2 -1,-8 4,-4 5,0 -2,-8 -7,-1 -4,4 -3,6 -6,-2 3,-7 -6,-2 -4,4 -7,-3 -4,-1 -2,6 -5,1 -3,3 -2,5 -3,3 -8,-2 -3,4 -6,1 -4,2 -1,5 0,7 -1,6 -5,3 -1,7 -1,6 -1,5 -4,2 -5,2 -7,-3 1,-7 4,1 4,-4 0,-7 3,-4 3,-6 3,-4 0,-7 -8,0 -1,7 -4,3 -3,5 -1,6 -5,0 -2,7 -1,7 -8,-2 2,-6 1,-7 -1,-7 7,-1 4,-6 3,-6 2,-5 6,-2 4,-2 5,1 4,-4 5,-1 4,-1 4,-4 6,2 3,-4 3,-5 3,-3 5,0 -6,-10 -7,2 -3,6 -3,4 -4,-1 -5,3 -7,2 0,-6 3,-5 3,-4 4,-2 4,1 4,-6 -5,-3 -6,-2 -5,1 -3,4"
       id="path34"
       inkscape:connector-curvature="0" />
    <path
       style="fill:none;stroke:#000000;stroke-width:1"
       d="m 350,91 -3,4 -2,5 -4,2 -6,-1 3,-10 -4,1 -5,2 -4,2 -6,-2 -3,4 -7,0 -7,-2 -5,2 -3,4 -5,2 -7,-2 -5,3 -3,4 -6,-3 -5,1 -1,6 8,1 0,7 -4,2 -3,3 -6,-1 -5,0 -3,6 -4,5 -6,-4 -4,3 -4,-1 -5,4 -4,3 -5,-1 -2,5 -6,6 -5,2 7,6 4,-6 7,-1 4,-1 4,-3 2,-6 6,8 2,-6 4,-1 7,-3 5,-5 5,0 5,0 6,1 1,-5 4,-5 1,-7 4,-2 2,-5 4,-2 8,1 6,0 2,-4 4,-2 7,0 -2,8 -3,4 -1,5 -7,-3 -7,-1 -4,3 -2,5 -5,1 -4,7 7,1 6,0 5,-1 0,-7 6,0 1,8 6,-5 6,1 1,-6 2,-4 0,-7 2,-6 3,-4 6,2 7,4 6,0 1,7 -7,0 -5,4 -2,-8 -4,5 0,7 -2,7 -2,7 -5,2 -6,-3 -1,7 1,8 -2,5 0,8 -5,0 -6,-1 -7,-4 -2,3 -5,0 -5,0 -5,0 -5,1 -5,0 -5,2 -7,2 -4,2 -6,3 -5,2 -4,3 -4,2 -3,3 -4,3 -5,4 -4,5 -4,4 -3,4 -7,-5 -2,6 -3,4 10,1 -3,5 -3,5 -2,5 -1,6 -3,5 -1,6 -1,6 0,7 -1,6 -4,6 -3,4 9,-2 0,7 -5,3 -7,-2 -4,6 -5,4 -3,4 -3,3 -6,-2 -6,1 -6,3 0,6 -7,2 -4,4 -8,1 -4,-1 -6,-1 11,-5 3,-3 5,-3 3,-1 -1,-8 7,2 4,-4 5,-2 5,0 4,-3 4,-1 5,-4 1,-7 3,-4 1,-6 5,-1 1,-7 -8,-1 1,-6 5,-1 3,-3 2,-7 2,-7 0,-7 3,-4 -11,-3 4,-3 3,-5 2,-5 3,-4 4,-4 6,3 3,-2 6,-3 4,-5 3,-6 2,-5 5,-1 4,-2 6,-2 5,-1 4,-5 8,1 4,-4 1,-6 6,3 5,0 5,-1 5,0 4,-2 6,0 7,4 5,0 2,-5 3,-6 -6,-2 -5,2 -3,1 -7,-3 -5,0 -6,1 -5,1 -5,0 -6,-1 -6,4 -3,5 -3,2 -8,2 -5,1 -5,3 -6,-1 -4,3 -5,4 -1,6 -3,5 -4,3 -4,1 -6,-1 -5,3 -4,3 -3,5 -2,6 -4,2 -2,6 -2,6 -5,-2 -3,4 -5,0 0,8 6,2 5,-1 4,-3 7,-2 -1,6 -2,6 -4,3 -4,1 -2,6 -5,-9 -3,4 0,6 -5,-1 -1,6 -3,5 -6,-3 1,-7 2,-5 3,-6 4,-5 -6,-3 1,-7 2,-4 1,-7 5,0 4,-4 4,1 3,-5 2,-6 4,-2 2,-6 4,-4 4,-3 4,-3 5,0 6,-1 4,-3 -1,-8 -5,0 -4,3 -5,0 -6,-1 -3,4 -4,3 -3,5 -4,5 -5,4 -2,6 -4,1 -4,5 -7,0 -1,7 -4,2 1,8 -6,-1 -4,3 -4,5 -4,5 -7,-2 3,-6 4,-5 4,-6 5,-3 1,-6 5,-3 1,-7 6,2 4,-2 0,-7 6,1 5,-5 3,-4 3,-6 3,-5 3,-3 0,-7 6,3 5,0 5,0 4,-3 4,-5 4,-3 6,1 -1,-8 4,-4 6,0 5,-2 4,-5 4,-1 5,0 6,2 3,-4 5,-5 6,0 -1,-7 0,-7 5,-4 7,0 6,-1 6,-3 7,1 4,-3 3,-4 7,0 6,2 5,0 2,-6 6,2 6,-1 4,-3 4,-1 4,-4 4,9 4,-4 4,-5 -6,-3 0,-7 -6,-9 -3,4 1,7 -5,3 -7,1 -4,4 -7,-1 -6,4 -5,0 4,-9 5,-3 5,1 3,-5 5,2 3,-4 1,-6 3,-5 4,-3 -5,-11 -3,4 -3,4 -3,5 -2,5 -5,-1 -3,5 -6,-2 -2,5 -4,2 -1,6 -4,2 1,8 -5,0 -5,4 -4,3 -7,-4 -1,7 -6,-1 -3,1 -5,0"
       id="path36"
       inkscape:connector-curvature="0" />
    <path
       style="fill:none;stroke:#000000;stroke-width:1"
       d="m 258,90 -5,3 -6,-2 -6,-2 -6,-2 -1,6 -6,4 -7,-2 -7,-2 1,-7 5,1 6,2 2,-6 -8,-4 3,-5 5,2 0,-8 2,-6 -6,-7 5,-1 2,-6 6,-3 4,-3 8,-3 -2,5 0,7 -3,4 -5,-1 -3,4 1,7 7,-2 7,2 2,-4 1,-7 1,-6 1,-6 5,-3 6,-1 4,-2 4,1 4,-4 5,0 4,-3 3,-3 3,-4 4,-6 2,8 5,-4 2,-5 6,0 6,-4 0,7 -5,5 -3,5 -2,4 -4,2 -6,-2 1,8 -5,-3 -4,3 -3,3 -6,-2 -6,3 -8,0 -5,3 -1,7 7,3 3,-3 4,-3 8,-2 -1,6 -4,5 -2,6 -5,0 -7,-3 -5,0 -1,7 -7,1 -6,0 -4,2 -7,-2 0,7 7,2 7,3 3,-4 6,-1 7,1 1,-6 5,1 6,2 5,-1 3,-6 1,-6 5,-3 0,-7 4,-1 3,-5 7,1 3,-5 5,0 3,-5 3,-5 2,-5 5,0 1,-6 -1,-8 0,-7 -7,-3 -8,2 -5,0 -5,0 -3,3 -7,-5 -6,0 6,8 -4,3 -4,3 -3,4 -5,0 -4,3 -6,0 -4,3 -3,1 -4,3 -5,-1 0,-9 2,-5 5,1 5,-2 5,0 5,-3 5,-2 4,-4 -12,-3 -4,2 -4,1 -6,1 -7,-1 -4,4 -6,-4 -5,0 -3,5 -3,2 -5,2 -2,6 -3,4 -6,4 -5,-1 -4,5 -6,2 -4,5 -6,-1 -3,3 0,7 -2,6 -5,0 -4,-1 -5,1 -4,1 -6,0 -5,-2 -3,5 -3,5 -4,4 -1,7 -4,3 -4,3 -4,2 -4,1 -6,-2 -3,5 -6,1 -1,7 7,3 4,-2 3,-5 7,1 -1,6 -2,6 -5,2 -7,-1 -2,6 -6,3 -5,2 -5,1 -3,5 -7,-2 -5,0 7,-7 4,-5 6,-1 7,0 2,-6 -8,-2 1,-6 2,-6 2,-7 6,-1 2,-6 6,0 5,0 5,-2 4,-3 2,-5 3,-4 4,-4 4,-5 8,-4 4,-1 5,0 6,-2 6,2 3,-5 -7,-4 4,-6 6,0 6,0 6,-3 5,-2 4,-6 2,-6 6,8 2,-6 4,-3 3,-7 -7,-2 -5,4 -7,-2 -4,4 0,8 -4,-1 -4,3 -3,4 -7,-2 1,-7 4,-4 5,-4 -8,-4 -5,3 -3,4 -1,6 0,7 -4,5 -2,7 -4,3 -7,-2 1,-7 4,-3 0,-7 5,1 1,-7 -1,-9 -4,1 -4,4 -4,4 -1,6 -3,5 -1,6 0,7 -1,6 -7,2 -3,4 -4,3 -4,5 -3,4 -3,4 -7,0 -5,1 -5,4 -2,3 -5,5 -1,7 -4,4 0,7 -1,5 -6,4 -3,6 -5,0 -3,5 -4,-1 -5,1 -6,-3 2,-7 6,-1 0,-6 7,3 4,-2 5,-3 1,-6 2,-6 3,-6 1,-7 5,-2 1,-8 5,-1 5,-4 7,0 4,-3 4,-4 3,-2 4,-6 2,-5 7,1 2,-5 -1,-7 3,-5 1,-7 2,-5 2,-6 -9,2 -3,5 0,7 -4,3 1,8 -3,1 -5,3 -2,7 -6,0 -2,6 -4,3 -4,2 -8,-4 1,7 -6,-1 -3,2 0,7 -4,2 -2,6 -2,5 -1,7 -4,2 0,7 -5,2 -8,-1 -5,0 6,-6 4,-2 1,-6 5,-5 1,-7 3,-5 -9,-3 3,-5 7,1 3,-3 3,-7 4,-1 0,-7 7,4 6,1 4,-3 3,-5 6,-1 1,-6 5,-2 2,-7 3,-6 -1,-7 -6,3 -2,7 -4,3 -4,3 -2,5 -5,2 -3,4 -4,1 -7,-4 0,-7 5,0 4,-3 4,-2 3,-5 4,-3 4,-3 -14,-1 -4,4 -5,2 -4,2 -5,4 -7,-2 4,-6 -6,-2 -6,1 -8,-3 -4,4 -3,5 -7,-7 -1,6 -1,6 -2,5 -4,2 -4,2 -7,-4 2,-6 4,-3 4,-3 L 35,5 27,4 23,7 19,9 11,5 6,9"
       id="path38"
       inkscape:connector-curvature="0" />
    <path
       style="fill:none;stroke:#000000;stroke-width:1"
       d="m 6,9 1,9 6,-3 5,0 0,9 -4,2 -4,3 -2,5 -1,7 0,10 6,-4 2,-6 2,-6 6,-1 3,-3 7,7 4,-2 4,-1 3,-4 4,-5 2,-6 8,-3 3,-4 7,3 -2,6 -3,5 -6,-3 -3,6 -3,5 -3,6 -5,3 -6,2 -7,-2 -6,-2 -3,5 -1,8 -5,1 -5,3 0,9 -4,3 5,8 5,-1 0,-7 2,-5 4,-1 5,-2 0,-7 2,-5 7,3 6,1 4,-3 6,-3 3,-5 4,-4 2,-6 6,3 4,-3 1,-6 3,-4 5,-1 2,8 -3,4 -2,7 -4,3 -7,-1 -2,5 -3,4 -3,4 -6,1 -4,5 -6,0 -7,-2 0,6 -3,5 -4,2 -4,2 -1,6 -4,5 -5,1 -6,0 -1,7 -2,8 7,5 1,-6 2,-7 7,0 5,-3 4,-1 0,-8 6,-2 3,-5 3,-4 6,2 3,-1 3,-6 5,-2 6,-3 2,8 -5,4 -4,3 -3,6 -7,-2 -5,4 -6,3 0,7 -3,6 -4,1 -4,2 -7,-1 0,7 7,1 7,3 3,-4 5,-5 3,-5 1,-6 5,-5 1,8 7,2 -5,6 -4,3 -5,5 -2,5 9,-2 -1,6 8,-1 0,7 7,4 1,-6 5,-1 6,2 -3,7 -3,5 7,8 2,-5 1,-6 4,-4 5,0 5,1 5,-5 5,0 4,-2 4,-2 4,-3 2,-6 7,1 5,-2 2,-8 3,-6 -2,-8 5,-1 4,-2 3,-2 0,-7 2,-5 4,-5 3,-5 7,0 0,8 -2,4 -5,2 -1,7 0,7 -4,4 -3,4 -3,1 -2,5 -2,5 -3,4 -1,6 -4,3 -7,-2 0,7 -5,1 -5,3 -2,5 -6,-2 -5,0 -3,6 -5,-1 -5,0 -2,5 -1,7 -2,5 7,6 2,-6 2,-5 3,-1 5,0 3,-6 5,0 6,2 4,-2 1,-7 5,-2 5,-4 5,1 4,-3 4,-1 0,-7 3,-1 7,-4 -7,-4 3,-5 4,-4 3,-4 4,-4 -2,-9 5,-1 3,-1 5,0 5,-4 4,-6 -6,-2 -7,3 0,-6 1,-7 6,2 5,0 5,-1 1,-6 1,-6 2,-5 6,-3 5,-4 6,-3 6,2 3,-5 6,-2 3,-5 2,-5 5,-2 4,-4 5,1 0,7 -1,7 -4,-1 -4,3 -3,5 -6,2 -3,4 -4,5 -6,-3 -6,2 -3,5 -4,1 -2,7 -1,6 -2,7 -5,0 2,8 -4,3 -5,4 -4,5 -4,3 -4,-1 0,8 -4,3 -5,6 6,2 6,-2 3,-6 5,-2 4,-2 2,-4 3,-4 4,-3 4,-3 0,-7 3,-5 2,-6 1,-7 4,-1 3,-5 3,-4 8,4 -2,5 -4,4 -2,6 -4,1 -1,7 -1,6 -2,3 -2,6 -1,6 -5,0 -4,3 -4,6 -3,4 -5,0 -1,6 -6,0 -6,2 -5,0 -7,1 -2,6 -1,7 -1,6 -5,-3 -4,2 -7,-2 -4,5 -3,3 0,7 -4,1 -7,-1 -6,-1 -4,5 -5,2 -3,4 -2,6 -6,1 6,9 5,0 2,-6 3,-5 4,-2 4,-4 4,1 5,-2 8,1 5,0 -1,-8 2,-6 5,0 0,9 6,1 1,-8 5,1 3,-6 1,-7 1,-6 4,-3 7,1 5,-1 5,0 5,0 1,-6 5,0 2,-4 1,-7 5,-2 5,0 4,-2 1,-5 0,-7 7,3 5,0 7,3 6,2 -1,-8 7,-3 7,3 -1,7 -6,-2 1,8 -7,2 -7,-2 -5,0 -6,-2 2,8 -4,3 -5,1 -6,0 -3,3 -1,7 -6,2 -2,7 -5,1 -5,0 -5,0 -7,-2 -3,5 -2,5 -2,6 -3,6 -5,1 0,7 -6,-1 -5,1 -1,6 -5,-1 -3,6 -2,6 -5,5 -3,3 -2,7 -4,3 -4,3 -3,5 -7,-3 2,-6 2,-5 4,-3 4,-3 2,-6 4,-4 4,-3 4,-8 -5,1 -7,1 -4,4"
       id="path40"
       inkscape:connector-curvature="0" />
    <path
       style="fill:none;stroke:#000000;stroke-width:1"
       d="m 116,179 -4,3 -1,6 -5,3 -7,-1 3,8 -4,3 3,9 -6,8 4,-1 7,2 6,2 -5,6 -5,0 -5,1 -3,7 -2,5 -3,5 0,8 6,2 2,-6 3,-4 1,-7 4,1 5,-1 3,-1 2,-7 5,0 7,2 6,3 1,-7 3,-6 6,-3 2,8 -4,4 -1,7 -1,7 -7,4 -6,-1 6,-6 -6,-2 -6,-1 -1,7 -7,0 -5,2 -1,6 -3,4 -3,5 -6,0 -3,4 -2,5 -5,3 -2,7 6,2 4,-4 5,-5 3,-4 7,-1 2,-5 4,-4 2,-5 4,-2 7,1 -1,6 -4,4 -3,5 -3,4 -1,7 -6,-3 -4,3 -5,3 -3,5 -8,2 -3,4 -2,5 -5,3 -2,5 -3,5 -7,1 -2,5 -6,2 0,9 -4,4 -6,3 -1,-8 3,-4 2,-6 4,-6 2,-4 5,-3 5,-1 1,-6 4,-4 4,-3 2,-6 -11,1 4,-4 1,-7 3,-3 4,-6 3,-4 3,-6 -6,-3 -5,3 -2,8 -5,0 -2,8 -2,5 -4,4 -2,7 6,2 -4,6 -4,2 -4,1 -3,5 -2,5 -3,5 -2,5 -7,-3 -6,-1 -3,4 -5,1 -6,3 -1,-8 2,-6 4,1 3,-4 6,1 7,1 4,-4 2,-6 2,-4 3,-5 4,-2 0,-7 -14,6 -4,1 -6,3 8,5 -3,5 -5,-1 -6,-2 -5,1 -7,-6 0,7 -1,7 1,10 -2,7 5,8 -5,5 8,3 2,-7 5,-3 6,0 4,1 3,-5 5,1 1,7 -3,5 -5,2 -3,1 -5,-2 -3,4 -2,5 -5,4 -3,-8 -5,4 0,9 6,1 7,3 3,-5 5,-3 3,-4 5,3 4,-4 5,0 1,-6 7,6 2,-6 5,0 3,-4 0,-7 3,-4 5,-3 3,-5 6,-3 4,-4 2,-5 5,-3 2,-5 3,-5 8,-1 4,-1 3,-4 5,0 5,-6 3,-4 2,-5 4,-4 5,1 -2,-8 1,-6 6,-4 6,2 -5,5 -1,7 7,1 3,-4 4,-3 5,0 1,-6 3,-6 6,-2 2,8 -3,4 -1,6 -2,5 -6,0 -4,3 -7,2 -4,2 -4,3 -7,-1 -2,6 -3,5 -5,2 -2,6 -6,0 -4,5 -6,-1 -4,2 -2,6 -4,4 -3,4 -5,3 -5,4 -4,4 -4,5 -3,4 -1,6 -2,6 -4,3 -4,1 -7,2 -5,2 -5,1 -6,2 -6,1 -3,4 4,8 5,-4 6,-2 6,-2 6,-2 7,-2 1,8 -5,2 -5,3 -3,2 -6,0 -5,2 -8,1 -5,1 -6,4 0,-7 4,-7 -6,-2 -5,0 -3,1 -4,7 7,1 -1,6 1,8 -5,0 -3,7 7,3 5,0 4,-2 -1,-7 6,2 2,-6 6,0 5,-2 7,2 3,-2 5,0 4,-2 3,-5 6,-2 3,-4 4,1 6,2 -4,6 -6,3 -4,3 -4,5 -4,3 -5,0 -5,2 -5,-3 -4,3 -5,-1 -4,5 -3,5 -3,4 -6,-1 -7,-2 -4,5 0,8 8,-2 3,-1 7,0 7,-2 3,-5 2,-6 8,0 -1,7 -1,6 -2,3 -2,5 -6,-2 -7,1 -5,3 -7,-2 -6,5 6,2 7,2 7,-2 6,-1 7,3 6,-4 5,1 5,0 6,-6 4,-2 3,-4 5,0 2,-5 4,-3 3,-5 5,-3 5,-2 5,-5 5,0 3,-5 2,-5 6,-1 5,-2 5,-5 4,-3 3,-4 3,-4 5,-4 4,-2 3,-5 -1,-8 -5,-2 -2,6 -5,2 -3,4 -4,3 -3,5 -4,3 -2,6 -5,0 -5,3 -6,4 -3,5 -6,-1 -1,7 -5,1 -5,3 -5,4 -4,4 -5,4 -5,3 -4,3 -2,8 -7,-2 1,-7 1,-6 3,-3 5,-2 6,-2 3,-5 5,-3 4,-4 5,-4 4,-3 -1,-8 0,-7 4,-5 2,-7 3,-4 5,-3 5,-2 2,-7 4,-3 7,0 2,-7 -6,-2 -5,1"
       id="path42"
       inkscape:connector-curvature="0" />
    <path
       style="fill:none;stroke:#000000;stroke-width:1"
       d="m 109,330 -6,0 -2,6 -3,4 -4,2 -4,3 -4,3 -1,7 -3,4 -2,5 -3,4 -9,-4 3,-4 3,-5 3,-6 2,-5 2,-6 5,-2 3,-4 4,-2 3,-4 5,-5 5,0 0,-6 4,-3 5,1 -1,8 6,2 4,-2 0,-6 7,4 4,-3 6,2 3,-4 3,-4 5,3 4,-3 6,0 -7,-8 6,0 4,1 6,1 3,-4 3,-4 3,-4 3,-6 6,2 6,-4 0,7 -3,7 -5,-2 -2,6 -3,4 -4,4 -7,1 -2,5 -6,2 -5,2 -7,1 -4,4 -7,0 -3,4 -5,0 -5,1 1,8 -4,3 -6,4 -4,3 -2,5 -4,4 -5,2 -3,4 -4,4 -3,6 1,7 6,-4 4,-4 4,-4 4,-2 4,-4 4,-4 3,-5 4,-3 5,-3 2,-6 4,-3 6,2 1,-6 5,0 5,-2 3,-4 6,2 4,-3 4,-2 4,-4 4,-3 6,-3 4,-4 3,-5 5,-5 5,-3 2,9 -6,3 -1,6 -3,4 -3,5 -5,-1 -4,4 -4,3 -5,4 -3,4 -7,-2 -6,3 -6,2 -1,9 5,0 5,-3 5,-3 6,2 6,-3 3,-5 6,0 3,-4 4,-2 6,-3 3,-3 3,-4 0,-8 7,-3 0,6 -1,7 -3,10 4,-3 6,-4 5,-1 12,6 -3,1 -5,2 -6,0 -3,4 -4,3 -7,-1 -6,-4 -4,4 -4,3 -7,1 -1,7 -6,-1 -4,4 -7,-2 -6,2 -6,3 -4,3 -2,6 -4,5 -4,2 -1,5 -4,2 -4,3 -7,3 -5,5 -6,2 -3,5 -1,6 -6,1 -5,0 -5,4 -5,3 -3,4 -4,5 -2,6 -5,1 -4,3 -4,3 -5,0 -1,7 -5,0 -5,0 -6,-3 -1,6 -7,-3 -5,0 -5,0 -6,1 -6,-1 -5,0 -5,-1 0,11 5,0 5,0 5,0 5,0 6,-1 6,0 6,0 8,0 6,0 6,0 6,0 -1,-7 6,0 3,-4 4,-3 6,0 1,-6 1,-6 6,-3 4,-2 3,-4 5,0 4,-3 6,-1 2,-5 1,-6 6,-1 2,-5 4,-4 11,-1 -4,2 -2,8 -2,4 -3,5 -5,0 -2,8 5,1 6,-1 4,-5 4,-4 0,-7 4,-2 4,-3 3,-4 6,1 2,-6 4,-3 6,-2 5,0 5,-1 4,-4 5,2 4,-3 7,-2 -1,-8 0,-7 -6,4 0,7 -7,-1 -7,-2 -3,5 -5,0 -4,1 -5,3 -6,2 -4,6 -8,3 2,-6 4,-5 4,-6 4,-2 2,-5 6,-1 5,0 8,-2 6,1 3,-6 4,-2 5,-2 3,-4 5,9 2,-5 5,0 5,-1 4,-3 3,-4 6,-1 6,0 6,1 8,3 -5,5 -5,1 -5,-1 -6,1 -4,4 -4,3 -7,0 -4,5 -3,3 -1,6 8,2 5,0 -1,-7 5,0 6,1 2,-5 4,-4 5,0 7,-1 6,-4 4,-6 7,3 7,-1 0,7 -6,2 -6,-2 -5,5 -1,7 -6,-3 -3,5 -5,-3 -3,5 -4,4 -5,-1 0,7 -6,0 -6,-1 -7,-2 -4,3 -5,0 -4,4 -7,-2 -6,3 -4,3 -5,0 -3,2 -5,2 -6,4 -3,4 -4,3 -4,3 -2,7 -5,3 -5,5 -4,2 -2,6 -3,5 -6,1 -5,2 -3,4 -6,2 -3,4 -1,6 -2,6 -7,1 -6,-3 -5,0 5,-8 6,3 2,-5 2,-7 3,-5 6,-1 3,-5 5,-2 6,-1 3,-5 -7,-4 -4,2 -6,1 -4,3 -3,4 -5,0 -3,4 0,8 -5,2 -6,1 -2,5 -6,1 5,9 -6,0 -5,0 -5,0 -5,0 -5,0 -5,0 -5,0 -5,0 -5,0 -5,0 -6,0 -6,0 -6,0 -6,0 1,10 5,0 5,0 5,0 5,0 5,0 5,0 5,0 5,0 5,0 5,0 5,0 5,0 5,0 5,0 5,0 5,0 5,0 5,0 7,-1"
       id="path44"
       inkscape:connector-curvature="0" />
    <path
       style="fill:none;stroke:#000000;stroke-width:1"
       d="m 106,471 7,0 2,-4 1,-8 3,-5 8,-5 -1,7 -2,7 -2,5 0,7 -1,6 -5,0 -3,1 -5,0 -5,0 -5,0 -5,0 -5,0 -5,0 -5,0 -5,0 -5,0 -5,0 -5,0 -5,0 -5,0 -5,0 -5,0 -5,0 -5,0 -5,0 -5,0 -5,0 -5,0 0,10"
       id="path46"
       inkscape:connector-curvature="0" />
  </g>
</svg>
