<?xml version="1.0" encoding="UTF-8" standalone="no"?>
<!-- Created with the Eggbot TSP art toolkit (http://egg-bot.com) -->

<svg
   xmlns:dc="http://purl.org/dc/elements/1.1/"
   xmlns:cc="http://creativecommons.org/ns#"
   xmlns:rdf="http://www.w3.org/1999/02/22-rdf-syntax-ns#"
   xmlns:svg="http://www.w3.org/2000/svg"
   xmlns="http://www.w3.org/2000/svg"
   xmlns:sodipodi="http://sodipodi.sourceforge.net/DTD/sodipodi-0.dtd"
   xmlns:inkscape="http://www.inkscape.org/namespaces/inkscape"
   height="445"
   width="626.70709"
   id="svg2"
   version="1.1"
   inkscape:version="0.91 r13725"
   sodipodi:docname="pic.SVG">
  <defs
     id="defs24" />
  <sodipodi:namedview
     showgrid="false"
     showborder="true"
     inkscape:showpageshadow="false"
     id="namedview4"
     fit-margin-top="0"
     fit-margin-left="0"
     fit-margin-right="0"
     fit-margin-bottom="0"
     inkscape:zoom="0.87865169"
     inkscape:cx="267.69566"
     inkscape:cy="155.9908"
     inkscape:window-width="942"
     inkscape:window-height="987"
     inkscape:window-x="960"
     inkscape:window-y="0"
     inkscape:window-maximized="0"
     inkscape:current-layer="svg2" />
  <metadata
     id="metadata6">
    <rdf:RDF>
      <cc:Work
         rdf:about="">
        <dc:format>image/svg+xml</dc:format>
        <dc:type
           rdf:resource="http://purl.org/dc/dcmitype/StillImage" />
        <dc:subject>
          <rdf:Bag>
            <rdf:li>Egg-Bot</rdf:li>
            <rdf:li>Eggbot</rdf:li>
            <rdf:li>TSP</rdf:li>
            <rdf:li>TSP art</rdf:li>
          </rdf:Bag>
        </dc:subject>
        <dc:description>TSP art created with the Eggbot TSP art toolkit (http://egg-bot.com)</dc:description>
        <dc:title></dc:title>
      </cc:Work>
    </rdf:RDF>
  </metadata>
  <g
     transform="matrix(1,0,0,-1,0.5,800.5)"
     id="g8">
    <path
       style="fill:none;stroke:#000000;stroke-width:1"
       d="m 228,553 0,10 11,0 0,-10 0,-10 0,0 -3,-1 -1,0 -7,0 -10,0 0,-5 -1,-1 -2,-1 -1,-1 -2,-2 -2,-1 -1,-1 -2,-1 0,3 0,10 -10,0 0,-10 -11,0 0,10 -11,0 0,-10 -10,0 0,10 0,11 0,10 10,0 0,-10 11,0 0,10 11,0 0,-10 10,0 0,10 0,11 -10,0 0,11 10,0 0,10 -10,0 0,11 10,0 0,11 -10,0 0,10 -11,0 0,-10 -11,0 -10,0 -11,0 -11,0 -10,0 -11,0 0,10 -10,0 0,-10 -11,0 0,10 0,11 0,10 -11,0 -10,0 0,-10 10,0 0,-11 -10,0 0,-10 10,0 0,-11 -10,0 -11,0 0,11 0,10 -11,0 -10,0 0,-10 10,0 0,-11 -10,0 0,-11 0,-10 10,0 0,10 11,0 0,-10 11,0 0,10 10,0 0,-10 11,0 0,10 0,11 11,0 10,0 0,-11 -10,0 0,-10 10,0 11,0 10,0 0,10 -10,0 0,11 10,0 11,0 0,-11 0,-10 11,0 10,0 0,10 -10,0 0,11 10,0 11,0 0,-11 0,-10 0,-11 -11,0 -10,0 -11,0 0,-11 0,-10 0,-11 0,-10 -11,0 -10,0 0,10 10,0 0,11 -10,0 0,10 10,0 0,11 -10,0 -11,0 -10,0 -11,0 -11,0 -10,0 -11,0 -11,0 -10,0 0,-11 0,-10 10,0 0,10 11,0 0,-10 0,-11 0,-10 -11,0 0,10 -10,0 0,-10 0,-11 10,0 11,0 0,-11 0,-10 0,-11 11,0 10,0 11,0 0,11 0,10 -11,0 0,-10 -10,0 0,10 0,11 10,0 0,11 -10,0 0,10 10,0 0,11 -10,0 0,10 10,0 11,0 0,-10 11,0 0,10 10,0 0,-10 0,-11 0,-10 -10,0 0,10 -11,0 0,-10 0,-11 11,0 10,0 11,0 10,0 11,0 0,-11 0,-10 -11,0 0,10 -10,0 0,-10 -11,0 0,10 -10,0 0,-10 0,-11 10,0 11,0 10,0 0,-11 0,-10 -10,0 0,10 -11,0 0,-10 -10,0 0,10 -11,0 0,-10 0,-11 0,-10 11,0 0,10 10,0 0,-10 0,-11 -10,0 -11,0 -11,0 -10,0 0,11 10,0 0,10 -10,0 0,11 10,0 0,10 -10,0 -11,0 0,-10 0,-11 0,-10 0,-11 0,-11 0,-10 11,0 0,10 10,0 0,-10 11,0 0,10 11,0 0,-10 10,0 0,10 11,0 0,-10 10,0 0,10 0,11 -10,0 0,11 0,10 10,0 0,-10 11,0 0,10 0,11 0,10 0,11 11,0 10,0 11,0 0,11 0,10 -11,0 0,-10 -10,0 0,10 0,11 10,0 11,0 11,0 0,-10 -1,-2 -1,-2 0,-2 0,-2 0,-2 0,-2 -1,-2 0,-2 0,-3 0,-2 0,-2 0,-2 0,-2 0,-2 0,-2 0,-2 0,-2 0,-2 0,-2 0,-2 0,-3 0,-2 0,-2 0,-2 0,-2 0,-2 0,-2 0,-2 0,-2 0,-2 0,-2 0,-2 0,-3 0,-2 0,-2 0,-2 0,-2 0,-2 0,-2 0,-2 0,-2 0,-2 0,-2 0,-3 0,-2 0,-2 -1,-2 0,-2 0,-2 0,-2 -1,-2 -6,-1 6,-1 0,-2 0,-2 0,-2 -1,-2 0,-2 -5,0 4,-2 -1,-2 -1,-2 -1,-2 -1,-1 -11,-1 0,-11 0,-2 -1,-1 -2,-1 -1,-1 -2,-1 -2,-1 -2,-1 0,-1 0,9 -11,0 0,-10 0,-3 -2,-1 -2,0 -2,0 -2,0 -2,-1 -1,0 0,5 0,10 -10,0 0,-10 0,-6 -2,0 -2,0 -2,0 -2,0 -2,0 -1,0 0,6 0,10 -10,0 0,-10 0,-6 -2,0 -2,0 -2,0 -2,0 -2,0 -1,0 0,6 0,10 -11,0 0,-10 0,-6 0,0 -2,0"
       id="path10"
       inkscape:connector-curvature="0" />
    <path
       style="fill:none;stroke:#000000;stroke-width:1"
       d="m 88,356 -3,0 -2,0 -2,0 -1,0 0,6 0,10 0,11 0,10 10,0 0,-10 11,0 0,10 11,0 0,-10 10,0 0,10 11,0 0,-10 10,0 0,10 11,0 0,-10 11,0 0,10 10,0 0,11 -10,0 0,11 0,10 10,0 0,-10 11,0 0,10 0,11 0,11 0,10 0,11 0,10 -11,0 -10,0 0,-10 10,0 0,-11 -10,0 0,-10 10,0 0,-11 -10,0 -11,0 0,-11 0,-10 0,-11 -11,0 -10,0 -11,0 -10,0 -11,0 -11,0 -10,0 -11,0 0,-11 0,-10 0,-11 0,-10 0,-6 0,0 -2,0 -2,0 -2,0 -3,0 -2,1 0,5 0,10 -10,0 0,-10 0,-5 -2,0 -2,1 -2,0 -2,0 -2,1 -1,0 0,3 0,10 -10,0 0,-7 -2,1 -2,1 -2,1 -1,0 -3,3 0,1 -1,1 0,10 -8,0 0,0 -1,2 -2,2 -1,1 0,2 -1,3 0,0 2,0 11,0 11,0 0,-10 10,0 0,10 11,0 0,-10 10,0 0,10 0,11 -10,0 -11,0 -10,0 0,11 0,10 10,0 0,-10 11,0 10,0 -10,10 10,0 0,11 -10,0 -11,0 -10,0 -11,0 0,-11 0,-10 0,-11 -11,0 -4,0 0,1 0,2 0,2 -1,2 0,2 0,2 5,0 0,10 -5,0 0,1 0,2 0,2 0,2 0,2 0,2 5,0 0,11 -5,0 0,2 0,2 0,2 0,2 0,2 0,0 5,0 0,11 -5,0 0,1 0,3 0,2 0,2 0,2 0,0 5,0 11,0 0,-10 0,-11 0,-10 11,0 0,10 10,0 0,-10 11,0 10,0 0,10 -10,0 0,11 10,0 0,10 -10,0 -11,0 0,-10 -10,0 0,10 0,11 10,0 11,0 10,0 0,11 0,10 -10,0 0,-10 -11,0 -10,0 0,10 10,0 0,11 -10,0 -11,0 0,-11 0,-10 0,-11 -11,0 -5,0 0,1 0,2 0,2 0,3 0,2 0,1 5,0 0,10 -5,0 0,1 0,2 0,2 0,2 0,2 0,2 5,0 0,11 -5,0 0,0 0,2 0,2 0,2 0,2 0,2 5,0 0,11 0,10 -5,0 0,2 0,2 0,3 0,2 0,2 0,0 5,0 0,11 0,10 -5,0 0,2 0,2 0,2 0,2 0,2 0,1 5,0 11,0 0,-11 0,-10 0,-11 0,-11 0,-10 0,-11 0,-10 11,0 10,0 0,10 -10,0 0,11 10,0 0,10 -10,0 0,11 10,0 0,11 -10,0 0,10 10,0 0,11 -10,0 0,11 10,0 0,10 -10,0 0,11 10,0 0,10 -10,0 -11,0 0,-10 0,-11 0,-10 -11,0 0,10 -5,0 0,1 0,2 0,2 0,2 0,2 0,2 5,0 0,10 0,11 0,11 0,10 0,11 0,11 0,10 0,11 0,10 0,11 0,11 0,10 0,2 1,2 1,2 1,1 1,2 1,2 1,2 1,2 1,2 2,1 1,1 0,-8 0,-11 0,-10 11,0 0,10 10,0 0,-10 11,0 0,10 10,0 0,-10 11,0 0,10 0,11 -11,0 -10,0 -11,0 -10,0 0,11 0,5 1,1 2,1 1,1 2,1 2,0 2,1 0,-10 11,0 0,10 0,2 2,0 2,0 2,1 2,0 2,0 0,0 0,-3 0,-10 11,0 0,10 0,3 1,0 2,0 3,0 2,0 2,0 1,0 0,-3 10,0 0,3 1,0 2,0 2,0 3,0 2,0 1,0 0,-3 0,-10 -11,0 -10,0 0,-11 10,0 11,0 11,0 10,0 0,11 -10,0 0,10 10,0 11,0 0,-10 10,0 0,10 11,0 0,-10 11,0 0,10 10,0 0,-10"
       id="path12"
       inkscape:connector-curvature="0" />
    <path
       style="fill:none;stroke:#000000;stroke-width:1"
       d="m 175,787 11,0 0,10 11,0 0,-10 10,0 0,10 0,3 1,0 2,0 2,0 2,0 2,0 2,0 0,-3 0,-10 10,0 0,10 0,3 1,0 2,0 2,0 2,0 2,0 2,0 0,-3 0,-10 11,0 0,10 0,3 0,0 2,0 2,0 2,0 2,0 2,0 0,0 0,-3 0,-10 0,-11 -10,0 -11,0 -11,0 -10,0 -11,0 -10,0 0,-11 0,-10 10,0 0,10 11,0 0,-10 10,0 0,10 11,0 0,-10 11,0 0,10 10,0 0,-10 0,-11 -10,0 -11,0 0,-11 0,-10 11,0 0,10 10,0 0,-10 11,0 0,10 11,0 0,-10 10,0 0,10 11,0 0,-10 10,0 0,10 0,11 -10,0 -11,0 -10,0 -11,0 0,11 0,10 11,0 0,-10 10,0 0,10 11,0 0,-10 10,0 0,10 0,11 -10,0 -11,0 -10,0 -11,0 0,11 0,10 0,3 2,0 2,0 2,0 2,0 2,0 1,0 0,-3 0,-10 10,0 0,10 0,3 2,0 2,0 2,0 2,0 2,0 1,0 0,-3 0,-10 10,0 0,10 0,3 1,0 3,0 2,0 2,0 2,0 1,0 0,-3 0,-10 11,0 0,10 0,3 0,0 2,0 3,0 2,0 2,0 1,0 0,-3 0,-10 11,0 0,10 0,3 0,0 2,0 2,0 2,0 3,0 2,0 0,-3 0,-10 10,0 0,10 0,3 2,0 2,0 2,0 2,0 2,0 1,0 0,-3 0,-10 10,0 0,10 11,0 0,-10 11,0 0,10 10,0 0,-10 11,0 0,10 11,0 0,-10 10,0 0,10 11,0 10,0 0,-10 -10,0 0,-11 10,0 11,0 11,0 10,0 0,11 -10,0 -11,0 0,10 11,0 10,0 11,0 0,-10 11,0 0,10 10,0 0,-10 0,-11 -10,0 -11,0 0,-11 0,-10 11,0 0,10 10,0 0,-10 11,0 0,10 10,0 0,-10 11,0 0,10 0,11 -11,0 -10,0 0,11 0,10 10,0 0,-10 11,0 0,10 9,0 2,0 1,-1 2,-1 2,-1 2,-2 1,-1 2,-1 2,-1 2,-1 1,-1 1,0 -6,0 -10,0 0,-11 10,0 0,-11 -10,0 0,-10 10,0 11,0 0,10 0,11 4,0 1,-2 1,-1 1,-2 1,-2 1,-2 1,-2 0,0 1,-10 1,0 1,-2 0,-2 0,-2 0,-2 0,-2 1,-1 -3,0 -11,0 -11,0 -10,0 0,-11 10,0 0,-10 -10,0 -11,0 0,-11 0,-10 11,0 0,10 10,0 0,-10 11,0 0,10 0,11 0,10 11,0 3,0 0,-1 0,-2 0,-2 0,-2 0,-2 0,-1 -3,0 0,-11 0,-10 0,-11 0,-11 0,-10 0,-11 -11,0 -11,0 -10,0 0,11 0,10 10,0 0,-10 11,0 0,10 0,11 -11,0 -10,0 -11,0 -11,0 -10,0 0,11 10,0 0,10 -10,0 -11,0 0,-10 0,-2 2,-4 2,-6 1,-6 6,-4 -5,-2 0,-6 5,-2 10,0 0,10 11,0 0,-10 0,-11 0,-11 0,-10 11,0 0,10 10,0 0,-10 11,0 0,10 11,0 0,-10 0,-11 0,-10 3,0 0,-1 0,-2 0,-3 0,-2 0,-2 0,-1 -3,0 0,-11 0,-10 3,0 0,-1 0,-2 0,-2 0,-2 0,-2 0,-2 -3,0 0,-11 0,-10 0,-11 0,-10 0,-11 -11,0 -11,0 -10,0 0,11 0,10 10,0 0,-10 11,0 0,10 0,11 0,10 -11,0 0,-10 -10,0 0,10 0,11 10,0 11,0 0,11 0,10 -11,0 0,-10 -10,0 0,10 0,11 10,0 11,0 0,11 0,10 -11,0 0,-10 -10,0 0,10 -11,0 0,-10 0,-11"
       id="path14"
       inkscape:connector-curvature="0" />
    <path
       style="fill:none;stroke:#000000;stroke-width:1"
       d="m 579,606 0,-11 0,-10 0,-11 0,-11 0,-10 0,-11 0,-10 0,-11 0,-11 0,-10 11,0 0,10 10,0 0,-10 11,0 0,10 11,0 0,-10 0,-11 0,-11 0,-10 -11,0 0,10 0,11 -11,0 -10,0 -11,0 -11,0 -10,0 -11,0 -10,0 0,-11 10,0 0,-10 -10,0 0,-11 10,0 0,-10 -10,0 0,-11 10,0 11,0 10,0 11,0 0,11 0,10 -11,0 0,-10 -10,0 0,10 0,11 0,10 10,0 0,-10 11,0 0,10 11,0 10,0 0,-10 -10,0 0,-11 10,0 0,-10 -10,0 0,-11 10,0 0,-11 0,-10 -10,0 0,10 -11,0 0,-10 -11,0 0,10 -10,0 0,-10 0,-11 10,0 0,-11 -10,0 0,-10 10,0 11,0 0,10 0,11 11,0 10,0 11,0 0,11 0,10 0,11 0,11 0,10 11,0 0,-10 0,-11 0,-11 0,-10 0,-11 0,-10 -1,-1 -1,-2 -1,-1 -2,-2 -1,-2 -1,-1 -1,-2 -3,-4 0,0 1,2 -1,2 0,10 -11,0 -10,0 0,-10 10,0 0,-11 0,-3 0,-1 -2,-1 -2,-1 -2,-1 -2,-1 -1,-1 -1,-1 0,10 -11,0 0,-10 0,-3 0,0 -2,-1 -2,0 -2,0 -2,0 -2,-1 -1,0 0,5 0,10 -10,0 0,-10 0,-6 -2,0 -2,0 -2,0 -2,0 -2,0 -1,0 0,6 0,10 -10,0 0,-10 0,-6 -2,0 -2,0 -2,0 -2,0 -2,0 -1,0 0,6 0,10 -11,0 0,-10 0,-6 0,0 -3,0 -2,0 -2,0 -2,0 -1,0 0,6 0,10 0,11 10,0 0,10 -10,0 0,11 10,0 11,0 0,-11 0,-10 11,0 10,0 0,10 -10,0 0,11 10,0 0,11 0,10 -10,0 0,-10 -11,0 0,10 0,11 0,11 0,10 0,11 0,10 -11,0 0,-10 -10,0 0,10 -11,0 0,-10 0,-11 0,-10 11,0 0,10 10,0 0,-10 0,-11 0,-11 0,-10 -10,0 0,10 0,11 -11,0 0,-11 0,-10 0,-11 -11,0 -10,0 0,-11 0,-10 10,0 0,10 11,0 0,-10 0,-11 0,-10 0,-6 0,0 -2,0 -3,0 -2,1 -2,0 -2,0 0,5 0,10 -10,0 0,-10 0,-4 -2,0 -2,1 -2,0 -2,2 -2,1 -1,0 0,10 -10,0 0,-3 -1,0 -2,1 -2,1 -1,2 -1,2 -1,2 -1,1 -1,2 -1,1 0,2 0,10 11,0 0,-10 10,0 0,10 0,11 -10,0 -11,0 0,11 0,10 0,11 0,11 0,10 0,11 0,10 0,11 11,0 10,0 0,-11 -10,0 0,-10 10,0 0,-11 -10,0 0,-10 10,0 0,-11 -10,0 0,-11 0,-10 10,0 0,10 11,0 0,-10 10,0 0,10 0,11 -10,0 0,11 10,0 0,10 -10,0 0,11 10,0 0,10 -10,0 0,11 10,0 0,11 0,10 -10,0 0,-10 -11,0 -10,0 0,10 10,0 0,11 -10,0 -11,0 0,-11 0,-10 -11,2 0,1 0,2 0,2 -1,2 1,1 -2,1 -1,2 -1,2 0,1 -1,2 5,3 -6,-1 -1,2 -1,2 -1,2 -1,1 0,5 0,10 10,0 0,-10 11,0 0,10 11,0 0,-10 10,0 0,10 11,0 10,0 0,-10 -10,0 0,-11 10,0 11,0 0,-11 0,-10 0,-11 11,0 10,0 11,0 0,11 0,10 -11,0 0,-10 -10,0 0,10 0,11 10,0 11,0 0,11 0,10 11,0 10,0 0,-10 -10,0 0,-11 10,0 0,-11 -10,0 0,-10 10,0 11,0 10,0 0,10 -10,0 0,11 10,0 0,11 -10,0 0,10 10,0 0,11 -10,0 0,10 10,0 0,11 -10,0 0,11 10,0 0,10"
       id="path16"
       inkscape:connector-curvature="0" />
    <path
       style="fill:none;stroke:#000000;stroke-width:1"
       d="m 568,595 -10,0 -11,0 -10,0 0,-10 10,0 0,-11 -10,0 0,-11 10,0 0,-10 -10,0 -11,0 0,10 0,11 0,11 0,10 -11,0 -10,0 0,-10 10,0 0,-11 -10,0 0,-11 10,0 0,-10 -10,0 0,-11 10,0 0,-10 -10,0 -11,0 0,10 0,11 0,10 0,11 0,11 0,10 -11,0 0,-10 -10,0 0,10 0,11 10,0 11,0 11,0 10,0 11,0 11,0 10,0 0,11 -10,0 0,10 10,0 11,0 0,-10 0,-11 10,0 0,11 0,10 0,11 -10,0 0,10 10,0 0,11 -10,0 -6,7 -3,-6 -2,-4 0,-8 0,-10 -10,0 0,4 -2,-2 -5,-4 -4,-2 0,-7 0,-10 -11,0 0,10 0,3 -2,0 -7,-1 -1,0 0,-2 0,-10 -11,0 0,10 0,3 0,0 -6,1 -5,2 0,-6 0,-10 -10,0 0,10 -11,0 0,-10 -10,0 0,10 0,11 10,0 11,0 0,0 -1,2 -5,4 -4,4 -1,0 -10,0 0,11 0,11 2,0 0,2 -1,6 0,2 -1,0 -11,0 0,-10 -11,0 -10,0 0,10 10,0 0,11 -10,0 -11,0 0,-11 0,-10 -11,0 0,10 -10,0 0,-10 -11,0 0,10 -10,0 0,-10 -11,0 0,10 0,11 0,11 0,10 11,0 10,0 0,-10 -10,0 0,-11 10,0 11,0 10,0 0,11 -10,0 0,10 10,0 0,11 -10,0 0,10 10,0 11,0 0,-10 0,-11 0,-10 11,0 10,0 0,10 -10,0 0,11 10,0 0,10 -10,0 0,11 10,0 11,0 0,-11 0,-10 0,-11 0,-10 0,-11 11,0 3,0 2,5 3,6 -8,0 0,10 10,0 5,0 4,4 2,1 0,6 9,0 6,3 -5,7 -10,0 -11,0 0,-10 -10,0 0,10 0,11 10,0 11,0 10,0 11,0 0,-11 0,-6 6,1 5,5 1,-5 6,-1 3,6 3,-7 6,-3 0,0 2,0 0,10 11,0 0,-10 10,0 0,10 11,0 0,-10 10,0 0,10 11,0 0,11 -11,0 -10,0 -11,0 -10,0 -11,0 -11,0 -10,0 0,11 10,0 0,10 -10,0 -11,0 0,-10 -11,0 0,10 -10,0 0,-10 -11,0 -10,0 0,10 10,0 0,11 -10,0 -11,0 0,-11 0,-10 -11,0 -10,0 0,10 10,0 0,11 -10,0 -11,0 0,-11 0,-10 0,-11 -11,0 -10,0 -11,0 -10,0 0,-11 10,0 0,-10 -10,0 -11,0 0,10 0,11 -11,0 -10,0 0,11 0,10 10,0 0,-10 11,0 0,10 11,0 0,-10 10,0 0,10 11,0 0,-10 10,0 0,10 0,11 -10,0 -11,0 -10,0 -11,0 -11,0 -10,0 -11,0 0,-11 0,-10 0,-11 0,-11 0,-10 11,0 0,10 10,0 0,-10 0,-11 -10,0 0,-10 10,0 0,-11 -10,0 0,-11 10,0 0,-10 -10,0 0,-11 10,0 11,0 11,0 10,0 11,0 10,0 11,0 11,0 10,0 11,0 0,-11 0,-10 0,-11 0,-10 0,-11 11,0 10,0 0,-11 0,-10 -10,0 0,10 -11,0 0,-10 0,-11 11,0 10,0 11,0 10,0 0,-11 0,-10 -10,0 0,10 -11,0 0,-10 -10,0 0,10 -11,0 0,-10 -11,0 -10,0 0,10 10,0 0,11 -10,0 -11,0 -11,0 -10,0 0,-11 0,-10 10,0 0,10 11,0 0,-10 0,-11 0,-7 -1,1 -2,1 -1,2 -2,1 -2,0 -2,1 -1,1 0,-1 -10,2 -2,0 -2,0 -2,1 -2,0 -2,0 -1,0 0,9 -10,0 0,10 10,0 0,11 -10,0 0,11 0,10 10,0 0,-10 11,0 0,10 10,0 0,-10 11,0 0,10 11,0 0,-10 10,0"
       id="path18"
       inkscape:connector-curvature="0" />
    <path
       style="fill:none;stroke:#000000;stroke-width:1"
       d="m 430,585 0,10 0,11 -10,0 -11,0 -11,0 -10,0 -11,0 -10,0 0,11 0,10 10,0 0,-10 11,0 0,10 10,0 0,-10 11,0 0,10 11,0 0,-10 10,0 0,10 0,11 0,10 -10,0 0,-10 -11,0 0,10 -11,0 0,-10 -10,0 0,10 -11,0 0,-10 -10,0 0,10 -11,0 0,-10 -11,0 0,10 -10,0 0,-10 -11,0 0,10 -11,0 0,-10 -10,0 0,10 -11,0 0,-10 -10,0 0,10 0,11 10,0 0,11 -10,0 0,10 10,0 11,0 10,0 0,-10 -10,0 0,-11 10,0 11,0 0,11 0,10 0,11 0,11 0,10 -11,0 -10,0 0,-10 10,0 0,-11 -10,0 -11,0 -10,0 0,11 10,0 0,10 -10,0 -11,0 0,-10 -11,0 0,10 -10,0 0,-10 0,-11 10,0 11,0 0,-11 0,-10 -11,0 0,10 -10,0 0,-10 -11,0 0,10 0,11 0,11 0,10 -11,0 -10,0 0,-10 10,0 0,-11 -10,0 0,-11 10,0 0,-10 -10,0 0,-11 10,0 11,0 11,0 10,0 11,0 0,-11 0,-10 -11,0 0,10 -10,0 0,-10 -11,0 0,10 -11,0 0,-10 -10,0 0,10 -11,0 0,11 -8,0 0,1 3,6 1,4 4,0 0,10 0,11 -6,0 -2,5 -2,6 10,0 0,10 -10,0 -8,0 -4,4 -1,1 2,6 0,10 11,0 0,-10 10,0 0,10 11,0 0,-10 10,0 0,10 0,11 -10,0 -11,0 -10,0 -11,0 0,11 0,10 0,11 -11,0 -10,0 0,-11 10,0 0,-10 -10,0 0,-11 10,0 0,-11 0,-10 -1,0 0,0 -6,3 -3,7 -3,-6 -6,1 -2,5 -4,-5 -6,-1 -1,6 -5,-7 -6,-3 1,10 0,11 10,0 11,0 0,11 0,10 0,11 -11,0 -10,0 0,-11 10,0 0,-10 -10,0 -11,0 0,10 -10,0 0,-10 0,-11 10,0 0,-11 -10,0 0,-10 10,0 0,-6 -1,-1 -4,-4 -5,0 1,-5 -1,-2 -11,-3 0,10 0,11 0,10 0,11 0,11 0,10 -11,0 -10,0 0,-10 10,0 0,-11 -10,0 -11,0 -11,0 -10,0 -11,0 -10,0 -11,0 0,-11 0,-10 11,0 0,10 10,0 0,-10 0,-11 0,-10 -10,0 0,10 -11,0 0,-10 0,-11 11,0 10,0 11,0 10,0 0,-11 0,-10 -10,0 0,10 -11,0 0,-10 -10,0 0,10 -11,0 0,-10 0,-11 11,0 10,0 11,0 10,0 0,-11 -10,0 0,-10 10,0 11,0 0,10 0,11 0,11 0,10 0,11 0,11 0,10 -11,0 0,-10 -10,0 0,10 0,11 0,10 10,0 0,-10 11,0 0,10 11,0 10,0 0,-10 -10,0 0,-11 10,0 0,-10 -10,0 0,-11 10,0 11,0 0,-11 0,-10 -11,0 0,10 -10,0 0,-10 0,-11 10,0 11,0 6,0 3,-5 2,-6 1,1 0,-1 -1,-10 10,0 2,0 3,-2 5,-3 1,-6 5,4 5,-4 1,3 6,-1 4,-2 2,2 7,1 2,-3 4,4 6,-4 -1,6 6,3 2,2 4,0 0,3 3,3 4,4 4,0 0,-10 10,0 0,-11 11,0 0,-10 10,0 0,10 11,0 0,-10 0,-11 -11,0 -10,0 0,-11 0,-10 10,0 0,10 11,0 0,-10 11,0 0,10 10,0 0,-10 11,0 0,10 0,11 -11,0 -10,0 0,11 0,10 10,0 0,-10 11,0 0,10 11,0 10,0 0,-10 -10,0 0,-11 10,0 0,-11 -10,0 0,-10 10,0 11,0 10,0 0,10 -10,0 0,11 10,0 0,11 -10,0 0,10 10,0 11,0 0,-10 0,-11 0,-11 0,-10 11,0 10,0 0,10 -10,0"
       id="path20"
       inkscape:connector-curvature="0" />
    <path
       style="fill:none;stroke:#000000;stroke-width:1"
       d="m 335,595 0,11 10,0 0,11 -10,0 0,10 10,0 11,0 0,-10 0,-11 0,-11 0,-10 0,-11 0,-11 0,-10 -11,0 -10,0 0,10 10,0 0,11 -10,0 -11,0 -11,0 -10,0 0,-11 10,0 11,0 0,-10 -11,0 -10,0 -11,0 -10,0 0,10 10,0 0,11 -10,0 -11,0 0,-11 0,-10 -11,0 -10,0 0,10 10,0 0,11 -10,0 -11,0 -11,0 -10,0 0,-11 0,-10 10,0"
       id="path22"
       inkscape:connector-curvature="0" />
  </g>
</svg>
